<?xml version="1.0" standalone="no"?>
<!DOCTYPE svg PUBLIC "-//W3C//DTD SVG 20010904//EN"
 "http://www.w3.org/TR/2001/REC-SVG-20010904/DTD/svg10.dtd">
<svg version="1.0" xmlns="http://www.w3.org/2000/svg"
 width="333.000000pt" height="333.000000pt" viewBox="0 0 333.000000 333.000000"
 preserveAspectRatio="xMidYMid meet">
<metadata>
Created by potrace 1.11, written by Peter Selinger 2001-2013
</metadata>
<g transform="translate(0.000000,333.000000) scale(0.100000,-0.100000)"
fill="#000000" stroke="none">
<path d="M1326 3058 c3 -4 10 -5 16 -2 7 5 8 2 4 -5 -5 -7 -10 -10 -13 -7 -3
2 -17 0 -32 -6 -44 -17 -65 -18 -73 -5 -6 9 -10 9 -19 0 -10 -10 -15 -9 -26 5
-13 15 -13 14 -3 -6 9 -19 14 -21 26 -11 12 10 13 9 8 -5 -4 -11 -13 -15 -23
-11 -40 16 -49 14 -46 -12 l3 -26 -18 23 -18 23 3 -26 c2 -15 -1 -25 -6 -21
-5 3 -6 10 -3 16 5 7 2 8 -5 4 -7 -5 -10 -14 -7 -22 3 -8 0 -11 -9 -7 -8 3
-12 10 -8 16 4 6 1 7 -6 3 -7 -5 -10 -14 -7 -22 3 -8 1 -14 -4 -14 -6 0 -10 4
-10 8 0 4 -10 8 -21 9 -21 2 -21 1 -3 -13 11 -9 13 -13 7 -9 -7 3 -13 1 -13
-6 0 -7 -7 -4 -15 7 -14 18 -14 18 -10 -6 4 -24 4 -24 -10 -6 -11 14 -15 16
-15 5 0 -15 -39 -45 -54 -41 -5 2 -6 -4 -2 -13 5 -13 1 -15 -16 -9 -21 6 -22
5 -8 -11 14 -17 14 -18 -10 -5 -23 12 -24 12 -11 -4 8 -9 10 -16 5 -15 -23 4
-35 -2 -28 -13 5 -8 0 -7 -11 2 -10 8 -16 10 -12 3 5 -7 -1 -16 -12 -22 -26
-14 -34 -14 -25 1 4 7 3 8 -4 4 -6 -4 -9 -13 -6 -21 6 -15 -33 -37 -49 -28 -5
3 -4 -4 3 -17 11 -20 10 -21 -9 -10 -14 7 -27 8 -39 1 -13 -7 -23 -6 -31 2 -9
9 -14 9 -20 -1 -8 -14 -46 -12 -71 3 -12 7 -13 6 -3 -7 7 -8 10 -18 6 -22 -4
-4 -13 4 -20 16 -7 13 -12 18 -13 11 0 -7 -19 -11 -54 -10 -30 1 -53 0 -51 -4
2 -3 -16 -5 -40 -5 -24 1 -41 4 -39 7 2 4 -7 6 -21 4 -14 -1 -25 3 -25 9 0 6
-4 5 -9 -3 -6 -9 -15 -11 -27 -6 -26 12 -46 13 -66 3 -12 -6 -18 -5 -18 4 0
10 -2 10 -9 -1 -11 -16 -34 -5 -24 12 3 7 -3 4 -14 -5 -19 -18 -49 -25 -40
-10 3 4 -5 7 -18 7 -14 0 -21 -5 -18 -13 6 -14 -18 -13 -28 2 -4 4 -6 -4 -6
-19 0 -15 2 -23 6 -18 3 5 17 10 31 11 14 0 20 -2 15 -6 -12 -8 -13 -37 -3
-48 4 -4 15 -1 23 6 12 10 18 11 28 1 9 -10 8 -11 -8 -6 -20 7 -20 6 -1 -9 16
-13 22 -13 29 -3 6 8 7 6 3 -7 -4 -12 -2 -17 7 -13 7 3 21 -1 31 -9 11 -7 23
-11 29 -7 6 3 7 1 3 -5 -3 -6 -2 -13 4 -17 6 -4 8 -10 5 -15 -8 -13 14 -23 28
-12 8 7 18 6 31 -4 10 -7 23 -11 29 -7 6 3 7 1 3 -6 -6 -9 -14 -8 -34 4 l-27
16 23 -20 c13 -11 30 -17 37 -14 14 5 20 -8 16 -30 -1 -5 3 -6 8 -3 5 4 12 3
15 -2 3 -5 19 -7 36 -6 24 2 30 -1 26 -13 -4 -11 -2 -13 9 -10 8 4 17 2 20 -3
4 -6 0 -10 -7 -10 -9 0 -13 -12 -12 -35 2 -29 -1 -33 -15 -26 -13 7 -16 4 -17
-15 -2 -22 0 -23 14 -12 9 7 7 0 -6 -16 -12 -15 -19 -33 -15 -40 4 -6 0 -5 -9
2 -14 11 -16 10 -11 -9 5 -17 3 -21 -9 -16 -21 7 -18 -26 2 -35 12 -5 12 -7
-2 -7 -10 -1 -18 -6 -18 -12 0 -5 6 -7 13 -4 6 4 3 -1 -7 -9 -11 -9 -16 -16
-12 -16 5 0 3 -7 -4 -15 -11 -13 -10 -14 6 -9 16 6 17 5 7 -7 -16 -16 -17 -33
-1 -23 7 4 8 3 4 -4 -4 -7 -14 -12 -22 -12 -8 0 -14 -5 -14 -11 0 -6 10 -8 23
-5 l22 6 -22 -11 c-13 -7 -23 -16 -23 -21 0 -5 5 -6 12 -2 7 4 8 3 4 -4 -4 -7
-14 -12 -22 -12 -8 0 -14 -5 -14 -11 0 -5 4 -8 9 -4 5 3 13 1 16 -5 4 -6 1 -9
-7 -8 -9 2 -14 -11 -16 -40 -3 -39 -5 -42 -19 -30 -15 12 -15 11 -4 -9 11 -21
8 -27 -11 -24 -4 0 -5 -11 -2 -25 3 -14 1 -23 -4 -20 -5 3 -9 -1 -9 -9 0 -8 5
-11 10 -8 6 4 8 0 4 -10 -3 -10 -2 -17 4 -17 6 0 8 -4 4 -10 -3 -5 -13 -6 -23
-3 -9 3 -5 -4 11 -16 15 -12 27 -28 27 -34 0 -7 -5 -4 -11 6 -5 9 -18 17 -27
17 -16 -1 -16 -1 0 -11 10 -5 18 -15 18 -20 0 -6 -5 -7 -12 -3 -6 4 -8 3 -4
-4 3 -5 0 -13 -6 -16 -7 -3 -2 -3 12 0 24 5 24 4 6 -10 -11 -9 -14 -16 -8 -16
7 0 12 -4 12 -10 0 -5 -8 -7 -18 -4 -14 5 -15 4 -2 -5 13 -10 13 -12 0 -21 -8
-5 -10 -10 -4 -10 5 0 19 -7 30 -15 18 -14 18 -14 -4 -10 -15 3 -20 0 -15 -8
12 -19 19 -73 12 -97 -3 -10 2 -14 16 -12 16 2 17 1 6 -7 -13 -8 -13 -12 0
-28 13 -16 12 -17 -3 -5 -19 16 -31 2 -13 -15 7 -6 15 -10 17 -8 2 2 3 -8 3
-23 -1 -15 4 -33 9 -41 8 -11 8 -13 -1 -7 -7 4 -14 4 -14 -1 -6 -35 -5 -52 2
-47 4 2 5 12 2 22 -3 9 -2 14 2 9 5 -4 9 -17 10 -30 2 -13 8 -21 16 -19 8 2
10 0 6 -5 -5 -4 -14 -8 -19 -8 -6 0 -13 -7 -15 -15 -3 -10 -2 -11 4 -3 6 8 13
8 28 -3 16 -12 17 -16 5 -27 -9 -8 -11 -8 -6 0 7 14 -10 28 -18 14 -8 -13 21
-34 35 -25 7 4 9 3 5 -4 -3 -6 -2 -13 3 -16 4 -3 7 -19 5 -36 -2 -17 0 -29 4
-26 5 3 9 -1 9 -8 0 -9 -7 -12 -16 -8 -14 5 -14 4 -1 -14 8 -10 21 -25 28 -33
7 -7 11 -20 8 -27 -3 -7 4 -16 16 -20 16 -5 18 -8 7 -15 -12 -7 -12 -9 0 -9 8
0 11 -7 8 -20 -3 -11 -1 -20 5 -20 5 0 6 -6 2 -12 -6 -10 -5 -10 7 -1 19 15
40 -2 32 -25 -5 -11 -2 -13 8 -7 11 6 12 5 2 -6 -7 -7 -13 -18 -13 -23 0 -6 5
-4 10 4 9 13 10 13 11 0 1 -8 1 -19 0 -24 -1 -5 3 -13 10 -17 7 -4 14 -15 15
-24 4 -24 11 -28 18 -10 4 11 2 14 -7 9 -6 -4 -9 -3 -4 1 4 5 0 16 -9 26 -10
11 -12 19 -4 24 6 4 9 1 8 -7 -2 -7 3 -12 10 -10 8 1 11 -1 8 -6 -3 -5 6 -20
20 -35 14 -15 20 -27 15 -27 -6 0 -15 8 -20 18 -6 9 -11 12 -11 5 0 -6 4 -14
10 -18 5 -3 7 -13 4 -23 -5 -14 -4 -15 5 -2 10 13 15 8 12 -12 0 -4 5 -5 12
-2 7 2 22 -5 33 -17 10 -13 13 -19 7 -15 -7 4 -13 2 -13 -3 0 -6 5 -11 10 -11
6 0 10 -6 10 -14 0 -8 10 -16 23 -18 15 -2 21 -9 19 -22 -3 -13 1 -17 12 -13
8 3 18 1 22 -5 5 -7 2 -8 -6 -3 -8 5 -11 3 -8 -6 3 -8 10 -15 16 -15 7 -1 15
-3 20 -4 4 -1 10 -2 13 -2 4 1 6 -7 6 -16 0 -42 4 -47 17 -23 l14 24 7 -23 c5
-15 3 -25 -6 -31 -8 -5 -9 -9 -3 -9 6 0 14 3 18 7 14 14 35 11 29 -4 -5 -12
-7 -12 -14 -1 -5 7 -9 8 -9 2 0 -19 12 -24 34 -12 20 10 20 10 6 -7 -14 -17
-13 -18 7 -13 12 3 22 3 21 -1 -2 -19 3 -31 12 -26 5 3 20 -5 32 -17 13 -13
27 -23 33 -23 6 0 10 -5 10 -12 0 -6 4 -15 9 -20 5 -4 6 -3 2 4 -4 8 1 11 13
10 11 0 17 -5 15 -9 -3 -4 0 -8 6 -8 6 0 8 -5 4 -13 -5 -8 -2 -8 9 2 11 9 17
10 17 2 0 -6 3 -10 8 -10 21 4 32 -2 26 -13 -6 -10 -5 -10 7 -1 11 9 18 8 31
-1 10 -7 15 -16 11 -19 -3 -4 -1 -7 6 -7 7 0 9 -4 6 -10 -3 -6 1 -7 10 -3 13
5 14 7 3 14 -9 6 -9 9 -1 9 18 0 44 -30 37 -42 -4 -7 -2 -8 4 -4 6 4 9 14 6
24 -5 14 -4 15 5 2 9 -12 11 -13 11 -1 0 8 3 12 6 9 3 -4 1 -15 -5 -25 -8 -15
-7 -20 4 -20 8 0 12 4 10 8 -3 4 2 10 11 13 22 8 24 8 24 -8 0 -15 27 -30 49
-27 8 1 10 -2 5 -10 -4 -8 -3 -10 5 -5 17 11 2 29 -18 21 -13 -5 -14 -4 -3 6
10 11 15 10 28 -3 13 -12 14 -20 5 -37 -7 -11 -10 -21 -9 -22 22 -6 67 -5 63
2 -4 5 -1 9 4 9 6 0 11 -4 11 -10 0 -6 26 -10 59 -10 43 0 62 5 72 17 10 11
10 14 2 9 -8 -4 -13 -2 -13 4 0 6 -5 8 -12 4 -10 -6 -10 -5 -1 8 7 8 9 19 5
23 -4 5 -1 5 6 1 7 -4 9 -12 6 -18 -4 -7 -2 -8 4 -4 13 8 5 36 -11 36 -6 0 -2
6 9 14 10 8 16 18 11 22 -4 4 -7 2 -7 -4 0 -7 -4 -12 -9 -12 -5 0 -7 9 -4 20
3 11 8 18 12 16 4 -3 7 13 6 34 0 21 -3 36 -7 33 -5 -2 -8 1 -8 7 0 6 -4 9 -8
6 -5 -3 -9 1 -9 9 0 10 4 12 12 5 9 -8 14 -6 19 5 3 9 2 14 -3 11 -5 -3 -12 1
-15 10 -3 8 -2 12 4 9 6 -3 10 1 10 9 0 9 -5 15 -12 14 -6 -2 -12 9 -13 24 -1
17 2 25 10 22 8 -4 11 4 9 23 -1 15 3 34 9 42 9 12 9 13 0 7 -15 -9 -17 5 -3
22 7 9 7 9 -2 2 -7 -6 -15 -10 -19 -10 -11 0 -4 30 8 38 12 8 13 43 1 36 -5
-3 -7 6 -4 21 4 23 2 25 -17 20 -19 -5 -20 -5 -4 5 9 6 17 16 17 21 0 6 -4 8
-8 5 -5 -3 -9 0 -9 7 0 7 -4 21 -7 32 -5 15 -4 15 5 -2 14 -26 26 -30 26 -8 0
8 -4 12 -9 9 -13 -8 -9 31 5 45 10 10 9 12 -3 9 -10 -2 -14 3 -12 14 3 16 -8
22 -30 19 -3 0 -5 7 -3 17 1 10 9 16 20 14 11 -2 14 1 10 8 -4 7 -18 9 -34 5
-26 -6 -26 -6 4 15 17 11 24 20 17 20 -7 0 -10 5 -6 12 4 6 3 8 -4 4 -6 -3
-13 -2 -17 3 -3 6 -13 8 -23 5 -14 -5 -14 -4 -3 4 13 9 13 13 1 27 -12 15 -12
19 3 30 16 11 16 13 2 19 -11 4 -14 2 -9 -7 5 -8 2 -7 -9 2 -18 15 -23 26 -7
16 6 -3 10 -2 10 4 0 5 -6 12 -12 14 -9 4 -8 6 2 7 10 0 6 6 -10 16 -14 8 -17
13 -8 10 10 -3 20 0 24 6 4 7 3 8 -4 4 -7 -4 -12 -2 -12 3 0 22 -2 26 -16 34
-8 5 -11 13 -8 19 5 7 2 9 -8 6 -8 -4 -21 -2 -29 3 -12 7 -12 9 1 10 8 1 18 1
23 0 4 0 7 4 7 10 0 6 -9 9 -20 6 -11 -3 -23 0 -27 5 -3 6 -1 8 4 5 6 -4 14 0
17 9 3 8 2 12 -4 9 -6 -3 -20 1 -32 9 -12 9 -18 16 -12 16 5 0 15 -5 21 -11 8
-8 13 -7 18 2 5 8 4 10 -3 5 -7 -4 -12 -2 -12 3 0 6 -9 11 -21 11 -11 0 -17 5
-14 10 4 6 10 8 14 6 4 -3 8 1 8 9 0 13 -4 13 -25 -1 l-25 -16 19 24 c17 23
61 38 48 16 -4 -7 -2 -8 5 -4 9 6 9 11 1 21 -8 10 -8 15 1 21 8 4 9 3 5 -4 -4
-7 -1 -12 9 -12 11 0 15 5 11 15 -3 8 -2 14 2 14 28 -4 44 3 38 17 -3 8 -2 12
4 9 6 -3 10 -2 10 3 0 6 7 13 16 16 10 4 13 2 7 -7 -11 -18 -13 -38 -2 -31 5
3 7 9 4 14 -3 5 0 12 6 15 5 4 8 13 6 19 -4 9 3 11 19 8 14 -2 24 -1 23 4 -4
21 2 35 11 29 6 -4 7 -12 3 -18 -4 -7 2 -5 13 3 29 22 30 24 12 17 -20 -7 -24
10 -7 33 10 13 10 13 6 -1 -3 -9 1 -16 9 -16 7 0 11 3 9 7 -2 3 4 14 13 23 29
27 41 45 35 51 -4 3 -15 -8 -25 -25 -11 -17 -22 -29 -25 -25 -3 3 2 15 11 25
10 11 15 24 12 29 -4 6 5 9 19 7 20 -2 23 0 14 12 -10 11 -8 12 6 7 13 -5 16
-4 11 4 -4 7 -1 12 8 12 19 0 21 16 4 26 -7 5 -8 3 -3 -6 5 -9 4 -11 -4 -6
-14 9 -3 29 13 23 7 -3 13 4 13 14 1 12 -3 17 -9 13 -7 -4 -8 -2 -4 4 10 17
35 3 30 -16 -5 -14 -4 -14 6 1 6 9 15 15 20 12 5 -3 11 -1 14 4 4 5 2 12 -3
15 -5 4 -12 2 -16 -4 -7 -11 -25 -4 -25 10 0 5 8 6 18 3 14 -6 15 -4 5 8 -10
13 -10 16 2 16 7 0 13 -5 12 -11 -1 -6 5 -10 14 -10 19 2 20 -27 2 -39 -17
-10 5 -60 23 -53 8 3 16 0 20 -6 4 -7 3 -8 -4 -4 -17 10 -15 -3 3 -20 8 -9 15
-12 15 -7 0 4 8 -4 18 -20 10 -15 22 -25 25 -22 4 3 5 2 2 -2 -6 -8 15 -34 24
-29 4 3 8 -4 8 -15 1 -16 -3 -14 -24 11 -13 16 -29 30 -34 30 -5 0 4 -13 21
-30 16 -16 30 -35 30 -41 0 -8 5 -7 17 2 11 10 14 10 9 2 -4 -7 -2 -13 3 -13
6 0 11 -6 11 -14 0 -8 9 -18 20 -21 18 -6 25 -17 21 -38 -1 -5 3 -6 8 -2 14 8
3 33 -20 46 -11 5 -19 14 -19 20 0 6 7 3 16 -5 8 -9 20 -14 25 -10 5 3 9 2 8
-3 -4 -22 3 -34 19 -31 9 2 16 -3 15 -9 -2 -7 2 -13 8 -13 5 0 8 -4 5 -9 -3
-5 1 -12 10 -15 25 -9 27 -7 13 11 -13 15 -12 15 8 2 16 -9 19 -16 10 -21 -8
-5 -5 -8 8 -9 11 -1 24 -1 28 0 5 1 6 -3 2 -9 -3 -5 -1 -10 4 -10 6 0 11 -5
11 -12 0 -7 -7 -5 -17 5 -17 14 -18 14 -20 -10 0 -16 2 -21 7 -14 5 10 9 8 13
-4 5 -11 3 -14 -5 -9 -8 5 -9 2 -4 -11 5 -14 4 -15 -6 -7 -9 7 -19 6 -33 -5
-20 -15 -20 -15 1 -9 14 4 21 2 21 -7 0 -7 -9 -13 -20 -13 -11 1 -21 -5 -23
-12 -1 -7 0 -8 3 -2 2 5 9 10 14 10 5 0 0 -14 -11 -32 -10 -17 -16 -36 -13
-41 3 -6 1 -7 -6 -3 -6 4 -8 12 -5 18 4 6 3 8 -3 5 -6 -4 -9 -17 -8 -29 1 -13
-4 -33 -12 -46 -9 -14 -10 -22 -3 -22 6 0 8 -5 4 -11 -4 -8 -9 -7 -15 2 -5 8
-2 23 7 37 14 22 14 22 -5 10 -11 -6 -18 -15 -15 -19 2 -4 -4 -13 -13 -19 -16
-11 -16 -11 2 -5 11 3 16 3 13 -1 -4 -4 -3 -15 2 -24 8 -15 6 -17 -9 -13 -25
6 -35 -12 -20 -39 11 -20 10 -21 -3 -11 -12 10 -15 10 -15 -2 0 -8 4 -15 8
-15 13 0 18 -29 7 -36 -6 -4 -8 -3 -4 4 3 6 2 13 -4 17 -5 3 -10 1 -10 -5 0
-6 -6 -8 -12 -4 -7 4 -5 -1 4 -12 13 -15 14 -22 5 -35 -7 -9 -17 -14 -24 -12
-7 3 -11 -4 -10 -16 1 -12 5 -21 10 -21 5 0 7 7 4 14 -4 10 -1 13 9 9 17 -6
18 -20 2 -26 -10 -3 -10 -7 -1 -19 10 -12 10 -15 -2 -15 -8 0 -12 4 -9 8 2 4
-1 11 -7 15 -7 4 -9 3 -5 -4 3 -6 -2 -18 -11 -28 -16 -16 -16 -17 -1 -12 9 4
19 1 22 -7 3 -9 0 -12 -10 -8 -10 4 -12 0 -8 -11 3 -9 11 -13 17 -9 6 3 7 1 3
-5 -4 -7 -15 -12 -24 -12 -11 0 -13 -3 -6 -8 6 -4 16 -16 22 -28 9 -16 8 -21
-3 -21 -8 0 -12 4 -9 8 2 4 1 10 -4 13 -14 8 -10 -27 4 -41 13 -13 8 -49 -10
-72 -9 -12 -7 -13 9 -8 19 7 19 6 3 -7 -20 -15 -25 -31 -6 -20 7 5 9 2 5 -8
-3 -9 -1 -20 5 -26 6 -6 6 -12 -3 -17 -8 -6 -10 -4 -4 5 5 8 4 11 -3 7 -5 -4
-9 -15 -7 -25 1 -9 -3 -23 -9 -31 -8 -11 -8 -13 1 -8 7 5 17 -1 23 -13 10 -19
10 -20 -8 -11 -14 7 -19 7 -19 -4 0 -8 3 -14 6 -13 19 2 22 -4 10 -19 -10 -11
-10 -14 -1 -9 18 11 14 -5 -5 -20 -15 -12 -15 -13 -2 -8 22 7 34 -25 13 -33
-13 -5 -13 -7 -2 -14 11 -7 11 -9 0 -9 -10 0 -9 -5 3 -17 16 -16 16 -17 -1
-30 -10 -7 -12 -13 -6 -13 7 0 12 -5 12 -11 0 -5 -4 -8 -9 -5 -5 4 -8 -2 -7
-11 3 -16 15 -18 103 -18 84 -1 100 1 95 14 -4 9 -1 12 7 7 10 -6 10 -4 0 12
-7 12 -17 18 -23 15 -5 -3 -6 -1 -3 5 4 5 17 8 29 4 13 -3 19 -1 15 6 -8 11
11 11 30 -1 6 -4 15 -2 19 4 5 8 3 9 -6 4 -8 -5 -11 -4 -6 3 4 6 13 9 22 5 12
-4 12 -8 2 -22 -12 -14 -11 -14 4 -2 10 7 16 17 13 21 -3 5 -1 11 5 15 6 4 7
11 4 17 -4 7 -2 8 4 4 6 -4 9 -12 6 -20 -3 -7 2 -13 10 -13 8 0 12 5 9 10 -4
6 4 8 19 5 15 -3 25 0 25 8 0 7 -7 10 -16 6 -9 -3 -13 -2 -9 2 11 13 71 19 63
7 -3 -6 -11 -9 -16 -6 -5 4 -9 1 -9 -4 0 -16 5 -14 47 15 37 25 59 44 36 30
-9 -5 -11 -2 -7 9 6 14 8 14 21 -2 8 -10 11 -12 7 -4 -5 11 -3 13 9 8 9 -3 19
-2 23 4 3 6 12 8 20 5 8 -3 11 0 7 10 -5 13 -9 12 -27 -3 l-21 -18 19 22 c13
15 23 20 30 14 7 -6 17 -6 26 1 13 8 12 9 -2 4 -11 -3 -15 -1 -12 8 2 6 18 11
34 10 17 -1 27 2 24 7 -3 5 0 9 5 9 6 0 10 5 9 11 -2 6 3 14 11 17 9 3 11 0 6
-8 -5 -9 -4 -11 4 -6 6 4 8 12 5 18 -5 7 -1 9 9 5 19 -7 32 8 16 19 -8 5 -9 3
-4 -6 5 -9 4 -11 -4 -6 -15 10 -4 27 13 20 7 -3 16 2 19 10 4 9 13 13 21 10 8
-3 17 0 21 5 3 6 11 9 16 5 5 -3 8 0 7 8 -2 7 5 12 15 12 14 -2 15 1 6 12 -9
11 -8 15 5 20 9 3 14 10 11 14 -3 5 -1 11 4 14 5 4 13 1 17 -5 5 -8 3 -9 -6
-4 -9 5 -11 4 -6 -4 6 -9 11 -9 22 0 16 13 19 23 4 14 -5 -3 -10 -1 -10 4 0 6
5 11 10 11 6 0 9 5 8 11 -2 6 7 12 19 14 13 1 26 5 30 10 5 4 1 6 -8 3 -9 -4
-16 -1 -16 6 0 8 10 11 26 9 20 -4 22 -2 12 5 -12 9 -12 13 -2 26 8 9 18 16
24 16 6 0 3 -6 -7 -13 -16 -12 -16 -14 -3 -14 19 0 31 24 17 32 -6 4 -10 12
-10 18 0 8 3 8 9 -2 7 -10 10 -10 16 -1 4 7 1 16 -6 22 -10 6 -7 7 10 3 16 -5
21 -4 17 4 -4 6 -3 11 3 11 6 0 15 10 21 23 11 21 10 21 -4 3 -9 -11 -16 -15
-16 -9 0 13 24 34 36 32 21 -3 26 2 14 16 -15 19 -5 35 20 30 11 -2 22 1 26 6
3 5 2 9 -3 8 -20 -3 -34 2 -28 11 3 5 11 7 18 4 7 -2 13 4 14 15 1 14 -3 18
-15 15 -15 -5 -15 -4 1 6 9 6 22 8 27 5 10 -6 13 3 13 38 0 10 5 16 12 14 6
-3 17 -2 24 3 10 5 9 9 -4 13 -10 5 -14 3 -9 -5 4 -7 3 -8 -5 -4 -8 6 -9 12
-2 20 6 7 7 17 3 21 -4 5 -1 5 6 1 7 -5 12 -1 12 9 0 11 5 15 16 11 9 -3 12
-2 9 5 -4 5 0 21 9 34 14 21 14 24 1 19 -11 -5 -13 -2 -9 10 3 9 12 16 19 16
16 0 14 22 -3 42 -9 12 -9 15 3 15 8 0 12 -3 10 -7 -2 -4 2 -7 10 -7 10 0 12
4 5 12 -6 7 -5 16 3 25 9 10 9 11 0 6 -9 -5 -13 0 -13 16 0 18 2 20 10 8 8
-13 10 -13 10 2 0 9 3 18 8 21 4 2 2 2 -5 1 -13 -3 -25 21 -16 30 4 3 11 1 18
-4 8 -7 12 -5 12 5 0 8 -3 15 -6 15 -4 0 -12 10 -20 23 l-14 22 23 -20 23 -20
-13 25 c-12 23 -12 24 4 11 14 -12 16 -12 10 3 -3 9 -10 16 -15 16 -5 0 -9 5
-9 11 0 6 7 8 17 5 10 -4 14 -4 10 0 -4 4 -2 13 4 21 6 7 8 13 5 13 -4 0 -2
10 4 23 11 21 10 21 -4 3 -9 -10 -13 -23 -9 -29 4 -6 1 -7 -7 -2 -9 6 -11 4
-5 -6 5 -8 4 -10 0 -6 -12 10 -15 38 -4 31 11 -6 12 48 2 62 -5 5 1 0 11 -11
19 -20 19 -20 11 0 -5 11 -8 30 -8 42 1 13 -3 21 -7 18 -5 -3 -11 -1 -14 4 -7
10 13 9 31 -2 8 -5 9 0 5 15 -4 16 -2 19 8 13 9 -5 11 -4 6 4 -6 9 -11 9 -21
1 -10 -8 -15 -8 -21 1 -4 7 -3 9 3 6 6 -4 14 0 17 9 3 8 11 12 17 8 8 -4 9 -3
5 4 -4 6 -14 8 -24 5 -15 -6 -15 -5 -3 10 7 9 17 14 22 11 5 -3 9 0 9 5 0 14
-6 14 -33 -1 -20 -10 -21 -9 -9 5 11 13 10 17 -5 26 -16 9 -16 10 4 8 12 0 19
-5 16 -11 -3 -5 -1 -6 5 -2 19 11 -5 49 -26 41 -15 -5 -15 -4 1 12 15 16 19
16 27 3 6 -9 10 -10 10 -3 0 6 -5 15 -10 18 -6 4 -7 12 -3 18 3 7 -4 3 -18 -8
-13 -11 -18 -13 -11 -5 15 18 16 34 0 24 -7 -4 -8 -3 -4 5 4 6 11 9 15 7 6 -4
8 75 1 82 -1 1 -3 12 -4 24 0 12 -8 23 -16 25 -13 4 -13 3 0 -6 13 -9 12 -11
-4 -11 -13 0 -16 5 -12 16 4 10 -1 26 -11 37 -10 11 -12 17 -5 13 18 -11 15 5
-4 19 -15 10 -15 12 -1 12 18 0 30 -23 21 -38 -3 -5 0 -9 6 -9 18 0 7 44 -15
57 -11 7 -14 12 -7 13 6 0 12 5 12 11 0 5 -4 7 -10 4 -15 -9 -12 38 3 54 6 8
7 11 1 8 -5 -3 -23 3 -40 14 -16 10 -23 19 -16 19 7 0 10 4 7 10 -3 5 -1 19 5
30 16 30 3 24 -15 -7 -9 -16 -13 -19 -10 -8 13 40 15 85 4 85 -7 0 -9 9 -6 23
6 21 6 21 -8 3 -15 -20 -20 -12 -15 23 1 12 -1 13 -13 2 -11 -9 -17 -9 -22 -1
-4 6 0 17 9 23 15 12 17 32 3 53 -4 7 0 17 8 24 10 9 15 9 15 1 0 -6 -5 -11
-12 -11 -17 0 -4 -10 19 -14 13 -3 19 2 21 17 1 18 -1 19 -9 7 -7 -10 -9 -11
-7 -2 2 8 7 13 12 12 5 -1 12 4 16 10 5 9 9 9 14 1 4 -6 2 -11 -3 -11 -6 0
-11 -5 -11 -11 0 -8 4 -8 14 1 8 6 13 17 10 24 -3 7 2 19 11 26 8 7 15 9 15 4
0 -5 5 -2 11 6 9 13 10 13 6 0 -2 -8 -9 -15 -14 -15 -6 0 -15 -3 -19 -8 -4 -4
0 -7 9 -7 9 0 19 5 22 10 4 6 10 8 15 5 5 -3 12 0 16 6 3 6 0 15 -7 20 -9 6
-10 9 -2 9 6 0 15 -5 18 -10 4 -6 11 -8 16 -4 5 3 7 10 4 15 -4 5 -1 9 4 9 6
0 11 -5 11 -12 0 -6 3 -8 6 -5 4 4 1 14 -7 23 -13 16 -12 16 8 6 27 -15 41 1
21 25 -10 13 -10 15 0 9 7 -4 20 -2 29 5 9 8 23 14 32 14 9 0 15 6 13 13 -1 8
2 11 9 6 9 -5 5 -13 -10 -26 -13 -10 -27 -16 -31 -13 -5 3 -11 1 -15 -5 -11
-18 21 -10 53 13 25 19 29 26 19 37 -9 10 -9 11 1 6 7 -4 12 -2 13 6 0 7 4 4
9 -7 5 -12 9 -14 9 -6 1 8 8 23 18 33 17 19 6 25 -15 8 -9 -7 -9 -7 -2 2 5 7
10 21 9 33 0 19 -1 19 -9 -2 -10 -23 -30 -32 -30 -12 0 5 6 7 13 3 9 -5 9 -4
0 6 -18 19 -48 23 -33 5 7 -8 7 -16 2 -19 -6 -3 -12 1 -16 9 -3 9 -12 12 -22
8 -13 -5 -15 -3 -9 7 5 9 4 11 -4 6 -6 -4 -9 -11 -6 -16 3 -5 1 -11 -5 -15 -5
-3 -10 2 -10 11 0 16 -1 16 -16 -2 -14 -18 -15 -18 -9 6 5 19 4 22 -4 10 -6
-8 -11 -12 -11 -7 0 4 -13 1 -30 -8 -33 -17 -40 -10 -12 12 15 12 14 12 -10 2
-21 -9 -31 -9 -42 0 -10 9 -16 9 -21 1 -4 -6 -14 -9 -22 -6 -8 3 -11 1 -8 -4
4 -6 17 -8 30 -6 14 3 27 1 29 -3 3 -4 -15 -7 -39 -7 -24 1 -42 3 -40 6 2 3
-4 12 -13 20 -14 13 -15 12 -9 -3 3 -9 2 -17 -3 -17 -6 0 -10 3 -10 8 0 4 -16
7 -35 6 -19 -1 -38 2 -41 7 -2 5 -13 3 -24 -3 -14 -9 -22 -9 -32 0 -11 9 -17
9 -26 0 -8 -8 -16 -8 -29 3 -16 13 -17 12 -4 -3 8 -11 22 -16 37 -14 13 3 26
1 29 -3 8 -13 -62 -6 -79 8 -12 10 -16 10 -16 2 0 -7 -5 -9 -10 -6 -6 4 -7 11
-4 17 4 7 2 8 -4 4 -6 -4 -9 -14 -6 -24 5 -16 5 -16 -9 1 -8 9 -20 17 -28 17
-11 0 -11 -2 1 -10 9 -6 10 -10 3 -10 -21 0 -24 18 -6 30 15 9 15 10 -6 4 -18
-5 -22 -3 -15 7 6 12 5 12 -8 1 -11 -9 -18 -10 -23 -2 -3 6 -11 8 -16 5 -5 -3
-7 0 -4 7 3 7 0 20 -5 28 -9 13 -11 13 -20 0 -6 -9 -10 -10 -10 -3 0 7 8 17
18 23 14 9 13 10 -7 4 -18 -4 -22 -3 -16 7 6 9 3 11 -8 6 -10 -4 -17 -2 -17 5
0 6 -6 5 -17 -3 -15 -13 -15 -12 -3 11 12 23 12 24 -3 11 -18 -15 -24 -2 -7
15 11 11 9 11 -37 16 -10 1 -23 8 -29 16 -6 9 -20 17 -30 18 -49 7 -59 12 -56
30 3 16 2 16 -14 3 -16 -13 -17 -12 -11 4 4 11 3 16 -3 12 -6 -3 -10 -1 -10 4
0 6 -6 10 -12 8 -7 -1 -12 3 -11 8 1 6 -8 12 -20 12 -12 1 -23 7 -25 13 -3 7
-10 4 -19 -7 -13 -16 -14 -16 -9 -1 3 12 1 15 -9 11 -8 -3 -13 -8 -10 -12 2
-4 -2 -8 -9 -8 -7 0 -13 6 -13 13 0 7 5 12 10 11 5 -1 12 5 14 13 4 13 3 13
-6 0 -6 -8 -11 -11 -11 -6 0 5 -7 3 -15 -4 -13 -11 -14 -10 -9 5 5 13 4 16 -4
11 -6 -4 -22 -1 -34 5 -22 12 -22 11 -8 -6 14 -17 14 -18 -7 -6 -18 9 -23 9
-23 0 0 -7 -3 -9 -6 -6 -4 4 -1 13 6 22 16 20 6 19 -14 -1 -14 -13 -16 -13
-16 -1 0 9 6 17 13 20 6 2 -6 3 -28 3 -22 -1 -46 -5 -54 -10 -9 -6 -12 -5 -7
2 5 8 -75 11 -293 10 -170 0 -298 -5 -295 -10z m88 -7 c-8 -8 -43 -8 -38 0 2
4 13 7 24 6 10 -1 17 -3 14 -6z m-240 -49 c3 -5 -1 -9 -9 -9 -8 0 -12 4 -9 9
3 4 7 8 9 8 2 0 6 -4 9 -8z m1042 -36 c2 -13 1 -13 -3 -1 -2 8 -13 15 -24 15
-10 0 -19 4 -19 10 0 17 45 -6 46 -24z m148 -86 c-6 -6 -10 -3 -10 10 0 13 4
16 10 10 7 -7 7 -13 0 -20z m-1411 2 c-10 -10 -20 -17 -22 -16 -6 5 20 34 30
34 5 0 1 -8 -8 -18z m1477 -17 c0 -2 -9 -3 -19 -2 -11 0 -18 5 -15 9 4 6 34 0
34 -7z m-2287 -148 c3 -8 -1 -14 -8 -14 -7 0 -11 6 -8 14 3 7 6 13 8 13 2 0 5
-6 8 -13z m112 3 c8 -14 -16 -23 -28 -11 -7 7 -14 7 -24 0 -9 -8 -13 -8 -13
-1 0 18 55 28 65 12z m396 -13 c-13 -13 -26 -3 -16 12 3 6 11 8 17 5 6 -4 6
-10 -1 -17z m65 11 c4 -7 3 -8 -5 -4 -6 4 -18 2 -26 -4 -9 -8 -15 -8 -15 -2 0
9 15 19 32 21 4 1 10 -4 14 -11z m2114 -3 c8 5 11 4 6 -3 -7 -11 -46 -13 -46
-2 0 14 14 20 21 9 4 -6 12 -8 19 -4z m-2535 -5 c-3 -5 -12 -10 -18 -10 -7 0
-6 4 3 10 19 12 23 12 15 0z m35 6 c0 -3 -4 -8 -10 -11 -5 -3 -10 -1 -10 4 0
6 5 11 10 11 6 0 10 -2 10 -4z m165 -6 c-3 -5 -12 -10 -18 -10 -7 0 -6 4 3 10
19 12 23 12 15 0z m110 -8 c-3 -3 -11 0 -18 7 -9 10 -8 11 6 5 10 -3 15 -9 12
-12z m-354 -127 c5 4 6 -1 3 -9 -9 -23 -20 -19 -21 7 0 12 1 16 4 9 3 -6 9
-10 14 -7z m736 -9 c-3 -7 0 -19 6 -26 9 -10 9 -11 0 -6 -6 3 -14 2 -17 -3 -4
-5 2 -8 11 -6 10 1 17 9 17 18 -1 15 20 17 33 2 4 -4 2 -5 -4 -1 -9 5 -11 2
-6 -10 6 -16 8 -15 16 4 10 22 34 25 30 3 -2 -6 2 -11 8 -11 5 0 7 -6 3 -12
-6 -9 -3 -9 9 0 9 8 27 15 41 16 19 2 23 -1 18 -13 -5 -14 -3 -14 10 -3 12 9
18 10 23 2 4 -6 14 -9 22 -6 8 3 11 2 8 -3 -3 -5 4 -16 15 -24 11 -7 18 -16
15 -19 -3 -3 5 -5 17 -4 30 3 48 -12 41 -31 -5 -12 -3 -14 8 -7 8 4 20 9 27
10 10 2 11 -1 1 -12 -6 -8 -10 -14 -8 -15 2 0 13 -2 24 -4 11 -2 21 -9 23 -15
2 -6 10 -17 19 -25 8 -8 11 -15 7 -15 -5 0 -18 12 -31 28 -12 15 -22 21 -23
15 0 -7 5 -13 10 -13 6 0 10 -4 10 -10 0 -5 8 -19 17 -30 13 -15 20 -17 31 -8
11 10 13 8 10 -8 -2 -12 2 -18 10 -16 8 1 11 -2 8 -6 -3 -5 3 -17 13 -26 15
-14 17 -24 11 -47 -5 -16 -5 -31 0 -34 5 -3 8 -11 6 -18 -1 -7 -1 -9 1 -4 9
15 21 6 16 -13 -3 -11 -10 -17 -16 -13 -6 3 -7 1 -3 -5 4 -6 14 -8 23 -5 10 4
14 2 10 -5 -4 -6 -2 -12 5 -15 7 -2 2 -3 -12 -2 -14 1 -19 0 -12 -2 9 -3 10
-8 3 -17 -8 -9 -7 -13 4 -13 8 0 12 4 9 9 -3 4 3 5 12 1 11 -4 13 -8 6 -11 -7
-2 -9 -9 -5 -15 4 -6 0 -8 -10 -4 -11 4 -14 2 -10 -8 3 -8 9 -13 13 -10 5 3
12 0 16 -6 4 -8 3 -9 -4 -5 -7 4 -12 2 -12 -4 0 -6 -6 -8 -12 -4 -8 4 -10 3
-5 -2 5 -5 13 -9 18 -9 5 0 8 -4 7 -10 -1 -5 -9 -8 -18 -7 -8 2 -12 1 -8 -4 4
-4 2 -14 -5 -23 -11 -14 -10 -14 6 -2 19 15 23 2 5 -18 -11 -11 -8 -12 12 -7
24 6 24 6 3 -5 -24 -13 -34 -49 -21 -73 7 -12 5 -16 -4 -14 -7 2 -12 -4 -10
-12 1 -10 -2 -9 -13 4 -20 27 -19 7 2 -24 9 -14 10 -19 3 -12 -8 6 -21 12 -29
12 -11 0 -11 -3 4 -13 17 -13 17 -14 -5 -20 -19 -5 -21 -8 -11 -21 11 -13 10
-15 -7 -11 -17 3 -20 -2 -18 -26 1 -17 -2 -32 -6 -35 -5 -3 -7 0 -6 7 2 6 -2
13 -9 16 -7 3 -10 -5 -9 -22 3 -22 1 -23 -12 -13 -10 8 -13 8 -9 2 4 -7 0 -17
-8 -24 -8 -7 -13 -16 -10 -20 3 -5 -5 -6 -17 -2 -21 5 -22 4 -8 -13 14 -17 14
-17 -6 -7 -18 9 -25 8 -40 -10 -11 -12 -14 -19 -9 -15 6 3 17 2 24 -3 9 -5 -4
-7 -32 -6 -40 2 -44 0 -36 -15 7 -14 5 -16 -11 -12 -11 3 -20 0 -20 -6 0 -6
-7 -8 -17 -4 -12 5 -14 3 -8 -7 5 -8 4 -11 -3 -6 -5 3 -13 0 -16 -6 -3 -7 -3
-2 0 12 l7 25 -21 -25 c-18 -22 -22 -23 -38 -10 -16 14 -17 13 -11 -3 6 -15 4
-16 -14 -7 -11 6 -16 16 -13 22 4 7 3 8 -5 4 -6 -4 -9 -12 -6 -17 6 -8 -8 -12
-47 -12 -10 0 -18 -4 -18 -8 0 -5 -4 -9 -8 -9 -5 0 -9 7 -9 15 0 8 4 12 9 9 4
-3 8 0 8 5 0 13 -13 14 -24 4 -12 -12 -87 -10 -82 2 2 6 -8 10 -23 9 -14 0
-28 2 -31 5 -12 14 -69 28 -78 19 -6 -6 -12 -6 -17 1 -3 6 -1 10 6 9 6 -2 12
7 14 20 1 20 0 21 -15 7 -18 -17 -32 -11 -23 11 3 8 10 11 16 7 6 -3 7 -1 3 6
-6 9 -11 9 -22 0 -11 -9 -14 -9 -14 0 0 7 -4 10 -9 7 -4 -3 -17 4 -27 16 -11
12 -13 18 -6 14 6 -4 12 -2 12 3 0 6 -8 11 -17 11 -10 0 -25 5 -33 11 -13 10
-13 10 1 6 9 -3 16 1 16 8 0 7 -6 11 -13 8 -6 -2 -15 1 -19 6 -3 6 -10 9 -14
7 -4 -3 -6 8 -5 25 1 16 -2 27 -6 24 -5 -3 -14 3 -20 14 -6 13 -7 22 0 26 11
7 -9 45 -24 45 -4 0 -4 -6 2 -13 8 -10 6 -13 -11 -14 -12 0 -16 1 -9 4 10 4
10 8 0 21 -10 12 -10 14 0 8 6 -4 12 -2 12 3 0 6 -3 11 -8 11 -4 0 -13 10 -21
23 -13 21 -13 21 5 5 19 -16 20 -16 20 2 0 10 -4 16 -8 14 -4 -3 -8 0 -8 6 0
6 -5 8 -12 4 -7 -4 -8 -3 -4 5 4 6 11 9 16 6 5 -3 12 0 16 6 5 8 3 9 -6 4 -10
-6 -12 -4 -7 9 6 14 3 17 -9 12 -14 -5 -15 -4 -4 9 10 12 10 15 -3 15 -24 0
-30 31 -7 37 11 3 20 10 20 15 0 5 -6 6 -12 2 -7 -4 -10 -4 -6 1 4 4 3 15 -2
25 -6 12 -5 17 5 17 7 0 11 -7 8 -16 -4 -14 -3 -14 5 -1 6 8 9 17 6 21 -2 4 2
10 8 13 7 3 2 3 -12 0 -14 -3 -20 -2 -14 3 6 4 10 16 8 26 -1 10 3 16 11 15 8
-2 14 2 14 7 1 6 -3 10 -8 10 -5 0 -13 4 -18 9 -5 5 -3 6 5 2 9 -6 12 -3 10 9
-2 10 3 20 10 22 6 3 12 0 12 -7 0 -6 -5 -8 -12 -4 -9 5 -9 2 1 -9 7 -9 14
-17 16 -17 6 0 1 37 -8 48 -7 9 -6 11 8 6 15 -6 16 -4 6 14 -10 18 -9 20 8 17
15 -3 19 1 16 16 -2 10 -6 23 -9 28 -3 5 2 8 12 7 12 -1 16 5 15 22 -2 15 1
21 9 16 6 -4 16 0 22 8 6 8 26 22 44 32 17 9 32 19 32 22 0 3 -4 3 -9 0 -5 -3
-11 1 -15 9 -6 18 -2 19 26 4 12 -6 18 -7 14 -1 -6 10 23 40 33 33 3 -2 11 6
17 18 6 12 15 25 19 29 5 4 5 0 0 -8 -5 -8 -5 -12 0 -8 4 4 13 4 19 -2 7 -5
17 -5 26 1 12 8 11 9 -4 7 -10 -2 -21 3 -24 11 -3 8 0 11 6 7 6 -3 16 2 22 11
8 13 10 13 7 3 -5 -16 13 -18 68 -7 11 2 23 -1 27 -7 5 -8 8 -7 8 2 0 7 5 10
10 7 6 -3 10 1 10 9 0 8 5 18 12 22 7 4 8 3 4 -4 -4 -7 -1 -12 8 -12 9 0 15 3
15 8 -3 15 1 32 7 32 3 0 4 -6 1 -14z m-65 -15 c8 12 9 12 6 0 -5 -18 -31 -22
-49 -9 -11 8 -10 9 4 4 10 -3 17 0 18 7 0 8 2 7 6 -2 5 -11 7 -11 15 0z m188
-6 c-7 -9 -15 -13 -19 -10 -3 3 1 10 9 15 21 14 24 12 10 -5z m1114 4 c-4 -8
1 -9 16 -4 14 4 20 3 17 -2 -7 -11 48 -12 59 -1 3 4 -6 5 -22 2 -20 -3 -25 -2
-15 5 7 5 21 7 30 6 9 -2 20 -4 24 -4 5 -1 5 -7 1 -13 -6 -10 -5 -10 7 -1 15
12 48 11 69 -2 6 -3 10 0 10 7 0 7 7 2 16 -10 13 -19 18 -21 32 -10 13 11 14
11 7 -1 -6 -11 -4 -13 9 -8 13 5 17 3 13 -7 -4 -10 2 -13 23 -12 25 2 27 0 17
-13 -10 -12 -9 -14 7 -8 14 5 17 3 13 -8 -4 -8 -1 -17 5 -21 6 -4 8 -3 5 3 -4
6 0 16 9 23 13 12 14 10 10 -15 -3 -15 -2 -25 1 -21 3 3 12 1 19 -5 8 -6 21
-9 29 -5 9 3 14 2 11 -3 -3 -5 1 -12 10 -15 9 -3 14 -12 11 -20 -3 -8 5 -24
18 -36 14 -13 22 -26 20 -30 -2 -3 6 -6 18 -6 23 1 24 -4 11 -39 -7 -18 -6
-18 9 -7 14 12 16 11 12 -7 -2 -12 -7 -26 -10 -31 -3 -6 1 -7 9 -4 9 3 14 9
12 13 -3 4 0 13 5 21 6 10 7 3 4 -23 -3 -31 -1 -38 10 -33 9 3 12 0 8 -10 -3
-8 1 -14 8 -14 11 0 11 -3 -1 -10 -13 -9 -12 -13 5 -26 20 -16 20 -16 -1 -10
-14 4 -21 2 -21 -8 0 -8 6 -12 14 -9 7 3 13 1 13 -5 0 -5 -7 -13 -15 -16 -12
-4 -13 -10 -6 -25 6 -10 7 -21 4 -25 -3 -3 -1 -6 5 -6 15 0 15 6 1 33 -7 12
-8 19 -4 15 5 -4 15 -2 24 5 14 10 14 10 5 -3 -6 -8 -11 -38 -10 -67 1 -28 -3
-49 -7 -46 -12 7 -4 -30 8 -39 6 -5 4 -8 -5 -8 -22 0 -39 -20 -33 -37 4 -11 8
-12 13 -2 5 7 7 2 7 -13 -2 -22 -5 -25 -21 -16 -12 7 -16 7 -12 0 3 -6 3 -12
-1 -15 -5 -2 -3 -3 4 -1 15 4 10 -23 -7 -39 -12 -10 -12 -9 -1 6 8 9 9 17 3
17 -15 0 -22 -26 -10 -38 7 -7 5 -10 -8 -7 -11 1 -18 8 -16 15 1 6 -2 9 -8 5
-6 -4 -5 -14 4 -28 12 -17 12 -25 3 -38 -7 -9 -16 -16 -22 -17 -5 0 -12 -10
-15 -22 -6 -24 -19 -28 -32 -8 -7 10 -8 9 -4 -4 3 -11 0 -18 -8 -18 -7 0 -13
-7 -13 -15 0 -8 5 -15 10 -15 6 0 8 -3 5 -6 -4 -3 -17 0 -30 7 -21 11 -22 11
-9 -4 12 -15 11 -17 -8 -17 -13 0 -21 -6 -21 -16 0 -13 -3 -14 -13 -5 -16 13
-28 5 -21 -14 3 -7 0 -16 -7 -21 -8 -4 -10 -3 -5 4 4 7 2 12 -3 12 -10 0 -15
-14 -12 -33 1 -5 -4 -5 -11 -1 -7 5 -21 9 -30 9 -14 1 -15 -1 -6 -12 9 -11 7
-12 -7 -7 -11 5 -16 3 -12 -2 8 -13 -66 -12 -75 1 -5 6 -8 5 -8 -3 0 -8 -5
-10 -12 -5 -16 10 -68 10 -61 1 2 -5 -3 -8 -11 -8 -9 0 -16 4 -16 9 0 5 -11 8
-24 7 -18 -1 -22 -4 -14 -13 16 -19 2 -16 -18 4 -13 13 -19 14 -22 5 -2 -6 -8
-12 -13 -12 -6 0 -8 4 -5 9 11 17 -24 20 -34 3 -11 -16 -11 -16 -6 1 3 9 1 17
-3 17 -5 0 -18 3 -28 6 -16 6 -16 5 2 -10 20 -17 20 -17 -3 -6 -20 10 -21 14
-10 28 7 9 8 13 2 9 -7 -4 -17 0 -24 8 -7 8 -18 15 -24 15 -6 0 -4 -6 5 -13 9
-7 16 -20 16 -30 0 -15 -12 -15 -12 1 -1 15 -39 51 -48 45 -6 -3 -7 -1 -3 5
10 16 -6 15 -24 0 -12 -11 -12 -10 -1 4 10 13 10 21 1 35 -8 13 -10 13 -7 2 3
-9 -1 -16 -8 -16 -7 0 -12 7 -11 16 1 9 -5 15 -13 13 -10 -2 -12 4 -8 20 6 23
6 23 -9 3 l-16 -20 2 20 c4 36 0 38 -22 19 -13 -10 -18 -12 -11 -5 10 12 8 18
-9 33 -12 10 -17 18 -12 18 6 0 15 -5 21 -11 7 -7 12 -6 16 4 3 9 -1 14 -11
13 -12 -1 -16 6 -15 24 1 14 -1 19 -3 13 -4 -10 -9 -9 -21 2 -8 8 -19 12 -25
9 -7 -4 -8 -2 -4 5 4 6 11 9 16 6 5 -3 12 0 16 6 4 8 3 9 -4 5 -7 -4 -12 -2
-12 5 0 9 -3 9 -14 0 -11 -9 -16 -9 -22 0 -4 7 -3 9 3 6 6 -4 13 4 16 19 3 16
-1 28 -10 31 -11 4 -10 8 4 19 15 11 15 13 2 8 -10 -3 -19 1 -23 11 -3 9 -2
14 2 11 4 -2 7 7 7 20 0 13 -5 24 -12 24 -6 0 -10 8 -9 18 2 9 -4 20 -13 25
-9 4 -3 5 14 2 25 -4 28 -3 15 7 -8 7 -16 19 -18 27 -3 12 0 12 13 1 13 -11
14 -10 9 5 -6 14 -4 16 7 10 12 -8 12 -6 0 8 -7 9 -10 17 -6 17 4 0 2 7 -5 15
-10 13 -11 18 -1 28 10 9 11 8 6 -8 -6 -20 -6 -20 6 -1 9 15 9 21 1 24 -8 2
-8 7 1 17 7 7 16 11 21 8 4 -3 0 7 -10 23 -13 19 -14 25 -5 19 11 -6 13 -4 8
8 -3 9 -1 19 5 23 6 4 8 3 4 -4 -3 -6 -2 -13 3 -16 21 -13 20 14 -1 30 -18 12
-19 15 -4 10 14 -5 17 -2 12 9 -3 9 -2 13 4 10 10 -6 13 5 11 35 0 10 1 11 5
3 3 -7 13 -13 22 -13 15 0 15 2 2 10 -13 8 -12 10 3 10 9 0 17 4 17 10 0 5 -8
7 -17 4 -15 -5 -15 -4 -3 4 10 8 18 8 27 0 8 -6 16 -8 20 -4 3 3 2 6 -4 6 -16
0 -11 32 9 52 10 10 18 14 18 9 0 -5 7 -11 15 -15 13 -5 14 -2 4 17 -11 19
-10 20 3 9 13 -10 17 -10 22 3 4 11 2 14 -7 9 -9 -5 -8 -3 1 7 11 11 14 12 21
1 7 -11 9 -11 14 2 3 8 1 17 -6 19 -7 3 5 4 26 3 29 -2 41 2 48 17 9 16 8 17
-10 8 -11 -6 -23 -11 -28 -11 -4 1 3 7 17 15 16 8 29 10 36 4 16 -13 44 0 44
20 1 14 2 14 11 -1 5 -10 15 -18 22 -18 7 0 6 4 -3 10 -13 9 -13 10 0 10 13 0
13 1 0 11 -12 8 -10 9 7 4 12 -3 24 -1 28 5 3 5 8 10 11 10 3 0 2 -5 -2 -11z
m-89 -28 c-8 -14 -25 -14 -25 0 0 5 5 7 10 4 6 -3 10 -1 10 6 0 7 3 10 6 6 3
-3 3 -10 -1 -16z m-1765 -37 c0 -3 -7 -1 -15 6 -8 7 -15 17 -15 22 0 5 7 3 15
-6 8 -8 15 -18 15 -22z m2160 26 c0 -5 -5 -10 -11 -10 -5 0 -7 5 -4 10 3 6 8
10 11 10 2 0 4 -4 4 -10z m-1280 -4 c0 -3 -4 -8 -10 -11 -5 -3 -10 -1 -10 4 0
6 5 11 10 11 6 0 10 -2 10 -4z m-519 -30 c-1 -3 -3 -5 -5 -3 -2 1 -14 -7 -27
-18 l-24 -20 24 28 c22 24 34 29 32 13z m1883 -32 c3 -8 2 -12 -4 -9 -6 3 -10
10 -10 16 0 14 7 11 14 -7z m273 -26 c2 -18 0 -20 -7 -8 -7 11 -10 11 -10 2 0
-7 -5 -10 -11 -7 -6 5 -4 12 8 21 10 7 18 14 18 14 1 0 2 -10 2 -22z m-2440
-10 c-3 -8 -6 -5 -6 6 -1 11 2 17 5 13 3 -3 4 -12 1 -19z m2259 -53 c14 -14
21 -25 16 -25 -5 0 -19 11 -32 25 -13 14 -20 25 -16 25 4 0 18 -11 32 -25z
m230 -58 c1 -9 -1 -19 -6 -22 -5 -3 -7 3 -6 12 2 10 -2 22 -8 26 -7 6 -6 7 3
5 8 -2 15 -12 17 -21z m-1146 -212 c0 -2 -9 -3 -19 -2 -11 0 -18 5 -15 9 4 6
34 0 34 -7z m1257 -175 c0 -17 -3 -30 -7 -30 -4 0 -6 10 -6 23 1 12 -2 28 -7
35 -7 9 -6 11 5 7 8 -3 15 -19 15 -35z m-2767 -21 c-14 -25 -17 -24 -14 4 3
30 3 29 14 22 7 -4 7 -13 0 -26z m2530 27 c0 -2 -7 -7 -16 -10 -8 -3 -12 -2
-9 4 6 10 25 14 25 6z m-960 -147 c0 -5 -4 -9 -8 -9 -5 0 -9 7 -9 15 0 8 4 12
9 9 4 -3 8 -9 8 -15z m-395 1 c3 -6 -1 -7 -9 -4 -18 7 -21 14 -7 14 6 0 13 -4
16 -10z m-895 -14 c0 -3 -4 -8 -10 -11 -5 -3 -10 -1 -10 4 0 6 5 11 10 11 6 0
10 -2 10 -4z m1148 -24 c2 -7 -1 -12 -8 -12 -6 0 -9 4 -6 9 4 5 1 12 -4 14 -6
3 -5 4 2 3 6 -1 14 -8 16 -14z m-278 4 c0 -3 -4 -8 -10 -11 -5 -3 -10 -1 -10
4 0 6 5 11 10 11 6 0 10 -2 10 -4z m-136 -124 c3 -5 -1 -9 -9 -9 -8 0 -12 4
-9 9 3 4 7 8 9 8 2 0 6 -4 9 -8z m-89 -72 c3 -5 1 -10 -4 -10 -6 0 -11 5 -11
10 0 6 2 10 4 10 3 0 8 -4 11 -10z m1125 -24 c0 -3 -4 -8 -10 -11 -5 -3 -10
-1 -10 4 0 6 5 11 10 11 6 0 10 -2 10 -4z m-979 -288 c11 -21 11 -22 -4 -9
-10 7 -17 17 -17 22 0 15 9 10 21 -13z m1649 16 c0 -8 -19 -13 -24 -6 -3 5 1
9 9 9 8 0 15 -2 15 -3z m-30 -73 c0 -6 -4 -12 -8 -15 -5 -3 -9 1 -9 9 0 8 4
15 9 15 4 0 8 -4 8 -9z m-1083 -78 c-4 -3 -1 -13 6 -22 11 -14 10 -14 -5 -2
-21 15 -23 31 -6 31 6 0 8 -3 5 -7z m-452 -63 c3 -5 1 -10 -4 -10 -6 0 -11 5
-11 10 0 6 2 10 4 10 3 0 8 -4 11 -10z m26 -133 c-8 -8 -14 -7 -23 2 -11 10
-9 11 6 5 15 -6 17 -4 11 6 -6 9 -4 11 4 5 9 -5 10 -10 2 -18z m22 -158 c5 -3
2 -9 -5 -12 -9 -3 -14 3 -15 15 -1 11 1 16 5 12 4 -5 11 -12 15 -15z m2 -78
c3 -5 2 -12 -3 -15 -5 -3 -9 1 -9 9 0 17 3 19 12 6z m1076 -54 c-13 -12 -20
-15 -15 -7 12 22 28 39 33 34 3 -3 -6 -15 -18 -27z m-750 -70 c-10 -9 -11 -8
-5 6 3 10 9 15 12 12 3 -3 0 -11 -7 -18z m602 -38 c-8 -8 -13 -7 -18 2 -5 8
-4 10 3 5 7 -4 12 -2 12 5 0 7 3 9 7 6 4 -4 2 -12 -4 -18z m-1473 -9 c12 -7
10 -9 -8 -7 -12 0 -22 5 -22 9 0 11 12 10 30 -2z m556 -67 c-2 -9 -8 -19 -14
-21 -15 -5 -16 14 -2 23 6 4 8 11 4 16 -3 5 -10 6 -16 3 -7 -4 -8 -2 -4 5 11
16 35 -4 32 -26z m734 -13 c0 -5 -5 -10 -11 -10 -5 0 -7 5 -4 10 3 6 8 10 11
10 2 0 4 -4 4 -10z m-876 -120 c-6 -6 -20 -12 -32 -15 -19 -3 -21 -1 -11 16 9
17 13 18 27 7 14 -11 15 -10 8 7 -6 16 -5 18 5 8 9 -9 10 -16 3 -23z m573 15
c0 -8 -4 -12 -9 -9 -5 3 -6 10 -3 15 9 13 12 11 12 -6z m56 -9 c7 4 4 -2 -6
-12 -15 -16 -19 -17 -26 -5 -5 8 -7 21 -4 29 5 12 7 12 15 -2 5 -9 15 -13 21
-10z m-573 -7 c0 -5 -4 -9 -8 -9 -5 0 -9 7 -9 15 0 8 4 12 9 9 4 -3 8 -9 8
-15z m77 -15 c-3 -3 -12 -4 -19 -1 -8 3 -5 6 6 6 11 1 17 -2 13 -5z"/>
<path d="M1054 2539 c-3 -6 -2 -15 3 -20 5 -5 9 -1 9 11 0 23 -2 24 -12 9z"/>
<path d="M1116 2522 c-3 -5 1 -9 9 -9 8 0 12 4 9 9 -3 4 -7 8 -9 8 -2 0 -6 -4
-9 -8z"/>
<path d="M1170 2511 c0 -6 4 -13 10 -16 6 -3 7 1 4 9 -7 18 -14 21 -14 7z"/>
<path d="M593 2325 c0 -8 4 -12 9 -9 5 3 6 10 3 15 -9 13 -12 11 -12 -6z"/>
<path d="M1422 2286 c10 -7 14 -17 10 -21 -4 -5 -2 -5 5 -1 6 3 14 2 18 -4 3
-5 1 -10 -6 -10 -7 0 -10 -3 -6 -6 3 -3 11 -3 17 1 13 8 -26 55 -44 55 -6 0
-3 -7 6 -14z"/>
<path d="M986 2230 c4 -14 3 -22 -1 -18 -4 4 -16 3 -26 -2 -12 -7 -19 -6 -22
3 -4 7 -6 6 -6 -4 -1 -9 -8 -20 -17 -23 -14 -5 -15 -4 -5 8 8 10 9 16 1 21 -5
3 -11 4 -11 1 -1 -3 -3 -10 -4 -16 -1 -5 -3 -15 -4 -21 -1 -8 -6 -8 -16 1 -13
11 -14 10 -9 -4 3 -9 10 -16 16 -16 5 0 6 -5 3 -11 -5 -6 -11 -4 -19 7 -11 14
-14 15 -22 3 -13 -21 -14 -39 -1 -39 11 -1 -20 -23 -35 -26 -5 -1 -10 -2 -12
-3 -3 0 1 -13 9 -27 16 -31 10 -54 -14 -55 -12 0 -11 -2 4 -8 11 -5 25 -6 30
-3 6 3 5 -1 -1 -9 -16 -21 -24 -58 -13 -65 5 -3 6 -10 3 -16 -4 -7 -2 -8 4 -4
8 5 12 -1 13 -16 0 -22 1 -22 9 -3 l9 20 1 -20 c2 -11 2 -24 1 -28 -1 -5 7 -6
18 -2 11 3 23 0 27 -6 4 -7 3 -9 -2 -6 -6 3 -16 2 -24 -4 -11 -6 -5 -8 18 -5
27 3 35 -1 42 -18 5 -13 9 -15 10 -6 0 13 2 13 9 0 6 -8 8 -17 5 -21 -2 -4 0
-10 5 -13 4 -3 8 2 7 12 0 9 3 17 9 17 5 0 9 -5 7 -10 -3 -14 43 -11 61 4 12
9 17 9 23 0 4 -7 3 -9 -2 -6 -6 3 -11 -4 -11 -15 -2 -21 -2 -21 13 1 8 11 12
25 9 31 -3 6 1 7 9 4 9 -3 13 -11 10 -18 -3 -6 1 -3 9 6 8 10 18 14 22 10 5
-4 5 -2 1 5 -4 7 -14 10 -24 7 -14 -5 -14 -4 -3 4 8 6 22 7 30 3 9 -5 25 -5
36 0 18 7 18 8 2 8 -10 1 -15 6 -12 11 4 6 10 8 15 5 5 -3 11 -1 15 5 4 6 11
8 16 4 5 -3 9 -2 8 3 -1 4 -1 10 1 13 9 25 8 50 -2 44 -7 -4 -8 -3 -4 5 6 9
11 9 21 1 10 -8 15 -8 21 1 4 7 3 9 -3 6 -6 -4 -9 15 -8 53 0 32 -3 56 -8 53
-4 -3 -6 -12 -3 -20 4 -8 1 -11 -5 -7 -6 3 -9 14 -6 23 2 11 -1 18 -10 18 -8
0 -12 -6 -9 -13 3 -8 -5 -11 -23 -10 -24 2 -27 -2 -25 -21 1 -13 -2 -21 -7
-17 -5 3 -7 9 -4 14 3 5 0 12 -6 16 -8 5 -9 3 -4 -6 6 -10 4 -11 -11 -5 -10 4
-29 8 -42 8 -18 -1 -20 2 -11 13 8 10 7 12 -10 9 -12 -2 -22 0 -22 6 -1 5 -2
15 -3 22 -1 6 -7 11 -14 10 -16 -4 -15 2 4 21 8 9 11 16 5 16 -6 0 -11 5 -11
11 0 5 5 7 10 4 6 -3 10 -3 11 2 0 4 2 18 3 30 1 12 -1 20 -6 17 -5 -3 -8 -2
-7 3 4 20 -2 24 -18 12 -15 -11 -16 -11 -5 1 14 16 17 44 3 36 -5 -4 -12 0
-15 6 -3 7 -3 2 0 -12z m35 -67 c13 -16 12 -17 -3 -4 -10 7 -18 15 -18 17 0 8
8 3 21 -13z m-164 -18 c0 -8 -4 -12 -9 -9 -5 3 -6 10 -3 15 9 13 12 11 12 -6z
m-32 -73 c-3 -3 -11 0 -18 7 -9 10 -8 11 6 5 10 -3 15 -9 12 -12z m265 -62 c0
-5 -5 -10 -11 -10 -5 0 -7 5 -4 10 3 6 8 10 11 10 2 0 4 -4 4 -10z m137 -45
c0 -8 -4 -12 -9 -9 -5 3 -6 10 -3 15 9 13 12 11 12 -6z m-397 -35 c0 -5 -2
-10 -4 -10 -3 0 -8 5 -11 10 -3 6 -1 10 4 10 6 0 11 -4 11 -10z m364 -51 c-9
-11 -20 -17 -23 -14 -3 4 1 10 9 15 8 6 11 10 7 10 -5 0 -5 5 -2 10 4 6 11 8
16 4 6 -4 3 -14 -7 -25z m-50 -35 c3 -8 2 -12 -4 -9 -6 3 -10 10 -10 16 0 14
7 11 14 -7z m-123 -41 c13 -16 12 -17 -3 -4 -10 7 -18 15 -18 17 0 8 8 3 21
-13z"/>
<path d="M955 2230 c-3 -5 -1 -10 4 -10 6 0 11 5 11 10 0 6 -2 10 -4 10 -3 0
-8 -4 -11 -10z"/>
<path d="M1025 2221 c3 -22 22 -25 27 -4 3 13 0 19 -12 19 -10 0 -17 -7 -15
-15z"/>
<path d="M1020 2096 c0 -2 7 -7 16 -10 8 -3 12 -2 9 4 -6 10 -25 14 -25 6z"/>
<path d="M465 2020 c3 -5 10 -10 16 -10 5 0 9 5 9 10 0 6 -7 10 -16 10 -8 0
-12 -4 -9 -10z"/>
<path d="M1465 1890 c6 -30 16 -40 12 -12 -2 12 -6 24 -10 28 -3 4 -4 -4 -2
-16z"/>
<path d="M900 1820 c-8 -5 -12 -12 -9 -15 4 -3 12 1 19 10 14 17 11 19 -10 5z"/>
<path d="M1322 1664 c-7 -8 -8 -14 -3 -14 10 0 25 19 20 25 -2 1 -10 -3 -17
-11z"/>
<path d="M655 1650 c3 -5 8 -10 11 -10 2 0 4 5 4 10 0 6 -5 10 -11 10 -5 0 -7
-4 -4 -10z"/>
<path d="M760 1580 c8 -5 20 -10 25 -10 6 0 3 5 -5 10 -8 5 -19 10 -25 10 -5
0 -3 -5 5 -10z"/>
<path d="M1099 1543 c-13 -16 -12 -17 4 -4 9 7 17 15 17 17 0 8 -8 3 -21 -13z"/>
<path d="M2206 2532 c-3 -5 1 -9 9 -9 8 0 12 4 9 9 -3 4 -7 8 -9 8 -2 0 -6 -4
-9 -8z"/>
<path d="M2352 2535 c3 -3 16 -8 28 -10 12 -2 20 -1 16 2 -4 4 -16 8 -28 10
-12 2 -19 1 -16 -2z"/>
<path d="M2415 2520 c-3 -5 -1 -10 4 -10 6 0 11 5 11 10 0 6 -2 10 -4 10 -3 0
-8 -4 -11 -10z"/>
<path d="M1930 2395 c-9 -10 -9 -15 -1 -15 6 0 11 5 11 11 0 5 5 7 12 3 7 -4
8 -3 4 4 -9 15 -11 15 -26 -3z"/>
<path d="M2720 2300 c-9 -6 -10 -10 -3 -10 6 0 15 5 18 10 8 12 4 12 -15 0z"/>
<path d="M1850 2269 c0 -5 5 -7 10 -4 6 3 10 8 10 11 0 2 -4 4 -10 4 -5 0 -10
-5 -10 -11z"/>
<path d="M2290 2255 c0 -5 5 -17 10 -25 5 -8 10 -10 10 -5 0 6 -5 17 -10 25
-5 8 -10 11 -10 5z"/>
<path d="M2194 2239 c-10 -17 9 -30 26 -18 12 9 12 10 -4 5 -13 -5 -17 -2 -12
9 6 17 0 20 -10 4z"/>
<path d="M2241 2227 c-6 -8 -9 -16 -6 -19 3 -2 -5 -4 -18 -3 -12 1 -28 -5 -35
-14 -11 -15 -12 -14 -10 1 2 9 -1 17 -7 17 -5 1 -10 -5 -10 -11 0 -7 -6 -17
-13 -21 -7 -5 -10 -12 -7 -17 3 -4 -3 -6 -14 -3 -22 6 -37 -12 -20 -23 8 -5 9
-3 4 6 -5 9 -4 11 4 6 6 -4 9 -12 5 -17 -3 -5 -10 -6 -16 -3 -7 5 -9 0 -6 -14
7 -24 -7 -39 -18 -21 -5 8 -3 9 6 4 9 -5 11 -4 6 3 -5 9 -14 7 -32 -4 -29 -20
-32 -29 -4 -14 14 7 20 7 20 0 0 -5 -5 -10 -10 -10 -7 0 -7 -6 0 -20 6 -11 8
-20 4 -20 -3 0 0 -8 7 -17 12 -14 10 -14 -14 2 l-29 18 21 -37 c22 -38 28 -62
10 -36 -8 11 -9 9 -3 -10 9 -35 27 -63 19 -30 -5 19 -4 22 4 10 6 -8 11 -23
11 -32 0 -10 5 -18 11 -18 8 0 7 -5 -1 -15 -11 -13 -10 -14 5 -9 13 5 16 4 11
-5 -5 -7 -2 -10 6 -9 7 2 12 -3 10 -11 -3 -12 0 -12 12 -1 13 10 16 10 16 0 0
-10 3 -10 15 0 15 13 21 1 7 -16 -4 -5 -6 -8 -3 -7 2 1 13 -3 25 -9 19 -10 20
-10 7 6 -8 9 -11 19 -7 23 3 3 6 1 6 -6 0 -7 5 -9 10 -6 6 4 10 3 9 -2 -4 -21
2 -33 16 -33 8 0 15 5 15 11 0 5 -5 7 -12 3 -7 -5 -8 -3 -3 5 5 9 10 10 18 2
17 -17 27 -13 21 7 -5 14 -4 15 5 2 10 -13 12 -13 22 0 9 13 10 13 6 0 -2 -8
-13 -20 -25 -26 -30 -15 -41 -27 -17 -18 11 4 28 14 39 23 10 9 20 15 22 14
12 -8 24 -1 18 9 -5 8 -2 9 10 5 11 -5 15 -3 10 5 -5 8 -2 9 10 5 12 -5 20 1
28 18 14 30 28 33 23 5 -2 -12 0 -18 6 -14 6 3 8 8 5 11 -3 3 1 18 9 34 17 33
19 43 5 34 -5 -3 -7 0 -4 9 3 8 11 13 18 10 19 -7 15 34 -4 47 -11 8 -8 9 13
5 26 -6 37 6 17 19 -8 5 -7 12 2 23 7 10 8 14 4 10 -5 -4 -15 -3 -23 4 -7 6
-16 8 -20 4 -3 -3 -1 -6 6 -6 7 0 9 -5 6 -10 -5 -7 -11 -8 -19 -1 -13 11 -41
9 -53 -4 -4 -4 -2 -5 6 0 9 5 12 4 7 -3 -5 -8 -15 -8 -32 -2 -36 14 -43 12
-14 -5 29 -17 19 -20 -12 -4 -15 8 -22 8 -28 -1 -6 -9 -10 -6 -15 9 -3 12 -11
18 -17 15 -7 -4 -8 -2 -4 5 4 6 11 9 16 6 5 -3 11 -1 14 4 4 5 -5 8 -19 7 -13
-2 -22 0 -20 5 3 4 -1 10 -7 13 -7 3 -2 4 12 1 25 -5 25 -5 3 6 -13 7 -23 16
-23 21 0 5 5 6 10 3 6 -3 10 -1 10 4 0 6 -4 11 -8 11 -4 0 -8 9 -9 20 -1 11 3
20 8 20 6 0 8 -4 4 -9 -3 -5 0 -13 6 -17 8 -4 9 -3 5 4 -4 7 -1 12 6 12 8 0 7
4 -4 11 -22 12 -13 40 10 31 9 -3 4 6 -12 21 -33 31 -39 32 -55 14z m38 -11
c10 -12 8 -17 -11 -26 -22 -11 -22 -10 -4 4 18 15 15 21 -7 17 -5 -1 -6 3 -2
9 8 13 10 13 24 -4z m208 -193 c-4 -3 -1 -13 5 -22 10 -13 10 -14 -1 -4 -7 6
-21 9 -30 6 -11 -4 -10 -1 4 10 20 16 34 23 22 10z m-37 -135 c0 -4 -4 -8 -9
-8 -6 0 -12 4 -15 8 -3 5 1 9 9 9 8 0 15 -4 15 -9z"/>
<path d="M2126 2183 c-6 -14 -5 -15 5 -6 7 7 10 15 7 18 -3 3 -9 -2 -12 -12z"/>
<path d="M2770 2169 c0 -5 5 -7 10 -4 6 3 10 8 10 11 0 2 -4 4 -10 4 -5 0 -10
-5 -10 -11z"/>
<path d="M2329 2033 c-13 -16 -12 -17 4 -4 9 7 17 15 17 17 0 8 -8 3 -21 -13z"/>
<path d="M1787 1999 c7 -7 15 -10 18 -7 3 3 -2 9 -12 12 -14 6 -15 5 -6 -5z"/>
<path d="M2795 1999 c-4 -6 -5 -12 -2 -15 2 -3 7 2 10 11 7 17 1 20 -8 4z"/>
<path d="M2783 1955 c0 -8 4 -12 9 -9 5 3 6 10 3 15 -9 13 -12 11 -12 -6z"/>
<path d="M2700 1750 c-8 -5 -10 -10 -5 -10 6 0 17 5 25 10 8 5 11 10 5 10 -5
0 -17 -5 -25 -10z"/>
<path d="M2423 1545 c0 -7 6 -11 14 -8 7 3 13 6 13 8 0 2 -6 5 -13 8 -8 3 -14
-1 -14 -8z"/>
<path d="M1285 3050 c-3 -6 1 -7 9 -4 18 7 21 14 7 14 -6 0 -13 -4 -16 -10z"/>
<path d="M1246 3042 c-3 -5 1 -9 9 -9 8 0 12 4 9 9 -3 4 -7 8 -9 8 -2 0 -6 -4
-9 -8z"/>
<path d="M2296 2942 c-3 -5 1 -9 9 -9 8 0 12 4 9 9 -3 4 -7 8 -9 8 -2 0 -6 -4
-9 -8z"/>
<path d="M2333 2935 c0 -8 4 -12 9 -9 5 3 6 10 3 15 -9 13 -12 11 -12 -6z"/>
<path d="M2550 2771 c0 -6 4 -12 8 -15 5 -3 9 1 9 9 0 8 -4 15 -9 15 -4 0 -8
-4 -8 -9z"/>
<path d="M395 2739 c-4 -6 -5 -12 -2 -15 2 -3 7 2 10 11 7 17 1 20 -8 4z"/>
<path d="M3270 2722 c0 -4 5 -13 12 -20 9 -9 8 -15 -7 -25 -14 -11 -15 -16 -5
-22 8 -5 11 -4 6 3 -8 13 29 26 46 16 7 -4 4 3 -6 15 -20 22 -20 22 0 16 12
-4 10 -1 -6 9 -28 17 -40 20 -40 8z"/>
<path d="M44 2682 c3 -5 0 -13 -6 -15 -9 -4 -10 -6 -1 -6 17 -1 25 16 12 25
-7 4 -9 3 -5 -4z"/>
<path d="M166 2597 c3 -10 9 -15 12 -12 3 3 0 11 -7 18 -10 9 -11 8 -5 -6z"/>
<path d="M190 2581 c0 -6 4 -13 10 -16 6 -3 7 1 4 9 -7 18 -14 21 -14 7z"/>
<path d="M2967 2215 c-6 -15 10 -32 20 -21 4 3 1 6 -5 6 -6 0 -9 7 -6 15 4 8
4 15 1 15 -3 0 -7 -7 -10 -15z"/>
<path d="M1637 1616 c-9 -24 -9 -28 3 -21 6 3 10 1 10 -4 0 -14 -13 -14 -28 1
-7 7 -12 8 -12 2 0 -5 5 -15 12 -22 16 -16 -4 -16 -21 1 -8 7 -11 7 -8 1 4 -7
0 -17 -8 -24 -8 -7 -15 -17 -15 -23 0 -6 6 -3 13 8 11 14 16 15 22 5 6 -9 4
-11 -5 -5 -10 6 -12 4 -7 -8 3 -9 3 -16 -1 -16 -20 3 -31 -3 -37 -22 -6 -17
-9 -18 -23 -7 -15 12 -15 11 0 -13 16 -26 16 -27 -2 -22 -12 3 -20 0 -20 -7 0
-9 -4 -9 -17 1 -13 11 -15 11 -9 1 5 -9 1 -15 -13 -19 -20 -5 -20 -6 -4 -19
17 -12 17 -13 -3 -8 -14 4 -21 1 -21 -10 0 -8 4 -13 9 -10 10 6 6 -26 -7 -46
-8 -13 -7 -13 8 -1 9 7 15 17 12 20 -2 4 3 8 11 8 10 0 11 -4 4 -11 -13 -13
-13 -39 0 -31 6 3 10 1 10 -5 0 -6 5 -8 11 -4 7 4 7 -1 -1 -16 -11 -20 -10
-22 5 -16 15 5 16 4 5 -9 -11 -13 -10 -14 4 -9 12 5 15 2 10 -10 -4 -11 -2
-16 6 -14 7 2 14 -5 15 -14 4 -21 -6 -23 -24 -5 -7 6 -4 -4 8 -23 15 -26 17
-36 8 -43 -7 -5 -3 -6 11 -2 18 5 22 2 22 -15 0 -13 -4 -19 -12 -14 -7 4 -8 3
-4 -5 6 -9 12 -9 24 1 10 7 14 8 10 4 -4 -5 0 -14 9 -21 13 -9 13 -14 3 -20
-8 -5 -11 -4 -7 2 3 5 -1 10 -10 10 -12 0 -9 -6 9 -21 21 -17 24 -25 17 -46
-9 -24 -8 -24 6 -6 14 19 21 11 16 -17 -1 -5 3 -6 9 -2 6 3 7 11 4 17 -5 7 0
9 15 5 19 -5 20 -3 9 10 -12 15 -10 15 12 3 l24 -13 -17 26 c-9 15 -13 28 -7
32 5 3 7 13 4 23 -5 14 -4 14 4 2 7 -9 7 -18 1 -26 -6 -8 -5 -14 5 -17 10 -4
13 -1 10 7 -3 8 0 17 6 21 8 5 8 11 -1 21 -11 14 -2 19 24 15 5 -1 6 2 4 6 -3
5 3 26 14 47 15 31 16 43 7 60 -10 19 -10 20 6 7 9 -8 19 -11 23 -7 3 3 2 6
-4 6 -6 0 -13 7 -17 15 -5 13 -2 14 17 4 21 -12 21 -11 7 6 -13 17 -13 18 0
13 10 -4 15 2 16 18 1 14 -2 21 -9 17 -6 -3 -7 -1 -3 6 4 6 11 9 15 6 5 -2 13
7 20 21 6 15 16 22 23 18 7 -4 8 -3 4 5 -4 6 -13 8 -19 4 -18 -11 -38 -12 -31
-2 3 5 10 7 15 4 5 -4 9 1 9 9 0 10 6 13 18 9 14 -5 13 -3 -3 10 -11 9 -24 16
-30 17 -5 0 -3 -5 5 -10 8 -5 10 -10 4 -10 -6 0 -17 7 -24 15 -7 8 -15 13 -19
11 -4 -3 -8 7 -9 22 -1 14 -7 31 -13 37 -7 7 -9 5 -6 -5 2 -8 2 -12 0 -7 -3 4
-9 4 -15 1 -7 -4 -7 0 0 12 11 21 -10 64 -22 45 -3 -5 -1 -11 6 -13 8 -3 9 -6
1 -11 -5 -3 -15 5 -22 19 -6 14 -7 23 -2 20 13 -8 7 22 -6 35 -6 6 -9 19 -7
28 3 9 -1 5 -9 -8 l-14 -24 -10 28 c-8 24 -10 26 -16 11z m58 -46 c3 -5 1 -10
-4 -10 -6 0 -11 5 -11 10 0 6 2 10 4 10 3 0 8 -4 11 -10z m53 -376 c-12 -12
-17 -13 -23 -3 -5 8 -4 10 3 5 11 -7 17 6 12 29 -1 6 4 4 11 -3 11 -10 10 -15
-3 -28z m-19 -46 c-5 -10 -11 -18 -12 -18 -2 0 -3 8 -3 18 0 10 6 19 13 19 8
0 9 -6 2 -19z"/>
<path d="M3061 1614 c-1 -6 5 -17 12 -23 10 -8 14 -7 14 4 0 8 -4 12 -8 9 -4
-2 -10 2 -12 8 -4 8 -6 9 -6 2z"/>
<path d="M240 1587 c12 -16 12 -20 -1 -28 -9 -5 -10 -9 -2 -9 22 0 26 22 7 38
-17 16 -17 16 -4 -1z"/>
<path d="M230 1526 c0 -2 7 -9 15 -16 9 -7 15 -8 15 -2 0 5 -7 12 -15 16 -8 3
-15 4 -15 2z"/>
<path d="M248 1463 c6 -2 10 -9 6 -14 -3 -5 0 -9 7 -9 8 0 8 -4 1 -13 -8 -9
-8 -17 0 -27 8 -12 9 -12 4 2 -3 10 -1 20 4 23 13 8 -7 45 -23 44 -9 0 -9 -2
1 -6z"/>
<path d="M1781 1459 c-1 -25 21 -40 39 -27 12 8 12 9 -3 4 -12 -4 -21 1 -27
17 -6 15 -9 17 -9 6z"/>
<path d="M1937 1277 c-3 -8 1 -14 8 -14 7 0 11 6 8 14 -3 7 -6 13 -8 13 -2 0
-5 -6 -8 -13z"/>
<path d="M310 1211 c0 -5 7 -12 16 -15 14 -5 15 -4 4 9 -14 17 -20 19 -20 6z"/>
<path d="M1404 1099 c1 -7 10 -13 19 -15 9 -1 15 2 11 7 -3 5 -9 7 -14 4 -4
-3 -11 0 -13 5 -3 6 -4 5 -3 -1z"/>
<path d="M433 975 c0 -8 4 -12 9 -9 5 3 6 10 3 15 -9 13 -12 11 -12 -6z"/>
<path d="M1830 980 c-9 -6 -10 -10 -3 -10 6 0 15 5 18 10 8 12 4 12 -15 0z"/>
<path d="M2847 929 c7 -7 15 -10 18 -7 3 3 -2 9 -12 12 -14 6 -15 5 -6 -5z"/>
<path d="M573 775 c0 -8 4 -12 9 -9 5 3 6 10 3 15 -9 13 -12 11 -12 -6z"/>
<path d="M1790 709 c0 -5 5 -7 10 -4 6 3 10 8 10 11 0 2 -4 4 -10 4 -5 0 -10
-5 -10 -11z"/>
<path d="M630 699 c0 -5 5 -7 10 -4 6 3 10 8 10 11 0 2 -4 4 -10 4 -5 0 -10
-5 -10 -11z"/>
<path d="M2666 697 c3 -10 9 -15 12 -12 3 3 0 11 -7 18 -10 9 -11 8 -5 -6z"/>
<path d="M690 640 c0 -5 5 -10 11 -10 5 0 7 5 4 10 -3 6 -8 10 -11 10 -2 0 -4
-4 -4 -10z"/>
<path d="M1483 565 c0 -8 4 -12 9 -9 4 3 8 9 8 15 0 5 -4 9 -8 9 -5 0 -9 -7
-9 -15z"/>
<path d="M2524 572 c3 -5 0 -12 -6 -15 -7 -2 -10 -7 -7 -11 3 -4 12 0 18 8 9
11 9 16 0 22 -7 4 -9 3 -5 -4z"/>
<path d="M868 493 c7 -3 16 -2 19 1 4 3 -2 6 -13 5 -11 0 -14 -3 -6 -6z"/>
<path d="M1066 397 c3 -10 9 -15 12 -12 3 3 0 11 -7 18 -10 9 -11 8 -5 -6z"/>
<path d="M1780 346 c0 -2 7 -7 16 -10 8 -3 12 -2 9 4 -6 10 -25 14 -25 6z"/>
<path d="M2020 315 c-7 -9 -8 -15 -2 -15 5 0 12 7 16 15 3 8 4 15 2 15 -2 0
-9 -7 -16 -15z"/>
</g>
</svg>
