<svg width="65" height="40" xmlns="http://www.w3.org/2000/svg" xmlns:xlink="http://www.w3.org/1999/xlink" xmlns:svgjs="http://svgjs.com/svgjs" viewBox="567 214 65 40"><svg width="7" height="30" xmlns="http://www.w3.org/2000/svg" xmlns:xlink="http://www.w3.org/1999/xlink" xmlns:svgjs="http://svgjs.com/svgjs" viewBox="0 0.316 7 29.368" fill="#fbf4af" x="606" y="222"><svg xmlns="http://www.w3.org/2000/svg" xmlns:xlink="http://www.w3.org/1999/xlink" width="7" height="30" viewBox="0.215 0.75 6.772 28.412"><path paint-order="stroke fill markers" fill-rule="evenodd" d="M.215 27.329c.78.693 1.63 1.308 2.54 1.833L6.986.75a15.318 15.318 0 0 0-2.964 1.01L.215 27.329z"/></svg></svg><svg width="7" height="29" xmlns="http://www.w3.org/2000/svg" xmlns:xlink="http://www.w3.org/1999/xlink" xmlns:svgjs="http://svgjs.com/svgjs" viewBox="0.044 0 6.912 29" fill="#fbf4af" x="589" y="214"><svg xmlns="http://www.w3.org/2000/svg" xmlns:xlink="http://www.w3.org/1999/xlink" width="7" height="29" viewBox="0.086 0.481 6.772 28.412"><path paint-order="stroke fill markers" fill-rule="evenodd" d="M.086 27.06c.78.692 1.63 1.308 2.54 1.833L6.857.48a15.284 15.284 0 0 0-2.963 1.01L.085 27.06z"/></svg></svg><svg width="65" height="40" xmlns="http://www.w3.org/2000/svg" xmlns:xlink="http://www.w3.org/1999/xlink" xmlns:svgjs="http://svgjs.com/svgjs" viewBox="567 214 65 40" x="567" y="214"><svg width="32" height="32" xmlns="http://www.w3.org/2000/svg" xmlns:xlink="http://www.w3.org/1999/xlink" xmlns:svgjs="http://svgjs.com/svgjs" viewBox="567 222 32 32" x="567" y="222"><svg width="32" height="32" xmlns="http://www.w3.org/2000/svg" xmlns:xlink="http://www.w3.org/1999/xlink" xmlns:svgjs="http://svgjs.com/svgjs" fill="#f6e266" x="567" y="222"><svg xmlns="http://www.w3.org/2000/svg" xmlns:xlink="http://www.w3.org/1999/xlink" width="32" height="32" viewBox="0.286 0.358 30.86 30.861"><path paint-order="stroke fill markers" fill-rule="evenodd" d="M15.716 31.219c-8.533 0-15.43-6.897-15.43-15.43S7.183.359 15.716.359s15.43 6.897 15.43 15.43-6.897 15.43-15.43 15.43z"/></svg></svg><svg width="8" height="30" xmlns="http://www.w3.org/2000/svg" xmlns:xlink="http://www.w3.org/1999/xlink" xmlns:svgjs="http://svgjs.com/svgjs" viewBox="0.425 0 7.151 30" fill="#fbf4af" x="572" y="222"><svg xmlns="http://www.w3.org/2000/svg" xmlns:xlink="http://www.w3.org/1999/xlink" width="8" height="30" viewBox="0.474 0.75 6.772 28.412"><path paint-order="stroke fill markers" fill-rule="evenodd" d="M.474 27.329c.78.693 1.63 1.308 2.54 1.833L7.247.75a15.311 15.311 0 0 0-2.963 1.01L.474 27.329z"/></svg></svg><svg width="18" height="32" xmlns="http://www.w3.org/2000/svg" xmlns:xlink="http://www.w3.org/1999/xlink" xmlns:svgjs="http://svgjs.com/svgjs" viewBox="0.567 0 16.866 32" fill="#eab14d" x="581" y="222"><svg xmlns="http://www.w3.org/2000/svg" xmlns:xlink="http://www.w3.org/1999/xlink" width="18" height="32" viewBox="0.881 0.358 16.266 30.861"><path paint-order="stroke fill markers" fill-rule="evenodd" d="M1.716.358c-.28 0-.559.008-.835.023 8.133.434 14.594 7.166 14.594 15.408 0 8.241-6.461 14.973-14.594 15.407.276.015.555.023.835.023 8.522 0 15.43-6.908 15.43-15.43 0-8.522-6.908-15.43-15.43-15.43z"/></svg></svg><svg width="26" height="26" xmlns="http://www.w3.org/2000/svg" xmlns:xlink="http://www.w3.org/1999/xlink" xmlns:svgjs="http://svgjs.com/svgjs" fill="#e7a52e" x="570" y="225"><svg xmlns="http://www.w3.org/2000/svg" xmlns:xlink="http://www.w3.org/1999/xlink" width="26" height="26" viewBox="0.289 0.362 24.854 24.854"><path paint-order="stroke fill markers" fill-rule="evenodd" d="M12.716 25.216A12.416 12.416 0 0 1 .29 12.789 12.416 12.416 0 0 1 12.716.362a12.416 12.416 0 0 1 12.427 12.427 12.416 12.416 0 0 1-12.427 12.427z"/></svg></svg><svg width="15" height="26" xmlns="http://www.w3.org/2000/svg" xmlns:xlink="http://www.w3.org/1999/xlink" xmlns:svgjs="http://svgjs.com/svgjs" viewBox="0.517 0 13.967 26" fill="#e28424" x="581" y="225"><svg xmlns="http://www.w3.org/2000/svg" xmlns:xlink="http://www.w3.org/1999/xlink" width="15" height="26" viewBox="0.792 0.362 13.351 24.854"><path paint-order="stroke fill markers" fill-rule="evenodd" d="M1.716.362c-.311 0-.62.011-.924.034 6.432.472 11.503 5.84 11.503 12.393 0 6.552-5.07 11.92-11.503 12.392.305.023.613.035.924.035 6.863 0 12.427-5.564 12.427-12.427C14.143 5.925 8.58.362 1.716.362z"/></svg></svg><svg width="6" height="22" xmlns="http://www.w3.org/2000/svg" xmlns:xlink="http://www.w3.org/1999/xlink" xmlns:svgjs="http://svgjs.com/svgjs" viewBox="0.123 0 5.754 22" fill="#eab14d" x="573" y="226"><svg xmlns="http://www.w3.org/2000/svg" xmlns:xlink="http://www.w3.org/1999/xlink" width="6" height="22" viewBox="0.033 0.004 5.729 21.902"><path paint-order="stroke fill markers" fill-rule="evenodd" d="M.033 19.577A12.505 12.505 0 0 0 2.5 21.906L5.762.004a12.388 12.388 0 0 0-3.038 1.51L.034 19.577z"/></svg></svg><svg width="16" height="15" xmlns="http://www.w3.org/2000/svg" xmlns:xlink="http://www.w3.org/1999/xlink" xmlns:svgjs="http://svgjs.com/svgjs" viewBox="0.138 0 15.723 15" fill="#c85929" x="575" y="230"><svg xmlns="http://www.w3.org/2000/svg" xmlns:xlink="http://www.w3.org/1999/xlink" width="16" height="15" viewBox="0.241 0.737 14.95 14.262"><path paint-order="stroke fill markers" fill-rule="evenodd" d="M8.096.942l2.346 3.604a.451.451 0 0 0 .262.19l4.152 1.118c.316.085.44.467.234.722L12.387 9.92a.45.45 0 0 0-.1.307l.22 4.295a.452.452 0 0 1-.612.446l-4.017-1.537a.454.454 0 0 0-.324 0L3.538 14.97a.453.453 0 0 1-.613-.446l.22-4.295a.45.45 0 0 0-.1-.307L.342 6.576a.452.452 0 0 1 .235-.722l4.152-1.117a.452.452 0 0 0 .262-.19L7.336.941a.453.453 0 0 1 .76 0z"/></svg></svg><svg width="8" height="11" xmlns="http://www.w3.org/2000/svg" xmlns:xlink="http://www.w3.org/1999/xlink" xmlns:svgjs="http://svgjs.com/svgjs" viewBox="0.462 0 7.077 11" fill="#b94029" x="583" y="234"><svg xmlns="http://www.w3.org/2000/svg" xmlns:xlink="http://www.w3.org/1999/xlink" width="8" height="11" viewBox="0.271 0.243 6.92 10.756"><path paint-order="stroke fill markers" fill-rule="evenodd" d="M6.856 1.854L2.703.737a.456.456 0 0 1-.261-.19L2.244.243c-.02 2.29-.35 5.977-1.973 9.34l3.624 1.386c.305.117.63-.12.613-.446l-.22-4.295a.45.45 0 0 1 .1-.307L7.09 2.576a.453.453 0 0 0-.234-.722z"/></svg></svg></svg><svg width="31" height="32" xmlns="http://www.w3.org/2000/svg" xmlns:xlink="http://www.w3.org/1999/xlink" xmlns:svgjs="http://svgjs.com/svgjs" viewBox="601 222 31 32" x="601" y="222"><svg width="31" height="32" xmlns="http://www.w3.org/2000/svg" xmlns:xlink="http://www.w3.org/1999/xlink" xmlns:svgjs="http://svgjs.com/svgjs" viewBox="0 0.5 31 31" fill="#f6e266" x="601" y="222"><svg xmlns="http://www.w3.org/2000/svg" xmlns:xlink="http://www.w3.org/1999/xlink" width="31" height="32" viewBox="0.026 0.358 30.86 30.861"><path paint-order="stroke fill markers" fill-rule="evenodd" d="M15.456 31.219c-8.533 0-15.43-6.897-15.43-15.43S6.923.359 15.456.359c8.534 0 15.43 6.897 15.43 15.43s-6.896 15.43-15.43 15.43z"/></svg></svg><svg width="7" height="30" xmlns="http://www.w3.org/2000/svg" xmlns:xlink="http://www.w3.org/1999/xlink" xmlns:svgjs="http://svgjs.com/svgjs" viewBox="0 0.316 7 29.368" fill="#fbf4af" x="606" y="222"><svg xmlns="http://www.w3.org/2000/svg" xmlns:xlink="http://www.w3.org/1999/xlink" width="7" height="30" viewBox="0.215 0.75 6.772 28.412"><path paint-order="stroke fill markers" fill-rule="evenodd" d="M.215 27.329c.78.693 1.63 1.308 2.54 1.833L6.986.75a15.318 15.318 0 0 0-2.964 1.01L.215 27.329z"/></svg></svg><svg width="17" height="32" xmlns="http://www.w3.org/2000/svg" xmlns:xlink="http://www.w3.org/1999/xlink" xmlns:svgjs="http://svgjs.com/svgjs" viewBox="0.067 0 16.867 32" fill="#eab14d" x="615" y="222"><svg xmlns="http://www.w3.org/2000/svg" xmlns:xlink="http://www.w3.org/1999/xlink" width="17" height="32" viewBox="0.62 0.358 16.266 30.861"><path paint-order="stroke fill markers" fill-rule="evenodd" d="M1.456.358c-.28 0-.558.008-.836.023 8.134.434 14.595 7.166 14.595 15.408 0 8.241-6.461 14.973-14.595 15.407.278.015.555.023.836.023 8.522 0 15.43-6.908 15.43-15.43 0-8.522-6.908-15.43-15.43-15.43z"/></svg></svg><svg width="25" height="26" xmlns="http://www.w3.org/2000/svg" xmlns:xlink="http://www.w3.org/1999/xlink" xmlns:svgjs="http://svgjs.com/svgjs" viewBox="0 0.5 25 25" fill="#e7a52e" x="604" y="225"><svg xmlns="http://www.w3.org/2000/svg" xmlns:xlink="http://www.w3.org/1999/xlink" width="25" height="26" viewBox="0.03 0.362 24.854 24.854"><path paint-order="stroke fill markers" fill-rule="evenodd" d="M12.456 25.216A12.416 12.416 0 0 1 .03 12.789 12.416 12.416 0 0 1 12.456.362a12.416 12.416 0 0 1 12.427 12.427 12.416 12.416 0 0 1-12.427 12.427z"/></svg></svg><svg width="14" height="26" xmlns="http://www.w3.org/2000/svg" xmlns:xlink="http://www.w3.org/1999/xlink" xmlns:svgjs="http://svgjs.com/svgjs" viewBox="0.017 0 13.967 26" fill="#e28424" x="615" y="225"><svg xmlns="http://www.w3.org/2000/svg" xmlns:xlink="http://www.w3.org/1999/xlink" width="14" height="26" viewBox="0.532 0.362 13.351 24.854"><path paint-order="stroke fill markers" fill-rule="evenodd" d="M1.456.362c-.31 0-.619.011-.924.034 6.432.472 11.504 5.84 11.504 12.393 0 6.552-5.072 11.92-11.504 12.392.305.023.613.035.924.035 6.864 0 12.427-5.564 12.427-12.427C13.883 5.925 8.32.362 1.456.362z"/></svg></svg><svg width="7" height="22" xmlns="http://www.w3.org/2000/svg" xmlns:xlink="http://www.w3.org/1999/xlink" xmlns:svgjs="http://svgjs.com/svgjs" viewBox="0.623 0 5.754 22" fill="#eab14d" x="606" y="226"><svg xmlns="http://www.w3.org/2000/svg" xmlns:xlink="http://www.w3.org/1999/xlink" width="7" height="22" viewBox="0.774 0.004 5.728 21.902"><path paint-order="stroke fill markers" fill-rule="evenodd" d="M.774 19.577a12.484 12.484 0 0 0 2.465 2.329L6.502.004a12.383 12.383 0 0 0-3.038 1.51L.774 19.577z"/></svg></svg><svg width="16" height="15" xmlns="http://www.w3.org/2000/svg" xmlns:xlink="http://www.w3.org/1999/xlink" xmlns:svgjs="http://svgjs.com/svgjs" viewBox="0.139 0 15.723 15" fill="#c85929" x="608" y="230"><svg xmlns="http://www.w3.org/2000/svg" xmlns:xlink="http://www.w3.org/1999/xlink" width="16" height="15" viewBox="0.981 0.737 14.95 14.262"><path paint-order="stroke fill markers" fill-rule="evenodd" d="M8.835.942l2.347 3.604a.45.45 0 0 0 .261.19l4.153 1.118c.316.085.44.467.234.722L13.128 9.92a.45.45 0 0 0-.1.307l.22 4.295a.453.453 0 0 1-.614.446l-4.016-1.537a.454.454 0 0 0-.323 0L4.278 14.97a.453.453 0 0 1-.614-.446l.22-4.295a.451.451 0 0 0-.1-.307L1.084 6.576a.452.452 0 0 1 .234-.722l4.152-1.117a.454.454 0 0 0 .262-.19L8.077.941a.453.453 0 0 1 .758 0z"/></svg></svg><svg width="7" height="11" xmlns="http://www.w3.org/2000/svg" xmlns:xlink="http://www.w3.org/1999/xlink" xmlns:svgjs="http://svgjs.com/svgjs" viewBox="0 0.059 7 10.881" fill="#b94029" x="617" y="234"><svg xmlns="http://www.w3.org/2000/svg" xmlns:xlink="http://www.w3.org/1999/xlink" width="7" height="11" viewBox="0.012 0.243 6.92 10.756"><path paint-order="stroke fill markers" fill-rule="evenodd" d="M6.596 1.854L2.443.737a.453.453 0 0 1-.261-.19L1.984.243c-.02 2.29-.35 5.977-1.972 9.34l3.622 1.386a.453.453 0 0 0 .614-.446l-.22-4.295a.455.455 0 0 1 .1-.307L6.83 2.576a.453.453 0 0 0-.234-.722z"/></svg></svg></svg><svg width="32" height="31" xmlns="http://www.w3.org/2000/svg" xmlns:xlink="http://www.w3.org/1999/xlink" xmlns:svgjs="http://svgjs.com/svgjs" viewBox="583 214 32 31" x="583" y="214"><svg width="32" height="31" xmlns="http://www.w3.org/2000/svg" xmlns:xlink="http://www.w3.org/1999/xlink" xmlns:svgjs="http://svgjs.com/svgjs" viewBox="0.5 0 31 31" fill="#f6e266" x="583" y="214"><svg xmlns="http://www.w3.org/2000/svg" xmlns:xlink="http://www.w3.org/1999/xlink" width="32" height="31" viewBox="0.897 0.089 30.86 30.861"><path paint-order="stroke fill markers" fill-rule="evenodd" d="M16.328 30.95c-8.534 0-15.43-6.897-15.43-15.43S7.793.09 16.327.09c8.533 0 15.43 6.897 15.43 15.43s-6.897 15.43-15.43 15.43z"/></svg></svg><svg width="7" height="29" xmlns="http://www.w3.org/2000/svg" xmlns:xlink="http://www.w3.org/1999/xlink" xmlns:svgjs="http://svgjs.com/svgjs" viewBox="0.044 0 6.912 29" fill="#fbf4af" x="589" y="214"><svg xmlns="http://www.w3.org/2000/svg" xmlns:xlink="http://www.w3.org/1999/xlink" width="7" height="29" viewBox="0.086 0.481 6.772 28.412"><path paint-order="stroke fill markers" fill-rule="evenodd" d="M.086 27.06c.78.692 1.63 1.308 2.54 1.833L6.857.48a15.284 15.284 0 0 0-2.963 1.01L.085 27.06z"/></svg></svg><svg width="17" height="31" xmlns="http://www.w3.org/2000/svg" xmlns:xlink="http://www.w3.org/1999/xlink" xmlns:svgjs="http://svgjs.com/svgjs" viewBox="0.33 0 16.34 31" fill="#eab14d" x="598" y="214"><svg xmlns="http://www.w3.org/2000/svg" xmlns:xlink="http://www.w3.org/1999/xlink" width="17" height="31" viewBox="0.491 0.089 16.266 30.861"><path paint-order="stroke fill markers" fill-rule="evenodd" d="M1.328.09c-.28 0-.56.007-.837.022C8.625.546 15.086 7.278 15.086 15.52c0 8.241-6.46 14.973-14.595 15.407.278.015.556.023.837.023 8.521 0 15.43-6.908 15.43-15.43C16.758 6.998 9.849.09 1.328.09z"/></svg></svg><svg width="26" height="25" xmlns="http://www.w3.org/2000/svg" xmlns:xlink="http://www.w3.org/1999/xlink" xmlns:svgjs="http://svgjs.com/svgjs" viewBox="0.5 0 25 25" fill="#e7a52e" x="586" y="217"><svg xmlns="http://www.w3.org/2000/svg" xmlns:xlink="http://www.w3.org/1999/xlink" width="26" height="25" viewBox="0.901 0.092 24.854 24.854"><path paint-order="stroke fill markers" fill-rule="evenodd" d="M13.328 24.947A12.416 12.416 0 0 1 .9 12.52 12.416 12.416 0 0 1 13.328.092 12.416 12.416 0 0 1 25.754 12.52a12.416 12.416 0 0 1-12.426 12.427z"/></svg></svg><svg width="14" height="25" xmlns="http://www.w3.org/2000/svg" xmlns:xlink="http://www.w3.org/1999/xlink" xmlns:svgjs="http://svgjs.com/svgjs" viewBox="0.285 0 13.43 25" fill="#e28424" x="598" y="217"><svg xmlns="http://www.w3.org/2000/svg" xmlns:xlink="http://www.w3.org/1999/xlink" width="14" height="25" viewBox="0.403 0.092 13.351 24.854"><path paint-order="stroke fill markers" fill-rule="evenodd" d="M1.328.092c-.312 0-.62.012-.925.035C6.836.6 11.907 5.967 11.907 12.52c0 6.552-5.071 11.92-11.504 12.392.305.023.613.035.925.035 6.863 0 12.426-5.564 12.426-12.427C13.754 5.656 8.191.092 1.328.092z"/></svg></svg><svg width="7" height="23" xmlns="http://www.w3.org/2000/svg" xmlns:xlink="http://www.w3.org/1999/xlink" xmlns:svgjs="http://svgjs.com/svgjs" viewBox="0.492 0 6.016 23" fill="#eab14d" x="589" y="217"><svg xmlns="http://www.w3.org/2000/svg" xmlns:xlink="http://www.w3.org/1999/xlink" width="7" height="23" viewBox="0.645 0.735 5.729 21.902"><path paint-order="stroke fill markers" fill-rule="evenodd" d="M.645 20.308a12.51 12.51 0 0 0 2.465 2.329L6.374.735a12.383 12.383 0 0 0-3.038 1.51L.645 20.308z"/></svg></svg><svg width="16" height="15" xmlns="http://www.w3.org/2000/svg" xmlns:xlink="http://www.w3.org/1999/xlink" xmlns:svgjs="http://svgjs.com/svgjs" viewBox="0.139 0 15.723 15" fill="#c85929" x="591" y="222"><svg xmlns="http://www.w3.org/2000/svg" xmlns:xlink="http://www.w3.org/1999/xlink" width="16" height="15" viewBox="0.853 0.468 14.95 14.263"><path paint-order="stroke fill markers" fill-rule="evenodd" d="M8.707.673l2.346 3.605a.452.452 0 0 0 .261.19l4.153 1.117c.317.085.44.467.234.722L13 9.652a.45.45 0 0 0-.1.307l.22 4.295a.453.453 0 0 1-.614.446L8.49 13.163a.454.454 0 0 0-.324 0L4.15 14.7a.453.453 0 0 1-.614-.446l.22-4.295a.45.45 0 0 0-.1-.307L.954 6.307a.453.453 0 0 1 .234-.722L5.34 4.468a.452.452 0 0 0 .261-.19L7.948.673a.453.453 0 0 1 .76 0z"/></svg></svg><svg width="8" height="12" xmlns="http://www.w3.org/2000/svg" xmlns:xlink="http://www.w3.org/1999/xlink" xmlns:svgjs="http://svgjs.com/svgjs" viewBox="0.14 0 7.72 12" fill="#b94029" x="599" y="225"><svg xmlns="http://www.w3.org/2000/svg" width="8" height="12" viewBox="0.883 0.974 6.92 10.756"><path paint-order="stroke fill markers" fill-rule="evenodd" d="M7.467 2.585L3.314 1.468a.453.453 0 0 1-.261-.19L2.856.974c-.02 2.29-.35 5.977-1.973 9.34L4.505 11.7a.453.453 0 0 0 .614-.446L4.9 6.959a.45.45 0 0 1 .1-.307L7.7 3.307a.453.453 0 0 0-.234-.722z"/></svg></svg></svg></svg></svg>