<svg width="42" height="39" xmlns="http://www.w3.org/2000/svg" xmlns:xlink="http://www.w3.org/1999/xlink" xmlns:svgjs="http://svgjs.com/svgjs" viewBox="60 339 42 39"><svg width="16" height="20" xmlns="http://www.w3.org/2000/svg" xmlns:xlink="http://www.w3.org/1999/xlink" xmlns:svgjs="http://svgjs.com/svgjs" viewBox="0.645 0 14.711 20" fill="#a2a2a2" x="67" y="339"><svg xmlns="http://www.w3.org/2000/svg" xmlns:xlink="http://www.w3.org/1999/xlink" width="16" height="20" viewBox="0.681 0.28 14.478 19.684"><path paint-order="stroke fill markers" fill-rule="evenodd" d="M.913 11.912c.098.59.326.962.55 1.197.534 3.555 3.505 6.855 6.223 6.855 3.168 0 6.052-3.572 6.607-6.847.23-.233.46-.608.56-1.205.18-.665.412-1.822.005-2.367a.846.846 0 0 0-.066-.076c.383-1.398.867-4.287-.863-6.255-.154-.196-1.126-1.356-3.2-1.968L9.74.905C8.107.4 7.08.287 7.037.28A.7.7 0 0 0 6.815.3c-.055.016-.251.069-.402.047-.39-.055-.977.146-1.08.185C5.198.588 2.037 1.853 1.078 4.8c-.09.237-.473 1.49.037 4.559a.874.874 0 0 0-.204.193c-.412.539-.18 1.696.002 2.361z"/></svg></svg><svg width="29" height="21" xmlns="http://www.w3.org/2000/svg" xmlns:xlink="http://www.w3.org/1999/xlink" xmlns:svgjs="http://svgjs.com/svgjs" viewBox="0 0.285 29 20.43" fill="#a2a2a2" x="60" y="357"><svg xmlns="http://www.w3.org/2000/svg" xmlns:xlink="http://www.w3.org/1999/xlink" width="29" height="21" viewBox="-0.001 0.183 28.13 19.817"><path paint-order="stroke fill markers" fill-rule="evenodd" d="M20.561 16.323a22.204 22.204 0 0 0-1.894-.94c-.327-.146-.66-.283-.99-.412-.26-.098-.565-.225-.78-.28l-3.132-.846 5.861-11.934 2.512 1.585c.531.332.922.615 1.35.93l.09.065c.426.315.843.637 1.252.97.89.718 1.677 1.421 2.409 2.147l.164.162c.246-.272.486-.515.726-.777-.306-.911-.678-1.754-1.133-2.43 0 0-.644-.88-2.174-1.466 0 0-.13-.04-.327-.106-1.36-.637-2.653-1.046-2.653-1.046-.277-.1-.52-.198-.74-.293-.924-.457-1.693-.972-1.85-1.458 0 0 .532 5.164-3.982 5.285l-.628-.029C10.55 5.086 10.278.183 10.278.183 9.85 1.528 4.704 3.091 4.704 3.091c-1.53.587-2.177 1.47-2.177 1.47C.267 7.914 0 15.38 0 15.38c.03 1.706.767 1.883.767 1.883 5.2 2.322 13.36 2.732 13.36 2.732.442.01.851-.014 1.26-.037l.011.042s3.984-.203 8.16-1.117l-.51-.669c-.414-.546-1.342-1.252-2.486-1.891z"/></svg></svg><svg width="1" height="1" xmlns="http://www.w3.org/2000/svg" xmlns:xlink="http://www.w3.org/1999/xlink" xmlns:svgjs="http://svgjs.com/svgjs" viewBox="0.203 0 0.593 1" fill="#a2a2a2" x="79" y="357"><svg xmlns="http://www.w3.org/2000/svg" xmlns:xlink="http://www.w3.org/1999/xlink" width="1" height="1" viewBox="0.077 0.12 0.174 0.293"><path paint-order="stroke fill markers" fill-rule="evenodd" d="M.077.413C.132.342.193.27.251.191.238.144.235.12.235.12.185.223.127.31.077.413z"/></svg></svg><svg width="1" height="1" xmlns="http://www.w3.org/2000/svg" xmlns:xlink="http://www.w3.org/1999/xlink" xmlns:svgjs="http://svgjs.com/svgjs" viewBox="0.299 0 0.402 1" fill="#a2a2a2" x="70" y="357"><svg xmlns="http://www.w3.org/2000/svg" xmlns:xlink="http://www.w3.org/1999/xlink" width="1" height="1" viewBox="0.278 0.12 0.023 0.058"><path paint-order="stroke fill markers" fill-rule="evenodd" d="M.301.175L.29.12.278.178C.28.168.291.157.294.146A.083.083 0 0 1 .3.176z"/></svg></svg><svg width="25" height="20" xmlns="http://www.w3.org/2000/svg" xmlns:xlink="http://www.w3.org/1999/xlink" xmlns:svgjs="http://svgjs.com/svgjs" viewBox="0.139 0 24.722 20" fill="#a2a2a2" x="77" y="357"><svg xmlns="http://www.w3.org/2000/svg" width="25" height="20" viewBox="0.595 0.112 23.856 19.299"><path paint-order="stroke fill markers" fill-rule="evenodd" d="M19.67 2.571c-1.482 1.046-2.864 2.23-4.18 3.474a62.105 62.105 0 0 0-3.769 3.93c-.446.507-.88 1.02-1.31 1.535-.006-.008-.01-.016-.013-.024a20.816 20.816 0 0 0-2.034-2.303 30.958 30.958 0 0 0-2.214-1.97c-.383-.307-.769-.608-1.162-.904-.41-.296-.769-.563-1.271-.88L.595 11.782c.285.077.7.238 1.051.375a25.97 25.97 0 0 1 3.22 1.508c1.342.75 2.592 1.665 3.305 2.597l2.4 3.149 1.382-2.996c.695-1.5 1.527-3.07 2.38-4.564a57.342 57.342 0 0 1 2.777-4.406c.995-1.424 2.063-2.8 3.257-4.068C21.56 2.117 22.879.944 24.45.112c-1.706.507-3.301 1.424-4.78 2.459z"/></svg></svg></svg>