<svg width="32" height="39" xmlns="http://www.w3.org/2000/svg" xmlns:xlink="http://www.w3.org/1999/xlink" xmlns:svgjs="http://svgjs.com/svgjs" viewBox="501 664 32 39"><svg width="18" height="22" xmlns="http://www.w3.org/2000/svg" xmlns:xlink="http://www.w3.org/1999/xlink" xmlns:svgjs="http://svgjs.com/svgjs" viewBox="0.167 0 17.666 22" fill="#85cdea" x="515" y="681"><svg xmlns="http://www.w3.org/2000/svg" xmlns:xlink="http://www.w3.org/1999/xlink" width="18" height="22" viewBox="0.833 0.069 17.155 21.364"><path paint-order="stroke fill markers" fill-rule="evenodd" d="M17.988 17.207l-6.283-1.214-3.367 5.44L.833 4.295 10.483.07l7.505 17.138z"/></svg></svg><svg width="10" height="19" xmlns="http://www.w3.org/2000/svg" xmlns:xlink="http://www.w3.org/1999/xlink" xmlns:svgjs="http://svgjs.com/svgjs" viewBox="0.233 0 9.533 19" fill="#78b7d2" x="515" y="684"><svg xmlns="http://www.w3.org/2000/svg" xmlns:xlink="http://www.w3.org/1999/xlink" width="10" height="19" viewBox="0.833 0.297 9.1 18.136"><path paint-order="stroke fill markers" fill-rule="evenodd" d="M3.111.297l-2.278.998 7.505 17.138 1.594-2.577L3.112.297z"/></svg></svg><svg width="18" height="22" xmlns="http://www.w3.org/2000/svg" xmlns:xlink="http://www.w3.org/1999/xlink" xmlns:svgjs="http://svgjs.com/svgjs" viewBox="0.167 0 17.666 22" fill="#85cdea" x="501" y="681"><svg xmlns="http://www.w3.org/2000/svg" xmlns:xlink="http://www.w3.org/1999/xlink" width="18" height="22" viewBox="0.75 0.069 17.155 21.364"><path paint-order="stroke fill markers" fill-rule="evenodd" d="M.75 17.207l6.283-1.214 3.368 5.44 7.504-17.138L8.255.07.75 17.207z"/></svg></svg><svg width="11" height="18" xmlns="http://www.w3.org/2000/svg" xmlns:xlink="http://www.w3.org/1999/xlink" xmlns:svgjs="http://svgjs.com/svgjs" viewBox="0.358 0 10.283 18" fill="#78b7d2" x="501" y="681"><svg xmlns="http://www.w3.org/2000/svg" xmlns:xlink="http://www.w3.org/1999/xlink" width="11" height="18" viewBox="0.75 0.069 9.791 17.139"><path paint-order="stroke fill markers" fill-rule="evenodd" d="M10.541 1.07L8.255.07.75 17.207l2.977-.575L10.54 1.07z"/></svg></svg><svg width="28" height="28" xmlns="http://www.w3.org/2000/svg" xmlns:xlink="http://www.w3.org/1999/xlink" xmlns:svgjs="http://svgjs.com/svgjs" fill="#cd7f32" x="503" y="664"><svg xmlns="http://www.w3.org/2000/svg" xmlns:xlink="http://www.w3.org/1999/xlink" width="28" height="28" viewBox="0.483 0.25 27.019 27.018"><path paint-order="stroke fill markers" fill-rule="evenodd" d="M27.501 13.76c0 7.46-6.048 13.508-13.51 13.508C6.532 27.268.484 21.22.484 13.76.483 6.3 6.53.25 13.992.25s13.51 6.048 13.51 13.51z"/></svg></svg><svg width="16" height="28" xmlns="http://www.w3.org/2000/svg" xmlns:xlink="http://www.w3.org/1999/xlink" xmlns:svgjs="http://svgjs.com/svgjs" viewBox="0.294 0 15.412 28" fill="#b56e26" x="503" y="664"><svg xmlns="http://www.w3.org/2000/svg" xmlns:xlink="http://www.w3.org/1999/xlink" width="16" height="28" viewBox="0.483 0.25 14.872 27.018"><path paint-order="stroke fill markers" fill-rule="evenodd" d="M3.207 13.76C3.207 6.757 8.534 1 15.355.317A13.664 13.664 0 0 0 13.992.25C6.532.25.482 6.298.482 13.76c0 7.46 6.05 13.508 13.51 13.508.46 0 .914-.023 1.363-.068-6.821-.683-12.148-6.44-12.148-13.44z"/></svg></svg><svg width="12" height="5" xmlns="http://www.w3.org/2000/svg" xmlns:xlink="http://www.w3.org/1999/xlink" xmlns:svgjs="http://svgjs.com/svgjs" viewBox="511 675 12 5" x="511" y="675"><svg width="4" height="3" xmlns="http://www.w3.org/2000/svg" xmlns:xlink="http://www.w3.org/1999/xlink" xmlns:svgjs="http://svgjs.com/svgjs" viewBox="0.286 0 3.428 3" fill="#464c51" x="515" y="677"><svg xmlns="http://www.w3.org/2000/svg" xmlns:xlink="http://www.w3.org/1999/xlink" width="4" height="3" viewBox="0.671 0.007 2.643 2.313"><path paint-order="stroke fill markers" fill-rule="evenodd" d="M1.992 2.32C1.262 2.32.67 1.728.67.999V.007h2.642V1c0 .73-.591 1.321-1.321 1.321z"/></svg></svg><svg width="2" height="3" xmlns="http://www.w3.org/2000/svg" xmlns:xlink="http://www.w3.org/1999/xlink" xmlns:svgjs="http://svgjs.com/svgjs" viewBox="0.157 0 1.685 3" fill="#464c51" x="521" y="675"><svg xmlns="http://www.w3.org/2000/svg" xmlns:xlink="http://www.w3.org/1999/xlink" width="2" height="3" viewBox="0.326 0.639 1.119 1.991"><path paint-order="stroke fill markers" fill-rule="evenodd" d="M.885 2.63a.56.56 0 0 1-.56-.56v-.872a.56.56 0 0 1 1.12 0v.873a.56.56 0 0 1-.56.559z"/></svg></svg><svg width="2" height="3" xmlns="http://www.w3.org/2000/svg" xmlns:xlink="http://www.w3.org/1999/xlink" xmlns:svgjs="http://svgjs.com/svgjs" viewBox="0.157 0 1.685 3" fill="#464c51" x="511" y="675"><svg xmlns="http://www.w3.org/2000/svg" xmlns:xlink="http://www.w3.org/1999/xlink" width="2" height="3" viewBox="0.54 0.639 1.119 1.991"><path paint-order="stroke fill markers" fill-rule="evenodd" d="M1.1 2.63a.56.56 0 0 1-.56-.56v-.872a.56.56 0 1 1 1.118 0v.873a.56.56 0 0 1-.559.559z"/></svg></svg></svg><svg width="3" height="2" xmlns="http://www.w3.org/2000/svg" xmlns:xlink="http://www.w3.org/1999/xlink" xmlns:svgjs="http://svgjs.com/svgjs" viewBox="0 0.157 3 1.686" fill="#fd6f71" x="520" y="678"><svg xmlns="http://www.w3.org/2000/svg" xmlns:xlink="http://www.w3.org/1999/xlink" width="3" height="2" viewBox="0.889 0.161 1.991 1.119"><path paint-order="stroke fill markers" fill-rule="evenodd" d="M2.321 1.28H1.45a.56.56 0 0 1 0-1.12h.872a.559.559 0 1 1 0 1.12z"/></svg></svg><svg width="3" height="2" xmlns="http://www.w3.org/2000/svg" xmlns:xlink="http://www.w3.org/1999/xlink" xmlns:svgjs="http://svgjs.com/svgjs" viewBox="0 0.157 3 1.686" fill="#fd6f71" x="511" y="678"><svg xmlns="http://www.w3.org/2000/svg" xmlns:xlink="http://www.w3.org/1999/xlink" width="3" height="2" viewBox="0.103 0.161 1.991 1.119"><path paint-order="stroke fill markers" fill-rule="evenodd" d="M1.535 1.28H.662a.56.56 0 0 1 0-1.12h.873a.56.56 0 1 1 0 1.12z"/></svg></svg><svg width="22" height="22" xmlns="http://www.w3.org/2000/svg" xmlns:xlink="http://www.w3.org/1999/xlink" xmlns:svgjs="http://svgjs.com/svgjs" fill="#945618" x="506" y="667"><svg xmlns="http://www.w3.org/2000/svg" width="22" height="22" viewBox="0.314 0.081 21.356 21.356"><path paint-order="stroke fill markers" fill-rule="evenodd" d="M10.992 21.437c-5.888 0-10.678-4.79-10.678-10.678 0-2.448.806-4.75 2.33-6.658a.56.56 0 0 1 .875.698 9.452 9.452 0 0 0-2.086 5.96c0 5.271 4.288 9.56 9.559 9.56 5.27 0 9.56-4.289 9.56-9.56 0-5.271-4.29-9.56-9.56-9.56A9.58 9.58 0 0 0 4.99 3.32a.56.56 0 0 1-.704-.87A10.703 10.703 0 0 1 10.992.08c5.888 0 10.678 4.79 10.678 10.678 0 5.888-4.79 10.678-10.678 10.678z"/></svg></svg></svg>