<svg width="32" height="39" xmlns="http://www.w3.org/2000/svg" xmlns:xlink="http://www.w3.org/1999/xlink" xmlns:svgjs="http://svgjs.com/svgjs" viewBox="501 504 32 39"><svg width="18" height="23" xmlns="http://www.w3.org/2000/svg" xmlns:xlink="http://www.w3.org/1999/xlink" xmlns:svgjs="http://svgjs.com/svgjs" viewBox="0 0.292 18 22.416" fill="#85cdea" x="515" y="520"><svg xmlns="http://www.w3.org/2000/svg" xmlns:xlink="http://www.w3.org/1999/xlink" width="18" height="23" viewBox="0.844 0.819 17.155 21.364"><path paint-order="stroke fill markers" fill-rule="evenodd" d="M18 17.957l-6.283-1.214-3.368 5.44L.844 5.045 10.495.82l7.504 17.138z"/></svg></svg><svg width="10" height="19" xmlns="http://www.w3.org/2000/svg" xmlns:xlink="http://www.w3.org/1999/xlink" xmlns:svgjs="http://svgjs.com/svgjs" viewBox="0.233 0 9.534 19" fill="#78b7d2" x="515" y="524"><svg xmlns="http://www.w3.org/2000/svg" xmlns:xlink="http://www.w3.org/1999/xlink" width="10" height="19" viewBox="0.844 0.047 9.1 18.136"><path paint-order="stroke fill markers" fill-rule="evenodd" d="M3.123.047l-2.28.998L8.35 18.183l1.595-2.577L3.123.047z"/></svg></svg><svg width="18" height="23" xmlns="http://www.w3.org/2000/svg" xmlns:xlink="http://www.w3.org/1999/xlink" xmlns:svgjs="http://svgjs.com/svgjs" viewBox="0 0.292 18 22.416" fill="#85cdea" x="501" y="520"><svg xmlns="http://www.w3.org/2000/svg" xmlns:xlink="http://www.w3.org/1999/xlink" width="18" height="23" viewBox="0.762 0.819 17.155 21.364"><path paint-order="stroke fill markers" fill-rule="evenodd" d="M.762 17.957l6.282-1.214 3.37 5.44 7.503-17.138L8.267.82.762 17.957z"/></svg></svg><svg width="11" height="18" xmlns="http://www.w3.org/2000/svg" xmlns:xlink="http://www.w3.org/1999/xlink" xmlns:svgjs="http://svgjs.com/svgjs" viewBox="0.358 0 10.283 18" fill="#78b7d2" x="501" y="520"><svg xmlns="http://www.w3.org/2000/svg" xmlns:xlink="http://www.w3.org/1999/xlink" width="11" height="18" viewBox="0.762 0.819 9.791 17.138"><path paint-order="stroke fill markers" fill-rule="evenodd" d="M10.553 1.82L8.267.82.762 17.957l2.977-.575L10.553 1.82z"/></svg></svg><svg width="28" height="28" xmlns="http://www.w3.org/2000/svg" xmlns:xlink="http://www.w3.org/1999/xlink" xmlns:svgjs="http://svgjs.com/svgjs" fill="silver" x="503" y="504"><svg xmlns="http://www.w3.org/2000/svg" xmlns:xlink="http://www.w3.org/1999/xlink" width="28" height="28" viewBox="0.495 0 27.018 27.018"><path paint-order="stroke fill markers" fill-rule="evenodd" d="M27.513 13.51c0 7.46-6.049 13.508-13.509 13.508-7.461 0-13.51-6.048-13.51-13.509C.495 6.05 6.544 0 14.005 0c7.46 0 13.509 6.048 13.509 13.51z"/></svg></svg><svg width="16" height="28" xmlns="http://www.w3.org/2000/svg" xmlns:xlink="http://www.w3.org/1999/xlink" xmlns:svgjs="http://svgjs.com/svgjs" viewBox="0.294 0 15.412 28" fill="#afafaf" x="503" y="504"><svg xmlns="http://www.w3.org/2000/svg" xmlns:xlink="http://www.w3.org/1999/xlink" width="16" height="28" viewBox="0.495 0 14.871 27.018"><path paint-order="stroke fill markers" fill-rule="evenodd" d="M3.22 13.51C3.22 6.507 8.544.75 15.365.067A13.65 13.65 0 0 0 14.004 0C6.543 0 .494 6.048.494 13.51c0 7.46 6.049 13.508 13.51 13.508.46 0 .914-.023 1.362-.068-6.821-.683-12.147-6.44-12.147-13.44z"/></svg></svg><svg width="12" height="5" xmlns="http://www.w3.org/2000/svg" xmlns:xlink="http://www.w3.org/1999/xlink" xmlns:svgjs="http://svgjs.com/svgjs" viewBox="511 515 12 5" x="511" y="515"><svg width="4" height="4" xmlns="http://www.w3.org/2000/svg" xmlns:xlink="http://www.w3.org/1999/xlink" xmlns:svgjs="http://svgjs.com/svgjs" viewBox="0 0.25 4 3.5" fill="#464c51" x="515" y="516"><svg xmlns="http://www.w3.org/2000/svg" xmlns:xlink="http://www.w3.org/1999/xlink" width="4" height="4" viewBox="0.682 0.757 2.643 2.313"><path paint-order="stroke fill markers" fill-rule="evenodd" d="M2.004 3.07c-.73 0-1.322-.592-1.322-1.321V.757h2.643v.992c0 .73-.592 1.321-1.321 1.321z"/></svg></svg><svg width="2" height="3" xmlns="http://www.w3.org/2000/svg" xmlns:xlink="http://www.w3.org/1999/xlink" xmlns:svgjs="http://svgjs.com/svgjs" viewBox="0.157 0 1.685 3" fill="#464c51" x="521" y="515"><svg xmlns="http://www.w3.org/2000/svg" xmlns:xlink="http://www.w3.org/1999/xlink" width="2" height="3" viewBox="0.338 0.389 1.119 1.991"><path paint-order="stroke fill markers" fill-rule="evenodd" d="M.897 2.38a.56.56 0 0 1-.56-.56V.949a.56.56 0 1 1 1.12 0v.873a.56.56 0 0 1-.56.559z"/></svg></svg><svg width="2" height="3" xmlns="http://www.w3.org/2000/svg" xmlns:xlink="http://www.w3.org/1999/xlink" xmlns:svgjs="http://svgjs.com/svgjs" viewBox="0.157 0 1.685 3" fill="#464c51" x="511" y="515"><svg xmlns="http://www.w3.org/2000/svg" xmlns:xlink="http://www.w3.org/1999/xlink" width="2" height="3" viewBox="0.552 0.389 1.119 1.991"><path paint-order="stroke fill markers" fill-rule="evenodd" d="M1.11 2.38a.56.56 0 0 1-.558-.56V.949a.56.56 0 1 1 1.118 0v.873a.56.56 0 0 1-.56.559z"/></svg></svg></svg><svg width="3" height="3" xmlns="http://www.w3.org/2000/svg" xmlns:xlink="http://www.w3.org/1999/xlink" xmlns:svgjs="http://svgjs.com/svgjs" viewBox="0 0.657 3 1.686" fill="#fd6f71" x="520" y="517"><svg xmlns="http://www.w3.org/2000/svg" xmlns:xlink="http://www.w3.org/1999/xlink" width="3" height="3" viewBox="0.901 0.911 1.991 1.119"><path paint-order="stroke fill markers" fill-rule="evenodd" d="M2.333 2.03H1.46a.56.56 0 1 1 0-1.12h.872a.559.559 0 1 1 0 1.12z"/></svg></svg><svg width="3" height="3" xmlns="http://www.w3.org/2000/svg" xmlns:xlink="http://www.w3.org/1999/xlink" xmlns:svgjs="http://svgjs.com/svgjs" viewBox="0 0.658 3 1.685" fill="#fd6f71" x="511" y="517"><svg xmlns="http://www.w3.org/2000/svg" xmlns:xlink="http://www.w3.org/1999/xlink" width="3" height="3" viewBox="0.115 0.911 1.992 1.119"><path paint-order="stroke fill markers" fill-rule="evenodd" d="M1.547 2.03H.674a.56.56 0 0 1 0-1.12h.873a.56.56 0 1 1 0 1.12z"/></svg></svg><svg width="22" height="23" xmlns="http://www.w3.org/2000/svg" xmlns:xlink="http://www.w3.org/1999/xlink" xmlns:svgjs="http://svgjs.com/svgjs" viewBox="0 0.5 22 22" fill="#9e9e9e" x="506" y="506"><svg xmlns="http://www.w3.org/2000/svg" width="22" height="23" viewBox="0.325 0.831 21.356 21.356"><path paint-order="stroke fill markers" fill-rule="evenodd" d="M11.004 22.187c-5.888 0-10.679-4.79-10.679-10.678 0-2.448.806-4.75 2.33-6.658a.56.56 0 0 1 .875.697 9.457 9.457 0 0 0-2.086 5.961c0 5.271 4.288 9.56 9.56 9.56 5.27 0 9.56-4.289 9.56-9.56 0-5.271-4.29-9.56-9.56-9.56-2.18 0-4.311.753-6.003 2.12a.559.559 0 1 1-.703-.87A10.703 10.703 0 0 1 11.004.83c5.888 0 10.678 4.79 10.678 10.678 0 5.888-4.79 10.678-10.678 10.678z"/></svg></svg></svg>