<svg width="201" height="172" xmlns="http://www.w3.org/2000/svg" xmlns:xlink="http://www.w3.org/1999/xlink" xmlns:svgjs="http://svgjs.com/svgjs" viewBox="81 775 201 172"><svg width="55" height="60" xmlns="http://www.w3.org/2000/svg" xmlns:xlink="http://www.w3.org/1999/xlink" xmlns:svgjs="http://svgjs.com/svgjs" viewBox="0.234 0 54.532 60" fill="#6d684f" x="158" y="882"><svg xmlns="http://www.w3.org/2000/svg" xmlns:xlink="http://www.w3.org/1999/xlink" width="55" height="60" viewBox="0.12 0.035 54.065 59.486"><path paint-order="stroke fill markers" fill-rule="evenodd" d="M37.921 56.213c-7.727 2.74-20.279 3.28-28.469 3.307-4.766.016-8.055-.145-8.055-.145C-2.08 51.11 2.645 44.74 2.645 44.74c2.836.425 5.49.751 7.967.994 29.138 2.858 33.603-6.227 34.318-11.062.782-5.245-5.43-23.46-7.35-28.605C35.66.924 36.58.022 38.094.036 42.007.07 50.316 21.812 53.409 33.43c3.093 11.618-3.266 18.446-15.488 22.782z"/></svg></svg><svg width="196" height="9" xmlns="http://www.w3.org/2000/svg" xmlns:xlink="http://www.w3.org/1999/xlink" xmlns:svgjs="http://svgjs.com/svgjs" viewBox="0 0.728 196 7.544" fill="#e29b31" x="82" y="938"><svg xmlns="http://www.w3.org/2000/svg" xmlns:xlink="http://www.w3.org/1999/xlink" width="196" height="9" viewBox="0.143 0.754 195.762 7.534"><path paint-order="stroke fill markers" fill-rule="evenodd" d="M195.905 4.518c0 1.04-.422 1.983-1.102 2.663a3.74 3.74 0 0 1-2.663 1.107H3.907a3.767 3.767 0 0 1-3.764-3.77c0-.54.113-1.055.33-1.524.185-.428.447-.814.772-1.138A3.755 3.755 0 0 1 3.907.754H192.14c1.535 0 2.859.921 3.435 2.24.217.469.33.984.33 1.524z"/></svg></svg><svg width="26" height="22" xmlns="http://www.w3.org/2000/svg" xmlns:xlink="http://www.w3.org/1999/xlink" xmlns:svgjs="http://svgjs.com/svgjs" viewBox="230 837 26 22" x="230" y="837"><svg width="24" height="12" xmlns="http://www.w3.org/2000/svg" xmlns:xlink="http://www.w3.org/1999/xlink" xmlns:svgjs="http://svgjs.com/svgjs" viewBox="0 0.124 24 11.752" fill="#608553" x="231" y="837"><svg xmlns="http://www.w3.org/2000/svg" xmlns:xlink="http://www.w3.org/1999/xlink" width="24" height="12" viewBox="0.616 0.064 22.574 11.054"><path paint-order="stroke fill markers" fill-rule="evenodd" d="M20.727 2.863a2.463 2.463 0 0 0-2.462 2.463c0 .235.043.46.107.68l-1.434.69a2.454 2.454 0 0 0-3.485-.754l-2.41-2.115a2.44 2.44 0 0 0 .375-1.295A2.467 2.467 0 0 0 8.956.064a2.467 2.467 0 0 0-2.462 2.468c0 .556.192 1.06.503 1.477l-2.58 2.58a2.444 2.444 0 0 0-1.338-.401 2.466 2.466 0 0 0 0 4.93A2.468 2.468 0 0 0 5.54 8.65c0-.524-.166-1.012-.45-1.408l2.602-2.607c.37.225.797.359 1.263.359a2.43 2.43 0 0 0 1.445-.482l2.394 2.099c-.263.39-.418.861-.418 1.365a2.466 2.466 0 0 0 4.93 0c0-.134-.021-.268-.042-.396l1.535-.74c.45.573 1.141.948 1.927.948a2.463 2.463 0 0 0 0-4.925zM3.08 10.176a1.523 1.523 0 0 1 0-3.046 1.524 1.524 0 1 1 0 3.046zm5.877-6.119c-.84 0-1.526-.685-1.526-1.525 0-.84.686-1.526 1.526-1.526s1.526.685 1.526 1.526c0 .84-.686 1.525-1.526 1.525zm5.888 5.444a1.525 1.525 0 1 1 0-3.051c.84 0 1.521.685 1.521 1.526 0 .84-.68 1.525-1.52 1.525zm5.883-2.65c-.84 0-1.525-.685-1.525-1.525 0-.84.685-1.526 1.525-1.526.841 0 1.527.686 1.527 1.526s-.686 1.526-1.527 1.526z"/></svg></svg><svg width="26" height="15" xmlns="http://www.w3.org/2000/svg" xmlns:xlink="http://www.w3.org/1999/xlink" xmlns:svgjs="http://svgjs.com/svgjs" viewBox="0 0.618 26 13.764" fill="#608553" x="230" y="844"><svg xmlns="http://www.w3.org/2000/svg" xmlns:xlink="http://www.w3.org/1999/xlink" width="26" height="15" viewBox="0.15 0.815 25.4 13.447"><path paint-order="stroke fill markers" fill-rule="evenodd" d="M25.084 13.32h-1.135V3.78a.471.471 0 0 0-.471-.47h-3.501a.472.472 0 0 0-.471.47v9.54H18.06V6.388a.466.466 0 0 0-.465-.466h-3.5a.467.467 0 0 0-.472.466v6.932h-1.445V1.286a.476.476 0 0 0-.472-.471h-3.5a.476.476 0 0 0-.472.471V13.32H6.29V7.105a.468.468 0 0 0-.472-.471h-3.5a.468.468 0 0 0-.467.471v6.215H.621a.471.471 0 0 0 0 .942h24.463a.467.467 0 0 0 .466-.471.47.47 0 0 0-.466-.471zm-19.731 0H2.788V7.57h2.565v5.75zm5.883 0h-2.56V1.757h2.56V13.32zm5.888 0H14.56V6.859h2.564v6.46zm5.883 0h-2.559V4.246h2.56v9.074z"/></svg></svg></svg><svg width="28" height="26" xmlns="http://www.w3.org/2000/svg" xmlns:xlink="http://www.w3.org/1999/xlink" xmlns:svgjs="http://svgjs.com/svgjs" viewBox="0 0.117 28 25.766" fill="#608553" x="110" y="864"><svg xmlns="http://www.w3.org/2000/svg" xmlns:xlink="http://www.w3.org/1999/xlink" width="28" height="26" viewBox="0.588 0.091 27.099 24.937"><path paint-order="stroke fill markers" fill-rule="evenodd" d="M27.5 14.285l-3.565-6.921c.337-.306.519-.729.519-1.162 0-.241-.059-.487-.176-.717L21.933.94a1.564 1.564 0 0 0-2.11-.675L14.3 3.113l-1.065-2.06a1.41 1.41 0 0 0-1.905-.611L6.51 2.926a1.42 1.42 0 0 0-.61 1.906l1.065 2.06-5.53 2.848a1.566 1.566 0 0 0-.674 2.11l2.344 4.544a1.563 1.563 0 0 0 1.723.814l3.566 6.916a1.663 1.663 0 0 0 2.243.717l16.145-8.318a1.657 1.657 0 0 0 .717-2.238zm-22.906 1.83a.456.456 0 0 1-.498-.23l-2.344-4.55a.451.451 0 0 1 .192-.605l18.393-9.474a.451.451 0 0 1 .606.192l2.344 4.55a.45.45 0 0 1-.102.536l-6.027 5.455-.16-.311a1.12 1.12 0 0 0-1.51-.487l-2.634 1.36a1.121 1.121 0 0 0-.482 1.51l.155.31-7.933 1.745zM6.896 4.319a.3.3 0 0 1 .128-.402l4.818-2.484a.3.3 0 0 1 .402.129l1.06 2.06-5.348 2.757-1.06-2.06zm19.378 11.209l-16.15 8.324a.548.548 0 0 1-.733-.236l-3.426-6.654 7.093-1.563.144.284a1.13 1.13 0 0 0 1.515.482l2.633-1.355c.552-.283.766-.963.483-1.514l-.145-.279 5.39-4.876 3.432 6.653c.134.268.032.6-.236.734zm-9.437-1.713l-2.634 1.36s-.005 0-.005-.006l-.83-1.627 2.64-1.355.829 1.628z"/></svg></svg><svg width="25" height="25" xmlns="http://www.w3.org/2000/svg" xmlns:xlink="http://www.w3.org/1999/xlink" xmlns:svgjs="http://svgjs.com/svgjs" viewBox="209 788 25 25" x="209" y="788"><svg width="1" height="1" xmlns="http://www.w3.org/2000/svg" xmlns:xlink="http://www.w3.org/1999/xlink" xmlns:svgjs="http://svgjs.com/svgjs" fill="#608553" x="210" y="804"><svg xmlns="http://www.w3.org/2000/svg" xmlns:xlink="http://www.w3.org/1999/xlink" width="1" height="1"><path paint-order="stroke fill markers" fill-rule="evenodd" d="M.144.585z"/></svg></svg><svg width="1" height="1" xmlns="http://www.w3.org/2000/svg" xmlns:xlink="http://www.w3.org/1999/xlink" xmlns:svgjs="http://svgjs.com/svgjs" viewBox="0 0.404 1 0.191" fill="#608553" x="226" y="810"><svg xmlns="http://www.w3.org/2000/svg" xmlns:xlink="http://www.w3.org/1999/xlink" width="1" height="1" viewBox="0.085 0.53 0.001 0"><path paint-order="stroke fill markers" fill-rule="evenodd" d="M.086.53H.085z"/></svg></svg><svg width="16" height="21" xmlns="http://www.w3.org/2000/svg" xmlns:xlink="http://www.w3.org/1999/xlink" xmlns:svgjs="http://svgjs.com/svgjs" viewBox="0.5 0 15 21" fill="#608553" x="213" y="792"><svg xmlns="http://www.w3.org/2000/svg" xmlns:xlink="http://www.w3.org/1999/xlink" width="16" height="21" viewBox="0.581 0.5 14.526 20.336"><path paint-order="stroke fill markers" fill-rule="evenodd" d="M14.47 4.584a6.923 6.923 0 0 0-3.907-3.64 6.902 6.902 0 0 0-5.332.193 6.945 6.945 0 0 0-3.64 3.908 6.924 6.924 0 0 0 .204 5.358c.267.573.47 1.499.358 2.05l-.204 1.001a.827.827 0 0 0-.46.46l-.042.124a.788.788 0 0 0 .085.7l-.835 2.25a1.813 1.813 0 0 0 1.065 2.333l.262.102c.028.182.097.37.214.54.209.322.552.579.964.734.246.09.498.139.744.139.155 0 .316-.021.46-.064.204-.054.38-.145.52-.268l.257.096c.209.075.423.113.637.113.257 0 .514-.054.754-.166.44-.198.777-.562.948-1.017l.835-2.232a.782.782 0 0 0 .524-.487l.049-.124a.801.801 0 0 0-.021-.61c-.006-.016-.022-.021-.027-.037l.503-.889c.278-.493 1.044-1.054 1.616-1.317a6.914 6.914 0 0 0 3.662-3.918 6.902 6.902 0 0 0-.193-5.332zM6.537 19.166a.768.768 0 0 1-.985.45l-3.42-1.28a.74.74 0 0 1-.428-.396.751.751 0 0 1-.022-.589l.776-2.082 4.855 1.815-.776 2.082zm7.14-9.614a5.876 5.876 0 0 1-3.109 3.324c-.739.332-1.67 1.006-2.098 1.756l-.477.851-.862-.321c.44-.959 1.836-3.689 4.914-6.943a.575.575 0 0 0-.02-.809.569.569 0 0 0-.809.022.628.628 0 0 0-.06.064 2.043 2.043 0 0 1-.101-.209c-.123-.294-.294-.706-.84-.91-.546-.203-.942-.005-1.232.14-.24.117-.348.165-.53.096-.182-.07-.23-.171-.337-.423-.123-.3-.294-.701-.84-.905-.546-.208-.942-.01-1.237.134-.08.043-.15.07-.208.091v-.085a.578.578 0 0 0-.6-.546.566.566 0 0 0-.546.594c.193 4.459-.54 7.457-.835 8.463l-.857-.316.193-.958c.171-.84-.096-1.965-.438-2.698a5.898 5.898 0 0 1-.172-4.556 5.925 5.925 0 1 1 11.102 4.143zM5.858 6.42c.23-.037.423-.128.579-.209.24-.117.348-.165.53-.096.181.064.23.171.337.418.112.283.294.706.84.91.546.203.958 0 1.231-.134.247-.118.348-.166.53-.096.177.064.23.166.332.417.07.166.16.353.305.53-2.816 3.153-4.084 5.685-4.486 6.6l-1.124-.417c.289-.959.99-3.71.926-7.923z"/></svg></svg><svg width="3" height="5" xmlns="http://www.w3.org/2000/svg" xmlns:xlink="http://www.w3.org/1999/xlink" xmlns:svgjs="http://svgjs.com/svgjs" viewBox="0.049 0 2.903 5" fill="#608553" x="223" y="788"><svg xmlns="http://www.w3.org/2000/svg" xmlns:xlink="http://www.w3.org/1999/xlink" width="3" height="5" viewBox="0.499 0.076 2.291 3.947"><path paint-order="stroke fill markers" fill-rule="evenodd" d="M.924 3.981a.643.643 0 0 0 .5-.018.65.65 0 0 0 .341-.366L2.748.96a.643.643 0 0 0-.017-.5.648.648 0 0 0-.866-.324.65.65 0 0 0-.34.366L.54 3.141a.647.647 0 0 0 .017.499c.073.159.202.28.366.341z"/></svg></svg><svg width="3" height="4" xmlns="http://www.w3.org/2000/svg" xmlns:xlink="http://www.w3.org/1999/xlink" xmlns:svgjs="http://svgjs.com/svgjs" viewBox="0.243 0 2.514 4" fill="#608553" x="215" y="788"><svg xmlns="http://www.w3.org/2000/svg" xmlns:xlink="http://www.w3.org/1999/xlink" width="3" height="4" viewBox="0.32 0.14 2.401 3.82"><path paint-order="stroke fill markers" fill-rule="evenodd" d="M1.468 3.567a.643.643 0 0 0 .6.394.647.647 0 0 0 .607-.415.647.647 0 0 0-.01-.5L1.572.533a.655.655 0 0 0-1.198.52l1.094 2.514z"/></svg></svg><svg width="5" height="4" xmlns="http://www.w3.org/2000/svg" xmlns:xlink="http://www.w3.org/1999/xlink" xmlns:svgjs="http://svgjs.com/svgjs" viewBox="0 0.576 5 2.849" fill="#608553" x="209" y="794"><svg xmlns="http://www.w3.org/2000/svg" xmlns:xlink="http://www.w3.org/1999/xlink" width="5" height="4" viewBox="0.137 0.696 4.165 2.373"><path paint-order="stroke fill markers" fill-rule="evenodd" d="M3.649 3.07a.651.651 0 0 0 .611-.426.647.647 0 0 0-.017-.5.647.647 0 0 0-.366-.341L1.02.737a.654.654 0 0 0-.457 1.224L3.42 3.028a.646.646 0 0 0 .229.042z"/></svg></svg><svg width="5" height="3" xmlns="http://www.w3.org/2000/svg" xmlns:xlink="http://www.w3.org/1999/xlink" xmlns:svgjs="http://svgjs.com/svgjs" viewBox="0.189 0 4.622 3" fill="#608553" x="209" y="802"><svg xmlns="http://www.w3.org/2000/svg" xmlns:xlink="http://www.w3.org/1999/xlink" width="5" height="3" viewBox="0.609 0.442 3.824 2.482"><path paint-order="stroke fill markers" fill-rule="evenodd" d="M4.37.82a.65.65 0 0 0-.867-.315L.987 1.677a.649.649 0 0 0-.315.867.667.667 0 0 0 .358.337h.005a.621.621 0 0 0 .503-.021l2.517-1.172A.652.652 0 0 0 4.37.82z"/></svg></svg><svg width="5" height="3" xmlns="http://www.w3.org/2000/svg" xmlns:xlink="http://www.w3.org/1999/xlink" xmlns:svgjs="http://svgjs.com/svgjs" viewBox="0.223 0 4.554 3" fill="#608553" x="228" y="794"><svg xmlns="http://www.w3.org/2000/svg" xmlns:xlink="http://www.w3.org/1999/xlink" width="5" height="3" viewBox="0.894 0.124 3.78 2.49"><path paint-order="stroke fill markers" fill-rule="evenodd" d="M1.319 2.573a.658.658 0 0 0 .51-.023l2.473-1.183a.65.65 0 0 0 .306-.872.656.656 0 0 0-.871-.307L1.265 1.37a.655.655 0 0 0 .054 1.202z"/></svg></svg><svg width="6" height="3" xmlns="http://www.w3.org/2000/svg" xmlns:xlink="http://www.w3.org/1999/xlink" xmlns:svgjs="http://svgjs.com/svgjs" viewBox="0.368 0 5.264 3" fill="#608553" x="228" y="802"><svg xmlns="http://www.w3.org/2000/svg" xmlns:xlink="http://www.w3.org/1999/xlink" width="6" height="3" viewBox="0.888 0.06 4.165 2.374"><path paint-order="stroke fill markers" fill-rule="evenodd" d="M4.994 1.508a.652.652 0 0 0-.366-.34L1.77.102a.642.642 0 0 0-.5.018.647.647 0 0 0-.34.366.648.648 0 0 0 .384.84l2.857 1.066a.654.654 0 0 0 .842-.384.65.65 0 0 0-.019-.5z"/></svg></svg><svg width="3" height="4" xmlns="http://www.w3.org/2000/svg" xmlns:xlink="http://www.w3.org/1999/xlink" xmlns:svgjs="http://svgjs.com/svgjs" viewBox="0.229 0 2.541 4" fill="#608553" x="224" y="807"><svg xmlns="http://www.w3.org/2000/svg" xmlns:xlink="http://www.w3.org/1999/xlink" width="3" height="4" viewBox="0.416 0.025 2.44 3.841"><path paint-order="stroke fill markers" fill-rule="evenodd" d="M2.801 2.945L1.667.413A.65.65 0 0 0 .804.081a.654.654 0 0 0-.332.862l1.135 2.538c.07.16.204.283.37.342.075.032.15.043.23.043a.641.641 0 0 0 .262-.059.618.618 0 0 0 .343-.364.645.645 0 0 0-.01-.498z"/></svg></svg></svg><svg width="201" height="172" xmlns="http://www.w3.org/2000/svg" xmlns:xlink="http://www.w3.org/1999/xlink" xmlns:svgjs="http://svgjs.com/svgjs" viewBox="81 775 201 172" x="81" y="775"><svg width="73" height="130" xmlns="http://www.w3.org/2000/svg" xmlns:xlink="http://www.w3.org/1999/xlink" xmlns:svgjs="http://svgjs.com/svgjs" viewBox="142 817 73 130" x="142" y="817"><svg width="72" height="74" xmlns="http://www.w3.org/2000/svg" xmlns:xlink="http://www.w3.org/1999/xlink" xmlns:svgjs="http://svgjs.com/svgjs" viewBox="142 873 72 74" x="142" y="873"><svg width="62" height="73" xmlns="http://www.w3.org/2000/svg" xmlns:xlink="http://www.w3.org/1999/xlink" xmlns:svgjs="http://svgjs.com/svgjs" viewBox="0.427 0 61.147 73" fill="#807764" x="152" y="873"><svg xmlns="http://www.w3.org/2000/svg" xmlns:xlink="http://www.w3.org/1999/xlink" width="62" height="73" viewBox="0.772 0.501 60.669 72.429"><path paint-order="stroke fill markers" fill-rule="evenodd" d="M42.983.5S56.876 36.045 61.44 72.93H.772S5.271 35.348 16.584.5h26.399z"/></svg></svg><svg width="71" height="65" xmlns="http://www.w3.org/2000/svg" xmlns:xlink="http://www.w3.org/1999/xlink" xmlns:svgjs="http://svgjs.com/svgjs" viewBox="142 882 71 65" x="142" y="882"><svg width="24" height="21" xmlns="http://www.w3.org/2000/svg" xmlns:xlink="http://www.w3.org/1999/xlink" xmlns:svgjs="http://svgjs.com/svgjs" viewBox="0 0.117 24 20.766" fill="#ffad91" x="142" y="926"><svg xmlns="http://www.w3.org/2000/svg" xmlns:xlink="http://www.w3.org/1999/xlink" width="24" height="21" viewBox="0.622 0.74 22.558 19.519"><path paint-order="stroke fill markers" fill-rule="evenodd" d="M21.247 2.398S13.782-.042 9.813 1C5.843 2.041.336 15.141.633 16.481c.298 1.34 5.1 4.627 7.734 3.573 2.842-1.136 5.465-6.997 5.465-6.997s2.057 1.64 7.033.696c4.975-.944.382-11.355.382-11.355z"/></svg></svg><svg width="55" height="60" xmlns="http://www.w3.org/2000/svg" xmlns:xlink="http://www.w3.org/1999/xlink" xmlns:svgjs="http://svgjs.com/svgjs" viewBox="0.234 0 54.532 60" fill="#6d684f" x="158" y="882"><svg xmlns="http://www.w3.org/2000/svg" xmlns:xlink="http://www.w3.org/1999/xlink" width="55" height="60" viewBox="0.12 0.035 54.065 59.486"><path paint-order="stroke fill markers" fill-rule="evenodd" d="M37.921 56.213c-7.727 2.74-20.279 3.28-28.469 3.307-4.766.016-8.055-.145-8.055-.145C-2.08 51.11 2.645 44.74 2.645 44.74c2.836.425 5.49.751 7.967.994 29.138 2.858 33.603-6.227 34.318-11.062.782-5.245-5.43-23.46-7.35-28.605C35.66.924 36.58.022 38.094.036 42.007.07 50.316 21.812 53.409 33.43c3.093 11.618-3.266 18.446-15.488 22.782z"/></svg></svg><svg width="11" height="16" xmlns="http://www.w3.org/2000/svg" xmlns:xlink="http://www.w3.org/1999/xlink" xmlns:svgjs="http://svgjs.com/svgjs" viewBox="0 0.264 11 15.473" fill="#6a8ead" x="158" y="926"><svg xmlns="http://www.w3.org/2000/svg" xmlns:xlink="http://www.w3.org/1999/xlink" width="11" height="16" viewBox="0.12 0.74 10.508 14.781"><path paint-order="stroke fill markers" fill-rule="evenodd" d="M9.452 15.52c-4.766.016-8.055-.145-8.055-.145C-2.08 7.11 2.645.74 2.645.74c2.836.425 5.49.751 7.967.994l.015.005S7.14 7.61 9.452 15.52z"/></svg></svg></svg></svg><svg width="61" height="61" xmlns="http://www.w3.org/2000/svg" xmlns:xlink="http://www.w3.org/1999/xlink" xmlns:svgjs="http://svgjs.com/svgjs" viewBox="154 817 61 61" x="154" y="817"><svg width="59" height="58" xmlns="http://www.w3.org/2000/svg" xmlns:xlink="http://www.w3.org/1999/xlink" xmlns:svgjs="http://svgjs.com/svgjs" viewBox="0.5 0 58 58" fill="#fcd4b0" x="155" y="820"><svg xmlns="http://www.w3.org/2000/svg" xmlns:xlink="http://www.w3.org/1999/xlink" width="59" height="58" viewBox="0.921 0.07 57.178 57.178"><path paint-order="stroke fill markers" fill-rule="evenodd" d="M29.51 57.248C13.7 57.248.92 44.47.92 28.66.921 12.85 13.701.07 29.51.07c15.81 0 28.589 12.78 28.589 28.59s-12.78 28.59-28.59 28.59z"/></svg></svg><svg width="27" height="21" xmlns="http://www.w3.org/2000/svg" xmlns:xlink="http://www.w3.org/1999/xlink" xmlns:svgjs="http://svgjs.com/svgjs" viewBox="161 847 27 21" x="161" y="847"><svg width="7" height="9" xmlns="http://www.w3.org/2000/svg" xmlns:xlink="http://www.w3.org/1999/xlink" xmlns:svgjs="http://svgjs.com/svgjs" viewBox="180 850 7 9" x="180" y="850"><svg width="7" height="8" xmlns="http://www.w3.org/2000/svg" xmlns:xlink="http://www.w3.org/1999/xlink" xmlns:svgjs="http://svgjs.com/svgjs" viewBox="0.44 0 6.119 8" fill="#5e513d" x="180" y="851"><svg xmlns="http://www.w3.org/2000/svg" xmlns:xlink="http://www.w3.org/1999/xlink" width="7" height="8" viewBox="0.872 0.715 5.282 6.905"><path paint-order="stroke fill markers" fill-rule="evenodd" d="M2.571 7.533a2.325 2.325 0 0 0 2.866-1.612l.63-2.254A2.325 2.325 0 0 0 1.59 2.414L.96 4.668A2.325 2.325 0 0 0 2.57 7.533z"/></svg></svg><svg width="4" height="4" xmlns="http://www.w3.org/2000/svg" xmlns:xlink="http://www.w3.org/1999/xlink" xmlns:svgjs="http://svgjs.com/svgjs" viewBox="0.241 0 3.517 4" fill="#fff" x="180" y="850"><svg xmlns="http://www.w3.org/2000/svg" xmlns:xlink="http://www.w3.org/1999/xlink" width="4" height="4" viewBox="0.802 0.282 3.192 3.631"><path paint-order="stroke fill markers" fill-rule="evenodd" d="M1.906 3.857a1.511 1.511 0 0 0 1.862-1.048l.17-.609a1.511 1.511 0 0 0-2.91-.814l-.17.609a1.511 1.511 0 0 0 1.048 1.862z"/></svg></svg></svg><svg width="8" height="9" xmlns="http://www.w3.org/2000/svg" xmlns:xlink="http://www.w3.org/1999/xlink" xmlns:svgjs="http://svgjs.com/svgjs" viewBox="166 847 8 9" x="166" y="847"><svg width="6" height="8" xmlns="http://www.w3.org/2000/svg" xmlns:xlink="http://www.w3.org/1999/xlink" xmlns:svgjs="http://svgjs.com/svgjs" viewBox="0 0.078 6 7.844" fill="#5e513d" x="166" y="848"><svg xmlns="http://www.w3.org/2000/svg" xmlns:xlink="http://www.w3.org/1999/xlink" width="6" height="8" viewBox="0.554 0.334 5.282 6.905"><path paint-order="stroke fill markers" fill-rule="evenodd" d="M2.253 7.152A2.325 2.325 0 0 1 .64 4.287l.632-2.254A2.324 2.324 0 1 1 5.75 3.286L5.118 5.54a2.325 2.325 0 0 1-2.866 1.612z"/></svg></svg><svg width="4" height="5" xmlns="http://www.w3.org/2000/svg" xmlns:xlink="http://www.w3.org/1999/xlink" xmlns:svgjs="http://svgjs.com/svgjs" viewBox="0 0.225 4 4.55" fill="#fff" x="170" y="847"><svg xmlns="http://www.w3.org/2000/svg" xmlns:xlink="http://www.w3.org/1999/xlink" width="4" height="5" viewBox="0.145 0.925 3.192 3.631"><path paint-order="stroke fill markers" fill-rule="evenodd" d="M1.249 4.5A1.51 1.51 0 0 1 .202 2.638l.17-.609a1.51 1.51 0 1 1 2.91.814l-.171.609A1.51 1.51 0 0 1 1.249 4.5z"/></svg></svg></svg><svg width="6" height="4" xmlns="http://www.w3.org/2000/svg" xmlns:xlink="http://www.w3.org/1999/xlink" xmlns:svgjs="http://svgjs.com/svgjs" viewBox="161 855 6 4" x="161" y="855"><svg width="6" height="4" xmlns="http://www.w3.org/2000/svg" xmlns:xlink="http://www.w3.org/1999/xlink" xmlns:svgjs="http://svgjs.com/svgjs" viewBox="0 0.18 6 3.64" fill="#ff9499" x="161" y="855"><svg xmlns="http://www.w3.org/2000/svg" xmlns:xlink="http://www.w3.org/1999/xlink" width="6" height="4" viewBox="0.963 0.522 5.016 3.043"><path paint-order="stroke fill markers" fill-rule="evenodd" d="M.988 1.411c-.194.764.76 1.666 2.13 2.016 1.372.35 2.641.013 2.836-.75.195-.765-.76-1.667-2.13-2.017C2.451.31 1.181.647.987 1.411z"/></svg></svg></svg><svg width="6" height="4" xmlns="http://www.w3.org/2000/svg" xmlns:xlink="http://www.w3.org/1999/xlink" xmlns:svgjs="http://svgjs.com/svgjs" viewBox="182 860 6 4" x="182" y="860"><svg width="6" height="4" xmlns="http://www.w3.org/2000/svg" xmlns:xlink="http://www.w3.org/1999/xlink" xmlns:svgjs="http://svgjs.com/svgjs" viewBox="0 0.18 6 3.64" fill="#ff9499" x="182" y="860"><svg xmlns="http://www.w3.org/2000/svg" xmlns:xlink="http://www.w3.org/1999/xlink" width="6" height="4" viewBox="0.661 0.751 5.016 3.043"><path paint-order="stroke fill markers" fill-rule="evenodd" d="M.687 1.64c-.195.764.758 1.667 2.13 2.016 1.371.35 2.641.013 2.835-.75.195-.765-.758-1.667-2.13-2.016C2.15.54.881.876.687 1.64z"/></svg></svg></svg><svg width="12" height="6" xmlns="http://www.w3.org/2000/svg" xmlns:xlink="http://www.w3.org/1999/xlink" xmlns:svgjs="http://svgjs.com/svgjs" viewBox="0 0.438 12 5.124" fill="#fcb095" x="167" y="862"><svg xmlns="http://www.w3.org/2000/svg" xmlns:xlink="http://www.w3.org/1999/xlink" width="12" height="6" viewBox="0.081 0.887 11.217 4.789"><path paint-order="stroke fill markers" fill-rule="evenodd" d="M.08 1.977s.04-.033.12-.086c.081-.051.199-.135.358-.215a6.727 6.727 0 0 1 1.385-.543A7.493 7.493 0 0 1 4.055.89c.405.018.78.047 1.237.146.191.05.366.073.575.144.21.073.43.143.632.223l.574.26c.184.095.363.198.543.296.35.208.68.43.984.663.61.463 1.12.955 1.524 1.406a9.957 9.957 0 0 1 .891 1.163c.194.299.282.486.282.486s-.187-.09-.496-.253c-.31-.163-.742-.4-1.253-.68l-.814-.45c-.285-.161-.589-.322-.897-.489-.309-.167-.631-.325-.953-.49-.162-.076-.328-.148-.49-.231L5.9 2.872c-.16-.068-.31-.118-.465-.18-.157-.058-.363-.115-.54-.172L4.827 2.5l-.035-.01c.014.003-.036-.01.029.006h-.004l-.008-.002-.016-.004-.128-.03-.251-.066-.503-.107c-.334-.059-.66-.116-.976-.152a15.946 15.946 0 0 0-.9-.09 20.941 20.941 0 0 0-1.4-.063L.08 1.977z"/></svg></svg></svg><svg width="61" height="57" xmlns="http://www.w3.org/2000/svg" xmlns:xlink="http://www.w3.org/1999/xlink" xmlns:svgjs="http://svgjs.com/svgjs" viewBox="0.003 0 60.993 57" fill="#d46419" x="154" y="817"><svg xmlns="http://www.w3.org/2000/svg" xmlns:xlink="http://www.w3.org/1999/xlink" width="61" height="57" viewBox="0.619 0.571 60.021 56.092"><path paint-order="stroke fill markers" fill-rule="evenodd" d="M45.463 46.102c-.507.536-1.474.127-1.342-.599 1.506-8.337-.369-17.866-4.276-20.067-3.388-1.908-8.184 1.772-19.467-.887C-4.559 18.674 1.192 3.25 1.192 3.25s10.4-1.85 18.256 1.758c0 0-1.043-1.985-.263-4.42 0 0 23.703-1.018 33.26 12.599 0 0 .357-1.548.754-1.725.6-.267 1.923 1.362 2.355 2.44 0 0 1.996-2.432 2.892-2.42 1.085.016-.195 3.49-1.515 3.966 0 0 2.937.208 3.02.737.093.61-2.815 1.693-2.815 1.693s10.398 15.764-4.627 33.578c-11.978 14.2-3.498-4.552-2.467-10.03.169-.898-2.892 2.893-4.579 4.677z"/></svg></svg><svg width="10" height="14" xmlns="http://www.w3.org/2000/svg" xmlns:xlink="http://www.w3.org/1999/xlink" xmlns:svgjs="http://svgjs.com/svgjs" viewBox="199 855 10 14" x="199" y="855"><svg width="10" height="13" xmlns="http://www.w3.org/2000/svg" xmlns:xlink="http://www.w3.org/1999/xlink" xmlns:svgjs="http://svgjs.com/svgjs" viewBox="0.181 0 9.639 13" fill="#fcd4b0" x="199" y="855"><svg xmlns="http://www.w3.org/2000/svg" xmlns:xlink="http://www.w3.org/1999/xlink" width="10" height="13" viewBox="0.357 0.542 9.036 12.187"><path paint-order="stroke fill markers" fill-rule="evenodd" d="M.358 10.559c-.037 1.94 3.563 3.245 6.44.951 3.162-2.522 3.213-7.9 1.343-9.933C6.198-.535 3.238 1.24 3.238 1.24S.49 3.486.358 10.559z"/></svg></svg><svg width="4" height="6" xmlns="http://www.w3.org/2000/svg" xmlns:xlink="http://www.w3.org/1999/xlink" xmlns:svgjs="http://svgjs.com/svgjs" viewBox="0.119 0 3.762 6" fill="#fcb095" x="201" y="859"><svg xmlns="http://www.w3.org/2000/svg" xmlns:xlink="http://www.w3.org/1999/xlink" width="4" height="6" viewBox="0.138 0.385 3.178 5.068"><path paint-order="stroke fill markers" fill-rule="evenodd" d="M.25 1.292C.356.74.474.385.474.385l.083.017s-.033.366-.009.911c.022.386.064.863.166 1.339.036-.05.063-.102.106-.148.183-.17.415-.301.634-.426.87-.528 1.832-.7 1.832-.7l.031.08s-.202.125-.485.34c-.278.22-.653.497-.965.82-.16.158-.277.348-.403.495-.134.14-.27.25-.399.349l-.062.05a7.742 7.742 0 0 0 .77 1.213c.084.083.158.173.227.255l.206.193c.119.11.19.19.19.19l-.023.082s-.099.014-.278.006c-.09-.003-.205-.003-.329-.032a4.091 4.091 0 0 1-.403-.152c-.148-.063-.277-.18-.426-.293-.148-.114-.252-.28-.373-.44A3.52 3.52 0 0 1 .211 3.39a6.059 6.059 0 0 1 .04-2.098z"/></svg></svg><svg width="10" height="14" xmlns="http://www.w3.org/2000/svg" xmlns:xlink="http://www.w3.org/1999/xlink" xmlns:svgjs="http://svgjs.com/svgjs" viewBox="0 0.236 10 13.528" fill="#fcb095" x="199" y="855"><svg xmlns="http://www.w3.org/2000/svg" xmlns:xlink="http://www.w3.org/1999/xlink" width="10" height="14" viewBox="0.296 0.366 9.531 12.894"><path paint-order="stroke fill markers" fill-rule="evenodd" d="M3.27 1.294s.323-.184.941-.368C4.814.755 5.776.55 6.763.932c.483.186.944.541 1.285 1.013.21.271.313.511.446.796.124.29.216.6.294.923.285 1.296.211 2.77-.21 4.111a6.99 6.99 0 0 1-.905 1.853c-.372.55-.875 1.026-1.316 1.381l-.422.306c-.139.096-.25.147-.373.227-.114.08-.25.136-.382.197a2.4 2.4 0 0 1-.392.169 4.13 4.13 0 0 1-1.545.266c-.987-.033-1.782-.45-2.229-.857a2.606 2.606 0 0 1-.46-.549c-.089-.147-.135-.226-.135-.226l-.123.034.052.278c.036.182.134.442.318.746.186.302.47.649.89.933.412.288.945.54 1.57.655.623.12 1.33.09 2.029-.102a4.57 4.57 0 0 0 1.043-.404c.167-.092.364-.19.507-.29l.425-.302c.63-.54 1.16-1.108 1.552-1.823.386-.7.702-1.443.88-2.218.374-1.541.35-3.15-.059-4.573a6.574 6.574 0 0 0-.399-1.019c-.163-.318-.375-.666-.585-.883A3.435 3.435 0 0 0 6.907.509C5.729.176 4.75.498 4.142.722c-.62.243-.936.462-.936.462l.064.11z"/></svg></svg></svg><svg width="9" height="22" xmlns="http://www.w3.org/2000/svg" xmlns:xlink="http://www.w3.org/1999/xlink" xmlns:svgjs="http://svgjs.com/svgjs" viewBox="0.651 0 7.698 22" fill="#d46419" x="155" y="834"><svg xmlns="http://www.w3.org/2000/svg" xmlns:xlink="http://www.w3.org/1999/xlink" width="9" height="22" viewBox="0.893 0.3 7.408 21.173"><path paint-order="stroke fill markers" fill-rule="evenodd" d="M2.612 20.958c.423-5.173 1.754-15.608 5.69-17.583L4.693.3s-5.64 8.34-3.178 20.755c.122.614 1.046.527 1.097-.097z"/></svg></svg></svg><svg width="28" height="69" xmlns="http://www.w3.org/2000/svg" xmlns:xlink="http://www.w3.org/1999/xlink" xmlns:svgjs="http://svgjs.com/svgjs" viewBox="147 864 28 69" x="147" y="864"><svg width="16" height="26" xmlns="http://www.w3.org/2000/svg" xmlns:xlink="http://www.w3.org/1999/xlink" xmlns:svgjs="http://svgjs.com/svgjs" viewBox="159 864 16 26" x="159" y="864"><svg width="16" height="26" xmlns="http://www.w3.org/2000/svg" xmlns:xlink="http://www.w3.org/1999/xlink" xmlns:svgjs="http://svgjs.com/svgjs" viewBox="0.526 0 14.948 26" fill="#fcd4b0" x="159" y="864"><svg xmlns="http://www.w3.org/2000/svg" xmlns:xlink="http://www.w3.org/1999/xlink" width="16" height="26" viewBox="0.944 0.768 14.354 24.968"><path paint-order="stroke fill markers" fill-rule="evenodd" d="M14.737 20.43c-1.167 4.401-4.1 6.354-9.432 4.75-5.327-1.603-4.839-7.01-3.398-9.482 1.441-2.474 7.543-12.096 8.451-13.74.91-1.643 1.834-1.69 2.327.529.492 2.219-2.569 8.887-2.569 8.887s.02.008.06.028c3.29 1.592 4.692 2.942 5.033 4.716.23 1.183-.008 2.557-.472 4.311z"/></svg></svg><svg width="8" height="6" xmlns="http://www.w3.org/2000/svg" xmlns:xlink="http://www.w3.org/1999/xlink" xmlns:svgjs="http://svgjs.com/svgjs" viewBox="0 0.089 8 5.822" fill="#fcb095" x="167" y="875"><svg xmlns="http://www.w3.org/2000/svg" xmlns:xlink="http://www.w3.org/1999/xlink" width="8" height="6" viewBox="0.691 0.374 6.518 4.744"><path paint-order="stroke fill markers" fill-rule="evenodd" d="M7.21 5.118C5.59 2.304.69 2.737.69 2.737L2.116.374s.02.008.06.028c3.29 1.592 4.692 2.942 5.033 4.716z"/></svg></svg><svg width="3" height="9" xmlns="http://www.w3.org/2000/svg" xmlns:xlink="http://www.w3.org/1999/xlink" xmlns:svgjs="http://svgjs.com/svgjs" viewBox="0 0.159 3 8.683" fill="#fcb095" x="170" y="865"><svg xmlns="http://www.w3.org/2000/svg" xmlns:xlink="http://www.w3.org/1999/xlink" width="3" height="9" viewBox="0.016 0.631 2.856 8.267"><path paint-order="stroke fill markers" fill-rule="evenodd" d="M1.238 8.898a27.1 27.1 0 0 1-1.222-.623C.877 6.123 2.004 2.9 1.69 1.487a5.994 5.994 0 0 0-.226-.79c.551-.258 1.04.238 1.354 1.651.301 1.361-.739 4.406-1.58 6.55z"/></svg></svg></svg><svg width="27" height="51" xmlns="http://www.w3.org/2000/svg" xmlns:xlink="http://www.w3.org/1999/xlink" xmlns:svgjs="http://svgjs.com/svgjs" viewBox="147 882 27 51" x="147" y="882"><svg width="27" height="51" xmlns="http://www.w3.org/2000/svg" xmlns:xlink="http://www.w3.org/1999/xlink" xmlns:svgjs="http://svgjs.com/svgjs" viewBox="0.328 0 26.343 51" fill="#6d684f" x="147" y="882"><svg xmlns="http://www.w3.org/2000/svg" xmlns:xlink="http://www.w3.org/1999/xlink" width="27" height="51" viewBox="0.555 0.036 26.19 50.704"><path paint-order="stroke fill markers" fill-rule="evenodd" d="M26.745 5.295c-1.425 2.676-2.703 5.455-3.858 8.265v.004C15.182 32.27 12.697 52.26 5.774 50.648c-4.395-1.02-6.396-9.956-4.51-20.475C2.38 23.94 4.253 16.569 6.909 11.73a106.953 106.953 0 0 1 2.878-4.934c.218-.35.353-.56.38-.6.004-.004.004-.008.004-.008C11.561 1.326 12.15.036 12.15.036c10.61.198 14.596 5.26 14.596 5.26z"/></svg></svg><svg width="10" height="33" xmlns="http://www.w3.org/2000/svg" xmlns:xlink="http://www.w3.org/1999/xlink" xmlns:svgjs="http://svgjs.com/svgjs" viewBox="0.394 0 9.212 33" fill="#364a66" x="148" y="888"><svg xmlns="http://www.w3.org/2000/svg" xmlns:xlink="http://www.w3.org/1999/xlink" width="10" height="33" viewBox="0.264 0.196 8.904 31.896"><path paint-order="stroke fill markers" fill-rule="evenodd" d="M9.168.196c-.02.064-.131.425-.314 1.04-.984 3.347-4.001 14.112-4.99 24.06-.575 5.768-1.587 7.816-3.6 6.328 0 0 1.009-.052 1.302-.596 1.354-2.505-.148-12.092 2.666-21.683C5.562 5.917 7.85 2.348 8.792.812c.146-.247.26-.43.32-.528.028-.048.048-.076.056-.088z"/></svg></svg><svg width="18" height="14" xmlns="http://www.w3.org/2000/svg" xmlns:xlink="http://www.w3.org/1999/xlink" xmlns:svgjs="http://svgjs.com/svgjs" viewBox="0.258 0 17.485 14" fill="#5e513d" x="156" y="882"><svg xmlns="http://www.w3.org/2000/svg" xmlns:xlink="http://www.w3.org/1999/xlink" width="18" height="14" viewBox="0.854 0.036 16.891 13.524"><path paint-order="stroke fill markers" fill-rule="evenodd" d="M17.745 5.295c-1.425 2.676-2.703 5.455-3.858 8.265C10.85 8.268.854 7.236.854 7.236c.183-.615.294-.976.314-1.04.003-.004.003-.008.003-.008C2.561 1.326 3.15.036 3.15.036c10.61.198 14.596 5.26 14.596 5.26z"/></svg></svg></svg></svg></svg><svg width="196" height="53" xmlns="http://www.w3.org/2000/svg" xmlns:xlink="http://www.w3.org/1999/xlink" xmlns:svgjs="http://svgjs.com/svgjs" viewBox="82 894 196 53" x="82" y="894"><svg width="73" height="45" xmlns="http://www.w3.org/2000/svg" xmlns:xlink="http://www.w3.org/1999/xlink" xmlns:svgjs="http://svgjs.com/svgjs" viewBox="143 894 73 45" x="143" y="894"><svg width="73" height="45" xmlns="http://www.w3.org/2000/svg" xmlns:xlink="http://www.w3.org/1999/xlink" xmlns:svgjs="http://svgjs.com/svgjs" viewBox="143 894 73 45" x="143" y="894"><svg width="73" height="45" xmlns="http://www.w3.org/2000/svg" xmlns:xlink="http://www.w3.org/1999/xlink" xmlns:svgjs="http://svgjs.com/svgjs" viewBox="0 0.041 73 44.917" fill="#34cacf" x="143" y="894"><svg xmlns="http://www.w3.org/2000/svg" xmlns:xlink="http://www.w3.org/1999/xlink" width="73" height="45" viewBox="0.671 0.642 71.696 44.115"><path paint-order="stroke fill markers" fill-rule="evenodd" d="M8.77.642h55.5a8.09 8.09 0 0 1 8.097 8.097v36.018H.671V8.74A8.091 8.091 0 0 1 8.77.642z"/></svg></svg><svg width="73" height="45" xmlns="http://www.w3.org/2000/svg" xmlns:xlink="http://www.w3.org/1999/xlink" xmlns:svgjs="http://svgjs.com/svgjs" viewBox="0 0.04 73 44.919" fill="#00b7c1" x="143" y="894"><svg xmlns="http://www.w3.org/2000/svg" xmlns:xlink="http://www.w3.org/1999/xlink" width="73" height="45" viewBox="0.673 0.644 71.693 44.115"><path paint-order="stroke fill markers" fill-rule="evenodd" d="M72.366 5.099v39.66H.673v-9.821h58.545a5.963 5.963 0 0 0 5.964-5.959V1.241c0-.2-.006-.402-.022-.597h2.75a4.453 4.453 0 0 1 4.456 4.455z"/></svg></svg></svg><svg width="73" height="4" xmlns="http://www.w3.org/2000/svg" xmlns:xlink="http://www.w3.org/1999/xlink" xmlns:svgjs="http://svgjs.com/svgjs" viewBox="143 935 73 4" x="143" y="935"><svg width="73" height="4" xmlns="http://www.w3.org/2000/svg" xmlns:xlink="http://www.w3.org/1999/xlink" xmlns:svgjs="http://svgjs.com/svgjs" viewBox="0 0.311 73 3.378" fill="#008895" x="143" y="935"><svg xmlns="http://www.w3.org/2000/svg" xmlns:xlink="http://www.w3.org/1999/xlink" width="73" height="4" viewBox="0.671 0.439 71.696 3.317"><path paint-order="stroke fill markers" fill-rule="evenodd" d="M.671.44h71.696v3.317H.671V.439z"/></svg></svg></svg><svg width="11" height="16" xmlns="http://www.w3.org/2000/svg" xmlns:xlink="http://www.w3.org/1999/xlink" xmlns:svgjs="http://svgjs.com/svgjs" viewBox="0.172 0 10.657 16" fill="#fff" x="174" y="909"><svg xmlns="http://www.w3.org/2000/svg" xmlns:xlink="http://www.w3.org/1999/xlink" width="11" height="16" viewBox="0.798 0.836 9.443 14.178"><path paint-order="stroke fill markers" fill-rule="evenodd" d="M9.469 10.301a2.727 2.727 0 0 1-.387.014c-1.424-.047-2.614-1.265-2.631-2.691A2.704 2.704 0 0 1 7.927 5.18a.686.686 0 0 0-.028-1.241 2.344 2.344 0 0 0-.964-.207H6.45l.48-2.48c.044-.223-.263-.417-.657-.417H5.52h-.754c-.394 0-.701.194-.658.417l.481 2.48h-.485c-.894 0-1.712.503-2.114 1.3l-.937 1.858a2.358 2.358 0 0 0-.254 1.066v4.476c0 .739.344 1.436.933 1.884l.279.212c.412.315.916.485 1.435.485h4.148c.518 0 1.023-.17 1.436-.485l.278-.212a2.368 2.368 0 0 0 .934-1.884v-1.458a.685.685 0 0 0-.772-.674z"/></svg></svg><svg width="73" height="3" xmlns="http://www.w3.org/2000/svg" xmlns:xlink="http://www.w3.org/1999/xlink" xmlns:svgjs="http://svgjs.com/svgjs" viewBox="143 933 73 3" x="143" y="933"><svg width="73" height="3" xmlns="http://www.w3.org/2000/svg" xmlns:xlink="http://www.w3.org/1999/xlink" xmlns:svgjs="http://svgjs.com/svgjs" viewBox="0 0.575 73 1.851" fill="#009ca4" x="143" y="933"><svg xmlns="http://www.w3.org/2000/svg" xmlns:xlink="http://www.w3.org/1999/xlink" width="73" height="3" viewBox="0.671 0.622 71.696 1.818"><path paint-order="stroke fill markers" fill-rule="evenodd" d="M.671.622h71.696v1.817H.671V.622z"/></svg></svg></svg><svg width="15" height="3" xmlns="http://www.w3.org/2000/svg" xmlns:xlink="http://www.w3.org/1999/xlink" xmlns:svgjs="http://svgjs.com/svgjs" viewBox="195 899 15 3" x="195" y="899"><svg width="15" height="3" xmlns="http://www.w3.org/2000/svg" xmlns:xlink="http://www.w3.org/1999/xlink" xmlns:svgjs="http://svgjs.com/svgjs" viewBox="0 0.37 15 2.26" fill="#fff" x="195" y="899"><svg xmlns="http://www.w3.org/2000/svg" xmlns:xlink="http://www.w3.org/1999/xlink" width="15" height="3" viewBox="0.773 0.694 14.089 2.123"><path paint-order="stroke fill markers" fill-rule="evenodd" d="M1.836 2.817H13.8a1.062 1.062 0 0 0 0-2.123H1.836c-.586 0-1.063.475-1.063 1.06 0 .588.477 1.063 1.063 1.063z"/></svg></svg></svg><svg width="12" height="2" xmlns="http://www.w3.org/2000/svg" xmlns:xlink="http://www.w3.org/1999/xlink" xmlns:svgjs="http://svgjs.com/svgjs" viewBox="149 936 12 2" x="149" y="936"><svg width="12" height="2" xmlns="http://www.w3.org/2000/svg" xmlns:xlink="http://www.w3.org/1999/xlink" xmlns:svgjs="http://svgjs.com/svgjs" viewBox="0 0.387 12 1.227" fill="#007277" x="149" y="936"><svg xmlns="http://www.w3.org/2000/svg" xmlns:xlink="http://www.w3.org/1999/xlink" width="12" height="2" viewBox="0.838 0.557 10.6 1.083"><path paint-order="stroke fill markers" fill-rule="evenodd" d="M10.895 1.64H1.38a.542.542 0 0 1 0-1.083h9.515a.542.542 0 0 1 0 1.083z"/></svg></svg></svg><svg width="7" height="2" xmlns="http://www.w3.org/2000/svg" xmlns:xlink="http://www.w3.org/1999/xlink" xmlns:svgjs="http://svgjs.com/svgjs" viewBox="168 936 7 2" x="168" y="936"><svg width="7" height="2" xmlns="http://www.w3.org/2000/svg" xmlns:xlink="http://www.w3.org/1999/xlink" xmlns:svgjs="http://svgjs.com/svgjs" viewBox="0 0.284 7 1.431" fill="#007277" x="168" y="936"><svg xmlns="http://www.w3.org/2000/svg" xmlns:xlink="http://www.w3.org/1999/xlink" width="7" height="2" viewBox="0.942 0.557 5.299 1.083"><path paint-order="stroke fill markers" fill-rule="evenodd" d="M5.7 1.64H1.483a.542.542 0 1 1 0-1.083h4.215a.542.542 0 0 1 0 1.083z"/></svg></svg></svg><svg width="9" height="2" xmlns="http://www.w3.org/2000/svg" xmlns:xlink="http://www.w3.org/1999/xlink" xmlns:svgjs="http://svgjs.com/svgjs" viewBox="204 936 9 2" x="204" y="936"><svg width="9" height="2" xmlns="http://www.w3.org/2000/svg" xmlns:xlink="http://www.w3.org/1999/xlink" xmlns:svgjs="http://svgjs.com/svgjs" viewBox="0 0.393 9 1.215" fill="#007277" x="204" y="936"><svg xmlns="http://www.w3.org/2000/svg" xmlns:xlink="http://www.w3.org/1999/xlink" width="9" height="2" viewBox="0.074 0.557 8.028 1.083"><path paint-order="stroke fill markers" fill-rule="evenodd" d="M7.56 1.64H.616a.542.542 0 0 1 0-1.083H7.56a.542.542 0 0 1 0 1.083z"/></svg></svg></svg></svg><svg width="196" height="9" xmlns="http://www.w3.org/2000/svg" xmlns:xlink="http://www.w3.org/1999/xlink" xmlns:svgjs="http://svgjs.com/svgjs" viewBox="82 938 196 9" x="82" y="938"><svg width="196" height="9" xmlns="http://www.w3.org/2000/svg" xmlns:xlink="http://www.w3.org/1999/xlink" xmlns:svgjs="http://svgjs.com/svgjs" viewBox="0 0.728 196 7.544" fill="#e29b31" x="82" y="938"><svg xmlns="http://www.w3.org/2000/svg" xmlns:xlink="http://www.w3.org/1999/xlink" width="196" height="9" viewBox="0.143 0.754 195.762 7.534"><path paint-order="stroke fill markers" fill-rule="evenodd" d="M195.905 4.518c0 1.04-.422 1.983-1.102 2.663a3.74 3.74 0 0 1-2.663 1.107H3.907a3.767 3.767 0 0 1-3.764-3.77c0-.54.113-1.055.33-1.524.185-.428.447-.814.772-1.138A3.755 3.755 0 0 1 3.907.754H192.14c1.535 0 2.859.921 3.435 2.24.217.469.33.984.33 1.524z"/></svg></svg><svg width="196" height="6" xmlns="http://www.w3.org/2000/svg" xmlns:xlink="http://www.w3.org/1999/xlink" xmlns:svgjs="http://svgjs.com/svgjs" viewBox="0 0.755 196 4.491" fill="#f9bd35" x="82" y="938"><svg xmlns="http://www.w3.org/2000/svg" xmlns:xlink="http://www.w3.org/1999/xlink" width="196" height="6" viewBox="0.472 0.754 195.103 4.47"><path paint-order="stroke fill markers" fill-rule="evenodd" d="M195.575 2.994a3.757 3.757 0 0 1-3.435 2.23H3.907a3.754 3.754 0 0 1-3.435-2.23c.186-.428.448-.814.773-1.138A3.755 3.755 0 0 1 3.907.754H192.14c1.535 0 2.859.921 3.435 2.24z"/></svg></svg></svg></svg><svg width="190" height="110" xmlns="http://www.w3.org/2000/svg" xmlns:xlink="http://www.w3.org/1999/xlink" xmlns:svgjs="http://svgjs.com/svgjs" viewBox="92 785 190 110" x="92" y="785"><svg width="28" height="25" xmlns="http://www.w3.org/2000/svg" xmlns:xlink="http://www.w3.org/1999/xlink" xmlns:svgjs="http://svgjs.com/svgjs" viewBox="92 833 28 25" x="92" y="833"><svg width="28" height="25" xmlns="http://www.w3.org/2000/svg" xmlns:xlink="http://www.w3.org/1999/xlink" xmlns:svgjs="http://svgjs.com/svgjs" viewBox="0 0.085 28 24.831" fill="#608553" x="92" y="833"><svg xmlns="http://www.w3.org/2000/svg" xmlns:xlink="http://www.w3.org/1999/xlink" width="28" height="25" viewBox="0.447 0.552 27.291 24.202"><path paint-order="stroke fill markers" fill-rule="evenodd" d="M25.988 9.835c.118-.675.017-1.28-.304-1.815-.45-.755-1.232-1.145-1.687-1.317-.032-.75-.284-1.37-.75-1.852-.684-.706-1.648-.883-2.13-.931-.91-1.537-2.703-1.74-3.753-1.612-1.118-1.118-2.606-1.049-3.452-.797-2.11-1.66-4.491-.824-5.621-.038-1.263-.192-2.296.016-3.078.621C4.4 2.721 4.08 3.62 3.955 4.15c-1.22.027-2.002.487-2.446.894A3.256 3.256 0 0 0 .45 7.34c-.043 1.114.675 2.195.953 2.575 0 1.114.337 2.024 1.007 2.703.883.9 2.103 1.146 2.745 1.216.145.926.723 3.072 3.078 3.864 1.639.552 2.907.332 3.56.129.487 1.199 1.841 4.56 2.146 5.38.386 1.022 1.029 1.333 1.28 1.418.091.049.193.086.3.108.316.064.674-.017 1.012-.23.513-.333.984-1.034.856-1.837-.07-.444.118-1.012.31-1.44.766.557 1.965.792 2.886.295.899-.487 1.145-1.398 1.199-2.035.696.166 1.831.252 2.907-.444 1.317-.851 1.284-2.425 1.172-3.201.578-.235 1.51-.846 1.82-2.409.364-1.825-1.065-3.126-1.692-3.597zm.771 3.415c-.289 1.478-1.295 1.75-1.477 1.793-2.345-.016-2.762-1.643-2.832-2.242.637-.664.851-1.564.862-1.622a.465.465 0 0 0-.354-.563.476.476 0 0 0-.562.354c0 .016-.336 1.37-1.3 1.568-1.039.214-2.035-.658-2.045-.664a.466.466 0 0 0-.658.038.474.474 0 0 0 .036.664c.038.032.772.68 1.768.878.336.064.706.08 1.086.005.117-.027.225-.059.332-.102.225.851.862 2.168 2.682 2.532.193.038.407.059.631.075.08.568.129 1.718-.749 2.291-1.135.728-2.372.284-2.629.182-1.29-.995-.53-2.559-.498-2.623a.471.471 0 0 0-.83-.444c-.015.032-.449.739-1.905.53-1.493-.22-1.863-1.215-1.878-1.269a.466.466 0 0 0-.59-.3.465.465 0 0 0-.305.59c.022.063.536 1.605 2.64 1.905.712.102 1.263.032 1.68-.113-.042.777.177 1.665.991 2.361.016.364-.027 1.242-.723 1.622-.669.364-1.6.059-2.034-.353a5.207 5.207 0 0 0 .16-1.73.47.47 0 1 0-.936.103c.005.005.075.803-.177 1.541-.182.295-.851 1.494-.685 2.554.058.39-.177.733-.439.899-.172.112-.31.118-.353.091a.532.532 0 0 0-.15-.064c-.016-.006-.429-.129-.696-.862-.375-1.007-2.254-5.632-2.328-5.824a.471.471 0 0 0-.348-.284.467.467 0 0 0-.305.043c-.054.027-1.34.664-3.309 0-1.916-.648-2.355-2.388-2.451-3.11.487-.236 1.3-.803 1.793-2.115a2.85 2.85 0 0 0 .02-1.986c.745.225 1.64.375 2.351.113 1.59-.573 1.638-1.933 1.638-1.992a.462.462 0 0 0-.455-.47.474.474 0 0 0-.487.449c0 .075-.064.787-1.017 1.135-.873.316-2.505-.37-3.057-.659a.467.467 0 0 0-.61.161.465.465 0 0 0 .097.621c.015.01 1.15.932.636 2.296-.476 1.275-1.284 1.601-1.472 1.665-.284-.01-1.606-.107-2.44-.963-.51-.52-.755-1.242-.734-2.152.038-.155.236-.851 1.006-1.135a.477.477 0 0 0 .279-.605.479.479 0 0 0-.605-.278 2.51 2.51 0 0 0-1.237.99c-.219-.412-.417-.926-.401-1.397.022-.632.3-1.231.75-1.638.523-.477 1.278-.696 2.183-.643a.467.467 0 0 0 .498-.433c0-.011.096-1.151.969-1.826.605-.47 1.456-.604 2.537-.412a.454.454 0 0 0 .37-.086c.107-.08 2.548-1.932 4.812.054.134.118.326.15.487.086.07-.032 1.713-.685 2.843.637a.45.45 0 0 0 .45.155c.09-.016 2.274-.428 3.12 1.306a.46.46 0 0 0 .428.262c.012 0 1.103.006 1.74.664.354.364.514.873.488 1.52a.466.466 0 0 0 .358.477c.01 0 1.012.257 1.462 1.001.235.396.278.862.128 1.418a.48.48 0 0 0 .208.52c.022.01 1.868 1.183 1.542 2.81z"/></svg></svg><svg width="11" height="9" xmlns="http://www.w3.org/2000/svg" xmlns:xlink="http://www.w3.org/1999/xlink" xmlns:svgjs="http://svgjs.com/svgjs" viewBox="0.1 0 10.8 9" fill="#608553" x="102" y="838"><svg xmlns="http://www.w3.org/2000/svg" xmlns:xlink="http://www.w3.org/1999/xlink" width="11" height="9" viewBox="0.924 0.701 9.287 7.739"><path paint-order="stroke fill markers" fill-rule="evenodd" d="M10.059 1.912c-1.247-1.143-2.517-.868-3.3-.397a3.012 3.012 0 0 0-.618-.71.47.47 0 1 0-.59.73c.01.009 1.016.836.577 1.813-.263.587-1.252.721-1.61.723a.47.47 0 0 0-.442.625c.004.012.415 1.246-.107 2.037-.801 1.216-2.338.634-2.403.608a.47.47 0 0 0-.346.873c.15.06.336.116.544.157.89.176 2.196.083 2.989-1.121.504-.766.455-1.707.35-2.297.606-.104 1.512-.396 1.882-1.222.21-.47.229-.924.143-1.334.39-.272 1.3-.707 2.297.207a.469.469 0 1 0 .634-.692z"/></svg></svg></svg><svg width="26" height="22" xmlns="http://www.w3.org/2000/svg" xmlns:xlink="http://www.w3.org/1999/xlink" xmlns:svgjs="http://svgjs.com/svgjs" viewBox="230 837 26 22" x="230" y="837"><svg width="24" height="12" xmlns="http://www.w3.org/2000/svg" xmlns:xlink="http://www.w3.org/1999/xlink" xmlns:svgjs="http://svgjs.com/svgjs" viewBox="0 0.124 24 11.752" fill="#608553" x="231" y="837"><svg xmlns="http://www.w3.org/2000/svg" xmlns:xlink="http://www.w3.org/1999/xlink" width="24" height="12" viewBox="0.616 0.064 22.574 11.054"><path paint-order="stroke fill markers" fill-rule="evenodd" d="M20.727 2.863a2.463 2.463 0 0 0-2.462 2.463c0 .235.043.46.107.68l-1.434.69a2.454 2.454 0 0 0-3.485-.754l-2.41-2.115a2.44 2.44 0 0 0 .375-1.295A2.467 2.467 0 0 0 8.956.064a2.467 2.467 0 0 0-2.462 2.468c0 .556.192 1.06.503 1.477l-2.58 2.58a2.444 2.444 0 0 0-1.338-.401 2.466 2.466 0 0 0 0 4.93A2.468 2.468 0 0 0 5.54 8.65c0-.524-.166-1.012-.45-1.408l2.602-2.607c.37.225.797.359 1.263.359a2.43 2.43 0 0 0 1.445-.482l2.394 2.099c-.263.39-.418.861-.418 1.365a2.466 2.466 0 0 0 4.93 0c0-.134-.021-.268-.042-.396l1.535-.74c.45.573 1.141.948 1.927.948a2.463 2.463 0 0 0 0-4.925zM3.08 10.176a1.523 1.523 0 0 1 0-3.046 1.524 1.524 0 1 1 0 3.046zm5.877-6.119c-.84 0-1.526-.685-1.526-1.525 0-.84.686-1.526 1.526-1.526s1.526.685 1.526 1.526c0 .84-.686 1.525-1.526 1.525zm5.888 5.444a1.525 1.525 0 1 1 0-3.051c.84 0 1.521.685 1.521 1.526 0 .84-.68 1.525-1.52 1.525zm5.883-2.65c-.84 0-1.525-.685-1.525-1.525 0-.84.685-1.526 1.525-1.526.841 0 1.527.686 1.527 1.526s-.686 1.526-1.527 1.526z"/></svg></svg><svg width="26" height="15" xmlns="http://www.w3.org/2000/svg" xmlns:xlink="http://www.w3.org/1999/xlink" xmlns:svgjs="http://svgjs.com/svgjs" viewBox="0 0.618 26 13.764" fill="#608553" x="230" y="844"><svg xmlns="http://www.w3.org/2000/svg" xmlns:xlink="http://www.w3.org/1999/xlink" width="26" height="15" viewBox="0.15 0.815 25.4 13.447"><path paint-order="stroke fill markers" fill-rule="evenodd" d="M25.084 13.32h-1.135V3.78a.471.471 0 0 0-.471-.47h-3.501a.472.472 0 0 0-.471.47v9.54H18.06V6.388a.466.466 0 0 0-.465-.466h-3.5a.467.467 0 0 0-.472.466v6.932h-1.445V1.286a.476.476 0 0 0-.472-.471h-3.5a.476.476 0 0 0-.472.471V13.32H6.29V7.105a.468.468 0 0 0-.472-.471h-3.5a.468.468 0 0 0-.467.471v6.215H.621a.471.471 0 0 0 0 .942h24.463a.467.467 0 0 0 .466-.471.47.47 0 0 0-.466-.471zm-19.731 0H2.788V7.57h2.565v5.75zm5.883 0h-2.56V1.757h2.56V13.32zm5.888 0H14.56V6.859h2.564v6.46zm5.883 0h-2.559V4.246h2.56v9.074z"/></svg></svg></svg><svg width="26" height="26" xmlns="http://www.w3.org/2000/svg" xmlns:xlink="http://www.w3.org/1999/xlink" xmlns:svgjs="http://svgjs.com/svgjs" viewBox="256 869 26 26" x="256" y="869"><svg width="17" height="17" xmlns="http://www.w3.org/2000/svg" xmlns:xlink="http://www.w3.org/1999/xlink" xmlns:svgjs="http://svgjs.com/svgjs" fill="#608553" x="263" y="872"><svg xmlns="http://www.w3.org/2000/svg" xmlns:xlink="http://www.w3.org/1999/xlink" width="17" height="17" viewBox="0.122 0.065 16.23 16.23"><path paint-order="stroke fill markers" fill-rule="evenodd" d="M8.237.065C3.76.065.122 3.705.122 8.181c0 4.475 3.64 8.115 8.115 8.115s8.115-3.64 8.115-8.115c0-4.476-3.64-8.116-8.115-8.116zm0 15.289A7.18 7.18 0 0 1 1.063 8.18c0-3.956 3.217-7.179 7.174-7.179 3.96 0 7.178 3.223 7.178 7.179 0 3.955-3.218 7.173-7.178 7.173z"/></svg></svg><svg width="26" height="26" xmlns="http://www.w3.org/2000/svg" xmlns:xlink="http://www.w3.org/1999/xlink" xmlns:svgjs="http://svgjs.com/svgjs" viewBox="0 0.149 26 25.702" fill="#608553" x="256" y="869"><svg xmlns="http://www.w3.org/2000/svg" xmlns:xlink="http://www.w3.org/1999/xlink" width="26" height="26" viewBox="0.858 0.796 24.763 24.48"><path paint-order="stroke fill markers" fill-rule="evenodd" d="M15.237.796C9.514.796 4.852 5.453 4.852 11.18c0 1.98.562 3.827 1.525 5.406l-4.994 4.99a1.765 1.765 0 0 0-.525 1.257c0 .477.188.92.525 1.258l.664.664c.348.348.803.52 1.252.52.455 0 .91-.178 1.258-.52l4.936-4.936a10.272 10.272 0 0 0 5.744 1.745c5.728 0 10.384-4.662 10.384-10.384 0-5.728-4.656-10.385-10.384-10.385zM3.894 24.092a.837.837 0 0 1-1.184 0l-.663-.664a.83.83 0 0 1-.247-.594.83.83 0 0 1 .247-.594l4.86-4.86a10.4 10.4 0 0 0 1.815 1.884l-4.828 4.828zm11.343-3.469a9.404 9.404 0 0 1-5.905-2.082c-.042-.037-.09-.075-.139-.112a10.457 10.457 0 0 1-.578-.525c-.022-.022-.048-.043-.07-.064a10.532 10.532 0 0 1-.572-.632c-.006-.01-.017-.021-.027-.032a8.774 8.774 0 0 1-.498-.67c-.016-.02-.033-.037-.042-.058a9.372 9.372 0 0 1-1.612-5.267c0-5.209 4.234-9.449 9.443-9.449s9.447 4.24 9.447 9.449c0 5.208-4.238 9.442-9.447 9.442z"/></svg></svg><svg width="6" height="12" xmlns="http://www.w3.org/2000/svg" xmlns:xlink="http://www.w3.org/1999/xlink" xmlns:svgjs="http://svgjs.com/svgjs" viewBox="268 874 6 12" x="268" y="874"><svg width="6" height="12" xmlns="http://www.w3.org/2000/svg" xmlns:xlink="http://www.w3.org/1999/xlink" xmlns:svgjs="http://svgjs.com/svgjs" viewBox="0.298 0 5.404 12" fill="#608553" x="268" y="874"><svg xmlns="http://www.w3.org/2000/svg" xmlns:xlink="http://www.w3.org/1999/xlink" width="6" height="12" viewBox="0.811 0.79 4.855 10.781"><path paint-order="stroke fill markers" fill-rule="evenodd" d="M3.633 5.57C2.487 5.094 2 4.751 2 4.072c0-.525.38-1.13 1.39-1.13.633 0 1.093.16 1.398.31a.273.273 0 0 0 .37-.155l.133-.348a.282.282 0 0 0-.139-.347c-.364-.177-.84-.322-1.482-.343v-.996A.271.271 0 0 0 3.397.79H3.13a.271.271 0 0 0-.274.273v1.05C1.647 2.31.871 3.14.871 4.226c0 1.145.83 1.75 2.168 2.275.974.39 1.482.84 1.482 1.563 0 .75-.626 1.285-1.562 1.285a3.53 3.53 0 0 1-1.623-.402c-.144-.08-.32-.005-.38.15l-.128.364a.266.266 0 0 0 .112.321c.466.268 1.157.45 1.82.46v1.055c0 .15.123.273.279.273h.278c.15 0 .273-.123.273-.273v-1.092c1.354-.225 2.077-1.194 2.077-2.232 0-1.172-.685-1.852-2.034-2.404z"/></svg></svg></svg></svg><svg width="28" height="26" xmlns="http://www.w3.org/2000/svg" xmlns:xlink="http://www.w3.org/1999/xlink" xmlns:svgjs="http://svgjs.com/svgjs" viewBox="110 864 28 26" x="110" y="864"><svg width="28" height="26" xmlns="http://www.w3.org/2000/svg" xmlns:xlink="http://www.w3.org/1999/xlink" xmlns:svgjs="http://svgjs.com/svgjs" viewBox="0 0.117 28 25.766" fill="#608553" x="110" y="864"><svg xmlns="http://www.w3.org/2000/svg" xmlns:xlink="http://www.w3.org/1999/xlink" width="28" height="26" viewBox="0.588 0.091 27.099 24.937"><path paint-order="stroke fill markers" fill-rule="evenodd" d="M27.5 14.285l-3.565-6.921c.337-.306.519-.729.519-1.162 0-.241-.059-.487-.176-.717L21.933.94a1.564 1.564 0 0 0-2.11-.675L14.3 3.113l-1.065-2.06a1.41 1.41 0 0 0-1.905-.611L6.51 2.926a1.42 1.42 0 0 0-.61 1.906l1.065 2.06-5.53 2.848a1.566 1.566 0 0 0-.674 2.11l2.344 4.544a1.563 1.563 0 0 0 1.723.814l3.566 6.916a1.663 1.663 0 0 0 2.243.717l16.145-8.318a1.657 1.657 0 0 0 .717-2.238zm-22.906 1.83a.456.456 0 0 1-.498-.23l-2.344-4.55a.451.451 0 0 1 .192-.605l18.393-9.474a.451.451 0 0 1 .606.192l2.344 4.55a.45.45 0 0 1-.102.536l-6.027 5.455-.16-.311a1.12 1.12 0 0 0-1.51-.487l-2.634 1.36a1.121 1.121 0 0 0-.482 1.51l.155.31-7.933 1.745zM6.896 4.319a.3.3 0 0 1 .128-.402l4.818-2.484a.3.3 0 0 1 .402.129l1.06 2.06-5.348 2.757-1.06-2.06zm19.378 11.209l-16.15 8.324a.548.548 0 0 1-.733-.236l-3.426-6.654 7.093-1.563.144.284a1.13 1.13 0 0 0 1.515.482l2.633-1.355c.552-.283.766-.963.483-1.514l-.145-.279 5.39-4.876 3.432 6.653c.134.268.032.6-.236.734zm-9.437-1.713l-2.634 1.36s-.005 0-.005-.006l-.83-1.627 2.64-1.355.829 1.628z"/></svg></svg></svg><svg width="25" height="25" xmlns="http://www.w3.org/2000/svg" xmlns:xlink="http://www.w3.org/1999/xlink" xmlns:svgjs="http://svgjs.com/svgjs" viewBox="209 788 25 25" x="209" y="788"><svg width="1" height="1" xmlns="http://www.w3.org/2000/svg" xmlns:xlink="http://www.w3.org/1999/xlink" xmlns:svgjs="http://svgjs.com/svgjs" fill="#608553" x="210" y="804"><svg xmlns="http://www.w3.org/2000/svg" xmlns:xlink="http://www.w3.org/1999/xlink" width="1" height="1"><path paint-order="stroke fill markers" fill-rule="evenodd" d="M.144.585z"/></svg></svg><svg width="1" height="1" xmlns="http://www.w3.org/2000/svg" xmlns:xlink="http://www.w3.org/1999/xlink" xmlns:svgjs="http://svgjs.com/svgjs" viewBox="0 0.404 1 0.191" fill="#608553" x="226" y="810"><svg xmlns="http://www.w3.org/2000/svg" xmlns:xlink="http://www.w3.org/1999/xlink" width="1" height="1" viewBox="0.085 0.53 0.001 0"><path paint-order="stroke fill markers" fill-rule="evenodd" d="M.086.53H.085z"/></svg></svg><svg width="16" height="21" xmlns="http://www.w3.org/2000/svg" xmlns:xlink="http://www.w3.org/1999/xlink" xmlns:svgjs="http://svgjs.com/svgjs" viewBox="0.5 0 15 21" fill="#608553" x="213" y="792"><svg xmlns="http://www.w3.org/2000/svg" xmlns:xlink="http://www.w3.org/1999/xlink" width="16" height="21" viewBox="0.581 0.5 14.526 20.336"><path paint-order="stroke fill markers" fill-rule="evenodd" d="M14.47 4.584a6.923 6.923 0 0 0-3.907-3.64 6.902 6.902 0 0 0-5.332.193 6.945 6.945 0 0 0-3.64 3.908 6.924 6.924 0 0 0 .204 5.358c.267.573.47 1.499.358 2.05l-.204 1.001a.827.827 0 0 0-.46.46l-.042.124a.788.788 0 0 0 .085.7l-.835 2.25a1.813 1.813 0 0 0 1.065 2.333l.262.102c.028.182.097.37.214.54.209.322.552.579.964.734.246.09.498.139.744.139.155 0 .316-.021.46-.064.204-.054.38-.145.52-.268l.257.096c.209.075.423.113.637.113.257 0 .514-.054.754-.166.44-.198.777-.562.948-1.017l.835-2.232a.782.782 0 0 0 .524-.487l.049-.124a.801.801 0 0 0-.021-.61c-.006-.016-.022-.021-.027-.037l.503-.889c.278-.493 1.044-1.054 1.616-1.317a6.914 6.914 0 0 0 3.662-3.918 6.902 6.902 0 0 0-.193-5.332zM6.537 19.166a.768.768 0 0 1-.985.45l-3.42-1.28a.74.74 0 0 1-.428-.396.751.751 0 0 1-.022-.589l.776-2.082 4.855 1.815-.776 2.082zm7.14-9.614a5.876 5.876 0 0 1-3.109 3.324c-.739.332-1.67 1.006-2.098 1.756l-.477.851-.862-.321c.44-.959 1.836-3.689 4.914-6.943a.575.575 0 0 0-.02-.809.569.569 0 0 0-.809.022.628.628 0 0 0-.06.064 2.043 2.043 0 0 1-.101-.209c-.123-.294-.294-.706-.84-.91-.546-.203-.942-.005-1.232.14-.24.117-.348.165-.53.096-.182-.07-.23-.171-.337-.423-.123-.3-.294-.701-.84-.905-.546-.208-.942-.01-1.237.134-.08.043-.15.07-.208.091v-.085a.578.578 0 0 0-.6-.546.566.566 0 0 0-.546.594c.193 4.459-.54 7.457-.835 8.463l-.857-.316.193-.958c.171-.84-.096-1.965-.438-2.698a5.898 5.898 0 0 1-.172-4.556 5.925 5.925 0 1 1 11.102 4.143zM5.858 6.42c.23-.037.423-.128.579-.209.24-.117.348-.165.53-.096.181.064.23.171.337.418.112.283.294.706.84.91.546.203.958 0 1.231-.134.247-.118.348-.166.53-.096.177.064.23.166.332.417.07.166.16.353.305.53-2.816 3.153-4.084 5.685-4.486 6.6l-1.124-.417c.289-.959.99-3.71.926-7.923z"/></svg></svg><svg width="3" height="5" xmlns="http://www.w3.org/2000/svg" xmlns:xlink="http://www.w3.org/1999/xlink" xmlns:svgjs="http://svgjs.com/svgjs" viewBox="0.049 0 2.903 5" fill="#608553" x="223" y="788"><svg xmlns="http://www.w3.org/2000/svg" xmlns:xlink="http://www.w3.org/1999/xlink" width="3" height="5" viewBox="0.499 0.076 2.291 3.947"><path paint-order="stroke fill markers" fill-rule="evenodd" d="M.924 3.981a.643.643 0 0 0 .5-.018.65.65 0 0 0 .341-.366L2.748.96a.643.643 0 0 0-.017-.5.648.648 0 0 0-.866-.324.65.65 0 0 0-.34.366L.54 3.141a.647.647 0 0 0 .017.499c.073.159.202.28.366.341z"/></svg></svg><svg width="3" height="4" xmlns="http://www.w3.org/2000/svg" xmlns:xlink="http://www.w3.org/1999/xlink" xmlns:svgjs="http://svgjs.com/svgjs" viewBox="0.243 0 2.514 4" fill="#608553" x="215" y="788"><svg xmlns="http://www.w3.org/2000/svg" xmlns:xlink="http://www.w3.org/1999/xlink" width="3" height="4" viewBox="0.32 0.14 2.401 3.82"><path paint-order="stroke fill markers" fill-rule="evenodd" d="M1.468 3.567a.643.643 0 0 0 .6.394.647.647 0 0 0 .607-.415.647.647 0 0 0-.01-.5L1.572.533a.655.655 0 0 0-1.198.52l1.094 2.514z"/></svg></svg><svg width="5" height="4" xmlns="http://www.w3.org/2000/svg" xmlns:xlink="http://www.w3.org/1999/xlink" xmlns:svgjs="http://svgjs.com/svgjs" viewBox="0 0.576 5 2.849" fill="#608553" x="209" y="794"><svg xmlns="http://www.w3.org/2000/svg" xmlns:xlink="http://www.w3.org/1999/xlink" width="5" height="4" viewBox="0.137 0.696 4.165 2.373"><path paint-order="stroke fill markers" fill-rule="evenodd" d="M3.649 3.07a.651.651 0 0 0 .611-.426.647.647 0 0 0-.017-.5.647.647 0 0 0-.366-.341L1.02.737a.654.654 0 0 0-.457 1.224L3.42 3.028a.646.646 0 0 0 .229.042z"/></svg></svg><svg width="5" height="3" xmlns="http://www.w3.org/2000/svg" xmlns:xlink="http://www.w3.org/1999/xlink" xmlns:svgjs="http://svgjs.com/svgjs" viewBox="0.189 0 4.622 3" fill="#608553" x="209" y="802"><svg xmlns="http://www.w3.org/2000/svg" xmlns:xlink="http://www.w3.org/1999/xlink" width="5" height="3" viewBox="0.609 0.442 3.824 2.482"><path paint-order="stroke fill markers" fill-rule="evenodd" d="M4.37.82a.65.65 0 0 0-.867-.315L.987 1.677a.649.649 0 0 0-.315.867.667.667 0 0 0 .358.337h.005a.621.621 0 0 0 .503-.021l2.517-1.172A.652.652 0 0 0 4.37.82z"/></svg></svg><svg width="5" height="3" xmlns="http://www.w3.org/2000/svg" xmlns:xlink="http://www.w3.org/1999/xlink" xmlns:svgjs="http://svgjs.com/svgjs" viewBox="0.223 0 4.554 3" fill="#608553" x="228" y="794"><svg xmlns="http://www.w3.org/2000/svg" xmlns:xlink="http://www.w3.org/1999/xlink" width="5" height="3" viewBox="0.894 0.124 3.78 2.49"><path paint-order="stroke fill markers" fill-rule="evenodd" d="M1.319 2.573a.658.658 0 0 0 .51-.023l2.473-1.183a.65.65 0 0 0 .306-.872.656.656 0 0 0-.871-.307L1.265 1.37a.655.655 0 0 0 .054 1.202z"/></svg></svg><svg width="6" height="3" xmlns="http://www.w3.org/2000/svg" xmlns:xlink="http://www.w3.org/1999/xlink" xmlns:svgjs="http://svgjs.com/svgjs" viewBox="0.368 0 5.264 3" fill="#608553" x="228" y="802"><svg xmlns="http://www.w3.org/2000/svg" xmlns:xlink="http://www.w3.org/1999/xlink" width="6" height="3" viewBox="0.888 0.06 4.165 2.374"><path paint-order="stroke fill markers" fill-rule="evenodd" d="M4.994 1.508a.652.652 0 0 0-.366-.34L1.77.102a.642.642 0 0 0-.5.018.647.647 0 0 0-.34.366.648.648 0 0 0 .384.84l2.857 1.066a.654.654 0 0 0 .842-.384.65.65 0 0 0-.019-.5z"/></svg></svg><svg width="3" height="4" xmlns="http://www.w3.org/2000/svg" xmlns:xlink="http://www.w3.org/1999/xlink" xmlns:svgjs="http://svgjs.com/svgjs" viewBox="0.229 0 2.541 4" fill="#608553" x="224" y="807"><svg xmlns="http://www.w3.org/2000/svg" xmlns:xlink="http://www.w3.org/1999/xlink" width="3" height="4" viewBox="0.416 0.025 2.44 3.841"><path paint-order="stroke fill markers" fill-rule="evenodd" d="M2.801 2.945L1.667.413A.65.65 0 0 0 .804.081a.654.654 0 0 0-.332.862l1.135 2.538c.07.16.204.283.37.342.075.032.15.043.23.043a.641.641 0 0 0 .262-.059.618.618 0 0 0 .343-.364.645.645 0 0 0-.01-.498z"/></svg></svg></svg><svg width="24" height="28" xmlns="http://www.w3.org/2000/svg" xmlns:xlink="http://www.w3.org/1999/xlink" xmlns:svgjs="http://svgjs.com/svgjs" viewBox="141 785 24 28" x="141" y="785"><svg width="3" height="3" xmlns="http://www.w3.org/2000/svg" xmlns:xlink="http://www.w3.org/1999/xlink" xmlns:svgjs="http://svgjs.com/svgjs" viewBox="0.554 0 1.891 3" fill="#608553" x="153" y="800"><svg xmlns="http://www.w3.org/2000/svg" xmlns:xlink="http://www.w3.org/1999/xlink" width="3" height="3" viewBox="0.756 0.455 1.572 2.494"><path paint-order="stroke fill markers" fill-rule="evenodd" d="M2.036 2.914a.47.47 0 0 0 .258-.611L1.66.748a.47.47 0 0 0-.87.354l.633 1.555a.47.47 0 0 0 .612.257z"/></svg></svg><svg width="24" height="28" xmlns="http://www.w3.org/2000/svg" xmlns:xlink="http://www.w3.org/1999/xlink" xmlns:svgjs="http://svgjs.com/svgjs" viewBox="0.031 0 23.938 28" fill="#608553" x="141" y="785"><svg xmlns="http://www.w3.org/2000/svg" xmlns:xlink="http://www.w3.org/1999/xlink" width="24" height="28" viewBox="0.865 0.408 23.072 26.987"><path paint-order="stroke fill markers" fill-rule="evenodd" d="M23.85 20.534a1.206 1.206 0 0 0-1.573-.658l-.246.102c-.643-1.472-3.03-5.98-8.33-6.21l-.278-.68c1.665-1.771 2.27-3.763 2.371-5.54a.6.6 0 0 0 .01-.171c.087-2.024-.46-3.758-.754-4.55l.251-.102a1.202 1.202 0 1 0-.91-2.227L1.614 5.696a1.204 1.204 0 1 0 .91 2.232l.257-.107c.332.776 1.162 2.398 2.639 3.79.032.043.07.075.112.107 1.317 1.2 3.138 2.205 5.568 2.312l.278.686c-3.635 3.864-2.19 8.752-1.622 10.256l-.252.102a1.204 1.204 0 0 0 .905 2.232l12.778-5.203c.615-.252.91-.953.663-1.569zM2.17 7.056a.272.272 0 0 1-.347-.145.267.267 0 0 1 .15-.343l12.772-5.203a.27.27 0 0 1 .343.145.267.267 0 0 1-.145.347L2.17 7.056zm1.468.417l10.54-4.293c.267.69.739 2.179.7 3.94l-9.003 3.667C4.622 9.555 3.926 8.153 3.638 7.473zm8.623 7.682a.467.467 0 0 0 .102-.514l-.509-1.247a.473.473 0 0 0-.428-.295c-2.018-.021-3.57-.712-4.748-1.627l8.11-3.298a7.702 7.702 0 0 1-2.249 4.47.493.493 0 0 0-.102.514l.509 1.247a.485.485 0 0 0 .434.3c5.032.048 7.21 4.266 7.783 5.62l-.262.108-6.194-1.628a.48.48 0 0 0-.53.22l-3.137 5.422-.417.172c-.524-1.37-1.884-5.953 1.638-9.464zm7.195 5.867l-6.997 2.847 2.35-4.057 4.647 1.21zm3.378.214l-12.778 5.198a.264.264 0 0 1-.343-.145.264.264 0 0 1 .144-.343l12.778-5.203a.27.27 0 0 1 .343.145.273.273 0 0 1-.144.348z"/></svg></svg></svg></svg><svg width="197" height="136" xmlns="http://www.w3.org/2000/svg" xmlns:xlink="http://www.w3.org/1999/xlink" xmlns:svgjs="http://svgjs.com/svgjs" viewBox="81 775 197 136" x="81" y="775"><svg width="9" height="9" xmlns="http://www.w3.org/2000/svg" xmlns:xlink="http://www.w3.org/1999/xlink" xmlns:svgjs="http://svgjs.com/svgjs" fill="#fff" x="81" y="825"><svg xmlns="http://www.w3.org/2000/svg" xmlns:xlink="http://www.w3.org/1999/xlink" width="9" height="9" viewBox="0.378 0.625 7.856 7.856"><path paint-order="stroke fill markers" fill-rule="evenodd" d="M3.504 1.101l-.809 1.478a.917.917 0 0 1-.363.364L.854 3.75a.915.915 0 0 0 0 1.605l1.478.808c.153.084.28.21.363.364l.809 1.477a.915.915 0 0 0 1.605 0l.808-1.477a.91.91 0 0 1 .363-.364l1.478-.808a.915.915 0 0 0 0-1.605L6.14 2.866a.374.374 0 0 1-.147-.147L5.11 1.1a.915.915 0 0 0-1.605 0z"/></svg></svg><svg width="5" height="5" xmlns="http://www.w3.org/2000/svg" xmlns:xlink="http://www.w3.org/1999/xlink" xmlns:svgjs="http://svgjs.com/svgjs" fill="#fff" x="137" y="804"><svg xmlns="http://www.w3.org/2000/svg" xmlns:xlink="http://www.w3.org/1999/xlink" width="5" height="5" viewBox="0.721 0.39 3.945 3.946"><path paint-order="stroke fill markers" fill-rule="evenodd" d="M2.29.63l-.406.742a.46.46 0 0 1-.182.182l-.743.406a.46.46 0 0 0 0 .806l.743.406a.46.46 0 0 1 .182.183l.406.742a.46.46 0 0 0 .806 0l.406-.742a.46.46 0 0 1 .182-.183l.742-.406a.459.459 0 0 0 0-.806l-.812-.444a.186.186 0 0 1-.074-.074L3.096.63a.46.46 0 0 0-.806 0z"/></svg></svg><svg width="5" height="5" xmlns="http://www.w3.org/2000/svg" xmlns:xlink="http://www.w3.org/1999/xlink" xmlns:svgjs="http://svgjs.com/svgjs" fill="#fff" x="129" y="844"><svg xmlns="http://www.w3.org/2000/svg" xmlns:xlink="http://www.w3.org/1999/xlink" width="5" height="5" viewBox="0.564 0.915 3.945 3.945"><path paint-order="stroke fill markers" fill-rule="evenodd" d="M2.134 1.154l-.406.742a.458.458 0 0 1-.183.183l-.742.406a.46.46 0 0 0 0 .806l.742.406c.078.042.141.105.183.183l.406.742a.46.46 0 0 0 .806 0l.406-.742a.466.466 0 0 1 .183-.183l.742-.406a.46.46 0 0 0 0-.806l-.812-.445a.18.18 0 0 1-.074-.073l-.445-.813a.46.46 0 0 0-.806 0z"/></svg></svg><svg width="5" height="5" xmlns="http://www.w3.org/2000/svg" xmlns:xlink="http://www.w3.org/1999/xlink" xmlns:svgjs="http://svgjs.com/svgjs" fill="#fff" x="140" y="885"><svg xmlns="http://www.w3.org/2000/svg" xmlns:xlink="http://www.w3.org/1999/xlink" width="5" height="5" viewBox="0.231 0.937 3.946 3.945"><path paint-order="stroke fill markers" fill-rule="evenodd" d="M1.801 1.176l-.406.742a.46.46 0 0 1-.183.183l-.742.405a.46.46 0 0 0 0 .807l.742.405c.078.043.141.106.183.183l.406.742a.46.46 0 0 0 .807 0l.406-.742a.462.462 0 0 1 .182-.183l.743-.405a.46.46 0 0 0 0-.807l-.813-.444a.186.186 0 0 1-.074-.074l-.444-.812a.46.46 0 0 0-.807 0z"/></svg></svg><svg width="5" height="5" xmlns="http://www.w3.org/2000/svg" xmlns:xlink="http://www.w3.org/1999/xlink" xmlns:svgjs="http://svgjs.com/svgjs" fill="#fff" x="239" y="794"><svg xmlns="http://www.w3.org/2000/svg" xmlns:xlink="http://www.w3.org/1999/xlink" width="5" height="5" viewBox="0.246 0.505 3.945 3.945"><path paint-order="stroke fill markers" fill-rule="evenodd" d="M1.815.744l-.406.742a.458.458 0 0 1-.182.183l-.742.405a.46.46 0 0 0 0 .807l.742.405c.077.043.14.106.182.183l.406.742a.46.46 0 0 0 .806 0l.406-.742a.46.46 0 0 1 .183-.183l.742-.405a.46.46 0 0 0 0-.807L3.14 1.63a.182.182 0 0 1-.073-.074L2.62.744a.46.46 0 0 0-.806 0z"/></svg></svg><svg width="5" height="5" xmlns="http://www.w3.org/2000/svg" xmlns:xlink="http://www.w3.org/1999/xlink" xmlns:svgjs="http://svgjs.com/svgjs" fill="#fff" x="192" y="810"><svg xmlns="http://www.w3.org/2000/svg" xmlns:xlink="http://www.w3.org/1999/xlink" width="5" height="5" viewBox="0.915 0.483 3.946 3.945"><path paint-order="stroke fill markers" fill-rule="evenodd" d="M2.485.722l-.406.742a.46.46 0 0 1-.183.183l-.742.405a.46.46 0 0 0 0 .806l.742.406c.078.043.141.106.183.183l.406.742a.46.46 0 0 0 .806 0l.406-.742a.46.46 0 0 1 .183-.183l.742-.406a.46.46 0 0 0 0-.806l-.812-.444a.184.184 0 0 1-.074-.074L3.29.722a.46.46 0 0 0-.806 0z"/></svg></svg><svg width="7" height="7" xmlns="http://www.w3.org/2000/svg" xmlns:xlink="http://www.w3.org/1999/xlink" xmlns:svgjs="http://svgjs.com/svgjs" fill="#fff" x="247" y="822"><svg xmlns="http://www.w3.org/2000/svg" xmlns:xlink="http://www.w3.org/1999/xlink" width="7" height="7" viewBox="0.829 0.865 5.52 5.52"><path paint-order="stroke fill markers" fill-rule="evenodd" d="M3.025 1.2l-.568 1.038a.64.64 0 0 1-.255.255l-1.04.568a.643.643 0 0 0 0 1.128l1.04.568a.643.643 0 0 1 .255.255l.568 1.039a.643.643 0 0 0 1.128 0l.568-1.039a.643.643 0 0 1 .255-.255l1.039-.568a.643.643 0 0 0 0-1.128L4.878 2.44a.262.262 0 0 1-.104-.104L4.153 1.2a.643.643 0 0 0-1.128 0z"/></svg></svg><svg width="6" height="6" xmlns="http://www.w3.org/2000/svg" xmlns:xlink="http://www.w3.org/1999/xlink" xmlns:svgjs="http://svgjs.com/svgjs" fill="#fff" x="224" y="868"><svg xmlns="http://www.w3.org/2000/svg" xmlns:xlink="http://www.w3.org/1999/xlink" width="6" height="6" viewBox="0.084 0.712 4.973 4.973"><path paint-order="stroke fill markers" fill-rule="evenodd" d="M2.063 1.013l-.512.935a.576.576 0 0 1-.23.23l-.936.512a.58.58 0 0 0 0 1.016l.936.512a.574.574 0 0 1 .23.23l.512.936a.58.58 0 0 0 1.016 0l.512-.936a.574.574 0 0 1 .23-.23l.935-.512a.579.579 0 0 0 0-1.016l-1.024-.56a.238.238 0 0 1-.093-.093l-.56-1.024a.58.58 0 0 0-1.016 0z"/></svg></svg><svg width="7" height="7" xmlns="http://www.w3.org/2000/svg" xmlns:xlink="http://www.w3.org/1999/xlink" xmlns:svgjs="http://svgjs.com/svgjs" fill="#fff" x="174" y="775"><svg xmlns="http://www.w3.org/2000/svg" xmlns:xlink="http://www.w3.org/1999/xlink" width="7" height="7" viewBox="0.773 0.852 5.52 5.52"><path paint-order="stroke fill markers" fill-rule="evenodd" d="M2.969 1.187L2.4 2.225a.643.643 0 0 1-.256.256l-1.038.567a.643.643 0 0 0 0 1.128l1.038.568c.108.06.197.148.256.255l.568 1.039a.643.643 0 0 0 1.127 0l.568-1.039a.644.644 0 0 1 .256-.255l1.038-.568a.643.643 0 0 0 0-1.128l-1.136-.621a.258.258 0 0 1-.104-.104l-.622-1.136a.643.643 0 0 0-1.127 0z"/></svg></svg><svg width="7" height="7" xmlns="http://www.w3.org/2000/svg" xmlns:xlink="http://www.w3.org/1999/xlink" xmlns:svgjs="http://svgjs.com/svgjs" viewBox="0 0 7 6.999" fill="#fff" x="271" y="904"><svg xmlns="http://www.w3.org/2000/svg" xmlns:xlink="http://www.w3.org/1999/xlink" width="7" height="7" viewBox="0.573 0.384 6.007 6.006"><path paint-order="stroke fill markers" fill-rule="evenodd" d="M4.19.748l.618 1.13c.064.117.16.214.278.278l1.13.618a.7.7 0 0 1 0 1.227l-1.13.618a.697.697 0 0 0-.278.278l-.618 1.13a.7.7 0 0 1-1.228 0l-.618-1.13a.697.697 0 0 0-.278-.278L.936 4a.7.7 0 0 1 0-1.227l1.237-.677a.284.284 0 0 0 .113-.112L2.962.748a.7.7 0 0 1 1.228 0z"/></svg></svg><svg width="7" height="7" xmlns="http://www.w3.org/2000/svg" xmlns:xlink="http://www.w3.org/1999/xlink" xmlns:svgjs="http://svgjs.com/svgjs" fill="#fff" x="94" y="864"><svg xmlns="http://www.w3.org/2000/svg" xmlns:xlink="http://www.w3.org/1999/xlink" width="7" height="7" viewBox="0.087 0.798 6.006 6.006"><path paint-order="stroke fill markers" fill-rule="evenodd" d="M3.704 1.162l.618 1.13a.7.7 0 0 0 .277.278l1.13.618a.7.7 0 0 1 0 1.227l-1.13.618a.7.7 0 0 0-.277.278l-.618 1.13a.7.7 0 0 1-1.228 0L1.86 5.31a.698.698 0 0 0-.278-.278L.45 4.415a.7.7 0 0 1 0-1.227l1.237-.677A.28.28 0 0 0 1.8 2.4l.676-1.237a.7.7 0 0 1 1.228 0z"/></svg></svg></svg></svg><svg width="28" height="25" xmlns="http://www.w3.org/2000/svg" xmlns:xlink="http://www.w3.org/1999/xlink" xmlns:svgjs="http://svgjs.com/svgjs" viewBox="0 0.085 28 24.831" fill="#608553" x="92" y="833"><svg xmlns="http://www.w3.org/2000/svg" xmlns:xlink="http://www.w3.org/1999/xlink" width="28" height="25" viewBox="0.447 0.552 27.291 24.202"><path paint-order="stroke fill markers" fill-rule="evenodd" d="M25.988 9.835c.118-.675.017-1.28-.304-1.815-.45-.755-1.232-1.145-1.687-1.317-.032-.75-.284-1.37-.75-1.852-.684-.706-1.648-.883-2.13-.931-.91-1.537-2.703-1.74-3.753-1.612-1.118-1.118-2.606-1.049-3.452-.797-2.11-1.66-4.491-.824-5.621-.038-1.263-.192-2.296.016-3.078.621C4.4 2.721 4.08 3.62 3.955 4.15c-1.22.027-2.002.487-2.446.894A3.256 3.256 0 0 0 .45 7.34c-.043 1.114.675 2.195.953 2.575 0 1.114.337 2.024 1.007 2.703.883.9 2.103 1.146 2.745 1.216.145.926.723 3.072 3.078 3.864 1.639.552 2.907.332 3.56.129.487 1.199 1.841 4.56 2.146 5.38.386 1.022 1.029 1.333 1.28 1.418.091.049.193.086.3.108.316.064.674-.017 1.012-.23.513-.333.984-1.034.856-1.837-.07-.444.118-1.012.31-1.44.766.557 1.965.792 2.886.295.899-.487 1.145-1.398 1.199-2.035.696.166 1.831.252 2.907-.444 1.317-.851 1.284-2.425 1.172-3.201.578-.235 1.51-.846 1.82-2.409.364-1.825-1.065-3.126-1.692-3.597zm.771 3.415c-.289 1.478-1.295 1.75-1.477 1.793-2.345-.016-2.762-1.643-2.832-2.242.637-.664.851-1.564.862-1.622a.465.465 0 0 0-.354-.563.476.476 0 0 0-.562.354c0 .016-.336 1.37-1.3 1.568-1.039.214-2.035-.658-2.045-.664a.466.466 0 0 0-.658.038.474.474 0 0 0 .036.664c.038.032.772.68 1.768.878.336.064.706.08 1.086.005.117-.027.225-.059.332-.102.225.851.862 2.168 2.682 2.532.193.038.407.059.631.075.08.568.129 1.718-.749 2.291-1.135.728-2.372.284-2.629.182-1.29-.995-.53-2.559-.498-2.623a.471.471 0 0 0-.83-.444c-.015.032-.449.739-1.905.53-1.493-.22-1.863-1.215-1.878-1.269a.466.466 0 0 0-.59-.3.465.465 0 0 0-.305.59c.022.063.536 1.605 2.64 1.905.712.102 1.263.032 1.68-.113-.042.777.177 1.665.991 2.361.016.364-.027 1.242-.723 1.622-.669.364-1.6.059-2.034-.353a5.207 5.207 0 0 0 .16-1.73.47.47 0 1 0-.936.103c.005.005.075.803-.177 1.541-.182.295-.851 1.494-.685 2.554.058.39-.177.733-.439.899-.172.112-.31.118-.353.091a.532.532 0 0 0-.15-.064c-.016-.006-.429-.129-.696-.862-.375-1.007-2.254-5.632-2.328-5.824a.471.471 0 0 0-.348-.284.467.467 0 0 0-.305.043c-.054.027-1.34.664-3.309 0-1.916-.648-2.355-2.388-2.451-3.11.487-.236 1.3-.803 1.793-2.115a2.85 2.85 0 0 0 .02-1.986c.745.225 1.64.375 2.351.113 1.59-.573 1.638-1.933 1.638-1.992a.462.462 0 0 0-.455-.47.474.474 0 0 0-.487.449c0 .075-.064.787-1.017 1.135-.873.316-2.505-.37-3.057-.659a.467.467 0 0 0-.61.161.465.465 0 0 0 .097.621c.015.01 1.15.932.636 2.296-.476 1.275-1.284 1.601-1.472 1.665-.284-.01-1.606-.107-2.44-.963-.51-.52-.755-1.242-.734-2.152.038-.155.236-.851 1.006-1.135a.477.477 0 0 0 .279-.605.479.479 0 0 0-.605-.278 2.51 2.51 0 0 0-1.237.99c-.219-.412-.417-.926-.401-1.397.022-.632.3-1.231.75-1.638.523-.477 1.278-.696 2.183-.643a.467.467 0 0 0 .498-.433c0-.011.096-1.151.969-1.826.605-.47 1.456-.604 2.537-.412a.454.454 0 0 0 .37-.086c.107-.08 2.548-1.932 4.812.054.134.118.326.15.487.086.07-.032 1.713-.685 2.843.637a.45.45 0 0 0 .45.155c.09-.016 2.274-.428 3.12 1.306a.46.46 0 0 0 .428.262c.012 0 1.103.006 1.74.664.354.364.514.873.488 1.52a.466.466 0 0 0 .358.477c.01 0 1.012.257 1.462 1.001.235.396.278.862.128 1.418a.48.48 0 0 0 .208.52c.022.01 1.868 1.183 1.542 2.81z"/></svg></svg><svg width="61" height="61" xmlns="http://www.w3.org/2000/svg" xmlns:xlink="http://www.w3.org/1999/xlink" xmlns:svgjs="http://svgjs.com/svgjs" viewBox="154 817 61 61" x="154" y="817"><svg width="59" height="58" xmlns="http://www.w3.org/2000/svg" xmlns:xlink="http://www.w3.org/1999/xlink" xmlns:svgjs="http://svgjs.com/svgjs" viewBox="0.5 0 58 58" fill="#fcd4b0" x="155" y="820"><svg xmlns="http://www.w3.org/2000/svg" xmlns:xlink="http://www.w3.org/1999/xlink" width="59" height="58" viewBox="0.921 0.07 57.178 57.178"><path paint-order="stroke fill markers" fill-rule="evenodd" d="M29.51 57.248C13.7 57.248.92 44.47.92 28.66.921 12.85 13.701.07 29.51.07c15.81 0 28.589 12.78 28.589 28.59s-12.78 28.59-28.59 28.59z"/></svg></svg><svg width="27" height="21" xmlns="http://www.w3.org/2000/svg" xmlns:xlink="http://www.w3.org/1999/xlink" xmlns:svgjs="http://svgjs.com/svgjs" viewBox="161 847 27 21" x="161" y="847"><svg width="7" height="9" xmlns="http://www.w3.org/2000/svg" xmlns:xlink="http://www.w3.org/1999/xlink" xmlns:svgjs="http://svgjs.com/svgjs" viewBox="180 850 7 9" x="180" y="850"><svg width="7" height="8" xmlns="http://www.w3.org/2000/svg" xmlns:xlink="http://www.w3.org/1999/xlink" xmlns:svgjs="http://svgjs.com/svgjs" viewBox="0.44 0 6.119 8" fill="#5e513d" x="180" y="851"><svg xmlns="http://www.w3.org/2000/svg" xmlns:xlink="http://www.w3.org/1999/xlink" width="7" height="8" viewBox="0.872 0.715 5.282 6.905"><path paint-order="stroke fill markers" fill-rule="evenodd" d="M2.571 7.533a2.325 2.325 0 0 0 2.866-1.612l.63-2.254A2.325 2.325 0 0 0 1.59 2.414L.96 4.668A2.325 2.325 0 0 0 2.57 7.533z"/></svg></svg><svg width="4" height="4" xmlns="http://www.w3.org/2000/svg" xmlns:xlink="http://www.w3.org/1999/xlink" xmlns:svgjs="http://svgjs.com/svgjs" viewBox="0.241 0 3.517 4" fill="#fff" x="180" y="850"><svg xmlns="http://www.w3.org/2000/svg" xmlns:xlink="http://www.w3.org/1999/xlink" width="4" height="4" viewBox="0.802 0.282 3.192 3.631"><path paint-order="stroke fill markers" fill-rule="evenodd" d="M1.906 3.857a1.511 1.511 0 0 0 1.862-1.048l.17-.609a1.511 1.511 0 0 0-2.91-.814l-.17.609a1.511 1.511 0 0 0 1.048 1.862z"/></svg></svg></svg><svg width="8" height="9" xmlns="http://www.w3.org/2000/svg" xmlns:xlink="http://www.w3.org/1999/xlink" xmlns:svgjs="http://svgjs.com/svgjs" viewBox="166 847 8 9" x="166" y="847"><svg width="6" height="8" xmlns="http://www.w3.org/2000/svg" xmlns:xlink="http://www.w3.org/1999/xlink" xmlns:svgjs="http://svgjs.com/svgjs" viewBox="0 0.078 6 7.844" fill="#5e513d" x="166" y="848"><svg xmlns="http://www.w3.org/2000/svg" xmlns:xlink="http://www.w3.org/1999/xlink" width="6" height="8" viewBox="0.554 0.334 5.282 6.905"><path paint-order="stroke fill markers" fill-rule="evenodd" d="M2.253 7.152A2.325 2.325 0 0 1 .64 4.287l.632-2.254A2.324 2.324 0 1 1 5.75 3.286L5.118 5.54a2.325 2.325 0 0 1-2.866 1.612z"/></svg></svg><svg width="4" height="5" xmlns="http://www.w3.org/2000/svg" xmlns:xlink="http://www.w3.org/1999/xlink" xmlns:svgjs="http://svgjs.com/svgjs" viewBox="0 0.225 4 4.55" fill="#fff" x="170" y="847"><svg xmlns="http://www.w3.org/2000/svg" xmlns:xlink="http://www.w3.org/1999/xlink" width="4" height="5" viewBox="0.145 0.925 3.192 3.631"><path paint-order="stroke fill markers" fill-rule="evenodd" d="M1.249 4.5A1.51 1.51 0 0 1 .202 2.638l.17-.609a1.51 1.51 0 1 1 2.91.814l-.171.609A1.51 1.51 0 0 1 1.249 4.5z"/></svg></svg></svg><svg width="6" height="4" xmlns="http://www.w3.org/2000/svg" xmlns:xlink="http://www.w3.org/1999/xlink" xmlns:svgjs="http://svgjs.com/svgjs" viewBox="161 855 6 4" x="161" y="855"><svg width="6" height="4" xmlns="http://www.w3.org/2000/svg" xmlns:xlink="http://www.w3.org/1999/xlink" xmlns:svgjs="http://svgjs.com/svgjs" viewBox="0 0.18 6 3.64" fill="#ff9499" x="161" y="855"><svg xmlns="http://www.w3.org/2000/svg" xmlns:xlink="http://www.w3.org/1999/xlink" width="6" height="4" viewBox="0.963 0.522 5.016 3.043"><path paint-order="stroke fill markers" fill-rule="evenodd" d="M.988 1.411c-.194.764.76 1.666 2.13 2.016 1.372.35 2.641.013 2.836-.75.195-.765-.76-1.667-2.13-2.017C2.451.31 1.181.647.987 1.411z"/></svg></svg></svg><svg width="6" height="4" xmlns="http://www.w3.org/2000/svg" xmlns:xlink="http://www.w3.org/1999/xlink" xmlns:svgjs="http://svgjs.com/svgjs" viewBox="182 860 6 4" x="182" y="860"><svg width="6" height="4" xmlns="http://www.w3.org/2000/svg" xmlns:xlink="http://www.w3.org/1999/xlink" xmlns:svgjs="http://svgjs.com/svgjs" viewBox="0 0.18 6 3.64" fill="#ff9499" x="182" y="860"><svg xmlns="http://www.w3.org/2000/svg" xmlns:xlink="http://www.w3.org/1999/xlink" width="6" height="4" viewBox="0.661 0.751 5.016 3.043"><path paint-order="stroke fill markers" fill-rule="evenodd" d="M.687 1.64c-.195.764.758 1.667 2.13 2.016 1.371.35 2.641.013 2.835-.75.195-.765-.758-1.667-2.13-2.016C2.15.54.881.876.687 1.64z"/></svg></svg></svg><svg width="12" height="6" xmlns="http://www.w3.org/2000/svg" xmlns:xlink="http://www.w3.org/1999/xlink" xmlns:svgjs="http://svgjs.com/svgjs" viewBox="0 0.438 12 5.124" fill="#fcb095" x="167" y="862"><svg xmlns="http://www.w3.org/2000/svg" xmlns:xlink="http://www.w3.org/1999/xlink" width="12" height="6" viewBox="0.081 0.887 11.217 4.789"><path paint-order="stroke fill markers" fill-rule="evenodd" d="M.08 1.977s.04-.033.12-.086c.081-.051.199-.135.358-.215a6.727 6.727 0 0 1 1.385-.543A7.493 7.493 0 0 1 4.055.89c.405.018.78.047 1.237.146.191.05.366.073.575.144.21.073.43.143.632.223l.574.26c.184.095.363.198.543.296.35.208.68.43.984.663.61.463 1.12.955 1.524 1.406a9.957 9.957 0 0 1 .891 1.163c.194.299.282.486.282.486s-.187-.09-.496-.253c-.31-.163-.742-.4-1.253-.68l-.814-.45c-.285-.161-.589-.322-.897-.489-.309-.167-.631-.325-.953-.49-.162-.076-.328-.148-.49-.231L5.9 2.872c-.16-.068-.31-.118-.465-.18-.157-.058-.363-.115-.54-.172L4.827 2.5l-.035-.01c.014.003-.036-.01.029.006h-.004l-.008-.002-.016-.004-.128-.03-.251-.066-.503-.107c-.334-.059-.66-.116-.976-.152a15.946 15.946 0 0 0-.9-.09 20.941 20.941 0 0 0-1.4-.063L.08 1.977z"/></svg></svg></svg><svg width="61" height="57" xmlns="http://www.w3.org/2000/svg" xmlns:xlink="http://www.w3.org/1999/xlink" xmlns:svgjs="http://svgjs.com/svgjs" viewBox="0.003 0 60.993 57" fill="#d46419" x="154" y="817"><svg xmlns="http://www.w3.org/2000/svg" xmlns:xlink="http://www.w3.org/1999/xlink" width="61" height="57" viewBox="0.619 0.571 60.021 56.092"><path paint-order="stroke fill markers" fill-rule="evenodd" d="M45.463 46.102c-.507.536-1.474.127-1.342-.599 1.506-8.337-.369-17.866-4.276-20.067-3.388-1.908-8.184 1.772-19.467-.887C-4.559 18.674 1.192 3.25 1.192 3.25s10.4-1.85 18.256 1.758c0 0-1.043-1.985-.263-4.42 0 0 23.703-1.018 33.26 12.599 0 0 .357-1.548.754-1.725.6-.267 1.923 1.362 2.355 2.44 0 0 1.996-2.432 2.892-2.42 1.085.016-.195 3.49-1.515 3.966 0 0 2.937.208 3.02.737.093.61-2.815 1.693-2.815 1.693s10.398 15.764-4.627 33.578c-11.978 14.2-3.498-4.552-2.467-10.03.169-.898-2.892 2.893-4.579 4.677z"/></svg></svg><svg width="10" height="14" xmlns="http://www.w3.org/2000/svg" xmlns:xlink="http://www.w3.org/1999/xlink" xmlns:svgjs="http://svgjs.com/svgjs" viewBox="199 855 10 14" x="199" y="855"><svg width="10" height="13" xmlns="http://www.w3.org/2000/svg" xmlns:xlink="http://www.w3.org/1999/xlink" xmlns:svgjs="http://svgjs.com/svgjs" viewBox="0.181 0 9.639 13" fill="#fcd4b0" x="199" y="855"><svg xmlns="http://www.w3.org/2000/svg" xmlns:xlink="http://www.w3.org/1999/xlink" width="10" height="13" viewBox="0.357 0.542 9.036 12.187"><path paint-order="stroke fill markers" fill-rule="evenodd" d="M.358 10.559c-.037 1.94 3.563 3.245 6.44.951 3.162-2.522 3.213-7.9 1.343-9.933C6.198-.535 3.238 1.24 3.238 1.24S.49 3.486.358 10.559z"/></svg></svg><svg width="4" height="6" xmlns="http://www.w3.org/2000/svg" xmlns:xlink="http://www.w3.org/1999/xlink" xmlns:svgjs="http://svgjs.com/svgjs" viewBox="0.119 0 3.762 6" fill="#fcb095" x="201" y="859"><svg xmlns="http://www.w3.org/2000/svg" xmlns:xlink="http://www.w3.org/1999/xlink" width="4" height="6" viewBox="0.138 0.385 3.178 5.068"><path paint-order="stroke fill markers" fill-rule="evenodd" d="M.25 1.292C.356.74.474.385.474.385l.083.017s-.033.366-.009.911c.022.386.064.863.166 1.339.036-.05.063-.102.106-.148.183-.17.415-.301.634-.426.87-.528 1.832-.7 1.832-.7l.031.08s-.202.125-.485.34c-.278.22-.653.497-.965.82-.16.158-.277.348-.403.495-.134.14-.27.25-.399.349l-.062.05a7.742 7.742 0 0 0 .77 1.213c.084.083.158.173.227.255l.206.193c.119.11.19.19.19.19l-.023.082s-.099.014-.278.006c-.09-.003-.205-.003-.329-.032a4.091 4.091 0 0 1-.403-.152c-.148-.063-.277-.18-.426-.293-.148-.114-.252-.28-.373-.44A3.52 3.52 0 0 1 .211 3.39a6.059 6.059 0 0 1 .04-2.098z"/></svg></svg><svg width="10" height="14" xmlns="http://www.w3.org/2000/svg" xmlns:xlink="http://www.w3.org/1999/xlink" xmlns:svgjs="http://svgjs.com/svgjs" viewBox="0 0.236 10 13.528" fill="#fcb095" x="199" y="855"><svg xmlns="http://www.w3.org/2000/svg" xmlns:xlink="http://www.w3.org/1999/xlink" width="10" height="14" viewBox="0.296 0.366 9.531 12.894"><path paint-order="stroke fill markers" fill-rule="evenodd" d="M3.27 1.294s.323-.184.941-.368C4.814.755 5.776.55 6.763.932c.483.186.944.541 1.285 1.013.21.271.313.511.446.796.124.29.216.6.294.923.285 1.296.211 2.77-.21 4.111a6.99 6.99 0 0 1-.905 1.853c-.372.55-.875 1.026-1.316 1.381l-.422.306c-.139.096-.25.147-.373.227-.114.08-.25.136-.382.197a2.4 2.4 0 0 1-.392.169 4.13 4.13 0 0 1-1.545.266c-.987-.033-1.782-.45-2.229-.857a2.606 2.606 0 0 1-.46-.549c-.089-.147-.135-.226-.135-.226l-.123.034.052.278c.036.182.134.442.318.746.186.302.47.649.89.933.412.288.945.54 1.57.655.623.12 1.33.09 2.029-.102a4.57 4.57 0 0 0 1.043-.404c.167-.092.364-.19.507-.29l.425-.302c.63-.54 1.16-1.108 1.552-1.823.386-.7.702-1.443.88-2.218.374-1.541.35-3.15-.059-4.573a6.574 6.574 0 0 0-.399-1.019c-.163-.318-.375-.666-.585-.883A3.435 3.435 0 0 0 6.907.509C5.729.176 4.75.498 4.142.722c-.62.243-.936.462-.936.462l.064.11z"/></svg></svg></svg><svg width="9" height="22" xmlns="http://www.w3.org/2000/svg" xmlns:xlink="http://www.w3.org/1999/xlink" xmlns:svgjs="http://svgjs.com/svgjs" viewBox="0.651 0 7.698 22" fill="#d46419" x="155" y="834"><svg xmlns="http://www.w3.org/2000/svg" width="9" height="22" viewBox="0.893 0.3 7.408 21.173"><path paint-order="stroke fill markers" fill-rule="evenodd" d="M2.612 20.958c.423-5.173 1.754-15.608 5.69-17.583L4.693.3s-5.64 8.34-3.178 20.755c.122.614 1.046.527 1.097-.097z"/></svg></svg></svg></svg>